<svg width="201" height="200" viewBox="0 0 201 200" fill="none" xmlns="http://www.w3.org/2000/svg">
<path d="M116.41 89.6263C125.017 81.0192 125.017 67.0644 116.41 58.4573C107.802 49.8502 93.8476 49.8502 85.2405 58.4573C76.6334 67.0644 76.6334 81.0192 85.2405 89.6263C93.8476 98.2334 107.802 98.2334 116.41 89.6263Z" stroke="white" stroke-width="2" stroke-miterlimit="10" stroke-linecap="round" stroke-linejoin="round"/>
<path d="M100.826 52V96.0815" stroke="white" stroke-width="2" stroke-miterlimit="10" stroke-linecap="round" stroke-linejoin="round"/>
<path d="M97.7002 95.8553C97.7002 95.8553 90.4678 89.5783 90.4678 74.0395C90.4678 58.5006 97.7002 52.2236 97.7002 52.2236" stroke="white" stroke-width="2" stroke-miterlimit="10" stroke-linecap="round" stroke-linejoin="round"/>
<path d="M104.3 95.8553C104.3 95.8553 111.532 89.5783 111.532 74.0395C111.532 58.5006 104.3 52.2236 104.3 52.2236" stroke="white" stroke-width="2" stroke-miterlimit="10" stroke-linecap="round" stroke-linejoin="round"/>
<path d="M78.7861 74.041H122.868" stroke="white" stroke-width="2" stroke-miterlimit="10" stroke-linecap="round" stroke-linejoin="round"/>
<path d="M117.945 88.0403C114.451 86.1679 108.884 84.2227 100.828 84.2227C93.0581 84.2227 87.6038 86.0308 84.0933 87.8389" stroke="white" stroke-width="2" stroke-miterlimit="10" stroke-linecap="round" stroke-linejoin="round"/>
<path d="M84.0918 61.0195C87.5852 62.8919 93.1523 64.8371 101.209 64.8371C108.978 64.8371 114.433 63.029 117.943 61.2209" stroke="white" stroke-width="2" stroke-miterlimit="10" stroke-linecap="round" stroke-linejoin="round"/>
<path d="M68.1131 149.003V132.802C55.6278 126.846 47 114.107 47 99.3518C47 87.0492 52.9985 76.1478 62.2289 69.4109C62.2289 69.4109 65.1253 68.2483 66.6407 70.4378C68.156 72.6258 66.2222 75.3351 66.2222 75.3351C61.2349 79.4426 58.0543 85.6653 58.0543 92.6307C58.0543 100.733 62.3575 107.831 68.8044 111.763" stroke="white" stroke-width="2" stroke-miterlimit="10" stroke-linecap="round" stroke-linejoin="round"/>
<path d="M90.4245 149.003V135.289C93.3624 133.152 95.2733 129.688 95.2733 125.776C95.2733 121.901 93.3995 118.465 90.5074 116.324C88.8564 114.833 84.1076 113.08 84.1076 113.08C76.4424 110.55 70.3626 104.534 67.7432 96.9089C67.7432 96.9089 66.6835 93.0941 62.9359 93.5483C58.767 94.0539 59.2597 99.8938 59.2597 99.8938" stroke="white" stroke-width="2" stroke-miterlimit="10" stroke-linecap="round" stroke-linejoin="round"/>
<path d="M132.909 149.003V132.802C145.394 126.846 154.022 114.107 154.022 99.3518C154.022 87.0492 148.023 76.1478 138.793 69.4109C138.793 69.4109 135.896 68.2483 134.381 70.4378C132.866 72.6258 134.799 75.3351 134.799 75.3351C139.787 79.4426 142.967 85.6653 142.967 92.6307C142.967 100.733 138.664 107.831 132.217 111.763" stroke="white" stroke-width="2" stroke-miterlimit="10" stroke-linecap="round" stroke-linejoin="round"/>
<path d="M110.597 149.003V135.289C107.659 133.152 105.748 129.688 105.748 125.776C105.748 121.901 107.623 118.465 110.514 116.324C112.165 114.833 116.914 113.08 116.914 113.08C124.579 110.55 130.659 104.534 133.278 96.9089C133.278 96.9089 134.338 93.0941 138.085 93.5483C142.254 94.0539 141.762 99.8938 141.762 99.8938" stroke="white" stroke-width="2" stroke-miterlimit="10" stroke-linecap="round" stroke-linejoin="round"/>
</svg>
