<svg width="146" height="182" viewBox="0 0 146 182" fill="none" xmlns="http://www.w3.org/2000/svg">
<path d="M134.368 68.4049V69.0328C134.478 69.0113 134.581 68.9898 134.708 68.964C134.703 69.0392 134.714 69.1037 134.695 69.1553C134.574 69.48 134.275 69.8563 134.357 70.1101C134.503 70.5616 134.258 70.8519 134.17 71.211C134.065 71.6432 133.757 71.9722 133.676 72.4388C133.598 72.8839 133.254 73.2903 132.994 73.6903C132.747 74.0687 132.463 74.4235 132.181 74.7783C131.996 75.0127 131.592 75.1137 131.736 75.5503C131.749 75.5911 131.596 75.6943 131.512 75.7567C131.355 75.8728 131.192 75.9803 130.992 76.1179C131.248 76.419 131.097 76.6727 130.919 76.9221C130.358 77.6984 129.799 78.4768 129.233 79.2487C128.706 79.9669 128.175 80.683 127.582 81.485C127.782 81.4635 127.874 81.4528 128.027 81.4377C127.951 81.5753 127.906 81.6936 127.833 81.7882C126.739 83.2074 125.563 84.5535 124.307 85.835C123.236 86.9274 122.167 88.0175 120.963 88.968C119.873 89.8302 118.781 90.6903 117.688 91.5504C117.45 91.7397 117.2 91.9138 116.966 92.1095C116.146 92.7912 115.121 93.0599 114.157 93.5351C114.295 93.5803 114.409 93.619 114.654 93.7007C113.702 94.1652 112.805 94.5307 111.986 95.0253C111.179 95.5112 110.347 95.8983 109.448 96.152C109.283 96.1993 109.098 96.1993 108.945 96.2724C108.702 96.3864 108.416 96.4079 108.253 96.7089C108.156 96.8853 107.881 96.967 107.644 97.1175C107.859 97.3218 108.07 97.5196 108.283 97.7196C108.264 97.7454 108.244 97.7712 108.225 97.7991C108.113 97.7196 107.995 97.6486 107.889 97.5583C107.296 97.0508 107.184 97.053 106.526 97.6465C106.726 97.84 106.907 98.0486 107.122 98.2141C108.074 98.9538 108.823 99.8957 109.644 100.764C110.678 101.857 111.704 102.958 112.68 104.102C113.727 105.329 114.659 106.656 115.734 107.858C117.037 109.316 117.989 111.01 119.105 112.591C119.671 113.391 120.144 114.259 120.628 115.113C120.808 115.431 121.038 115.657 121.346 115.849C121.559 115.98 121.761 116.169 121.898 116.378C122.264 116.939 122.599 117.519 122.931 118.102C123.225 118.622 123.498 119.154 123.688 119.766C123.511 119.562 123.333 119.356 123.156 119.151C123.197 119.506 123.311 119.805 123.492 120.11C124.438 121.708 125.554 123.198 126.418 124.845C126.698 125.381 126.913 125.963 127.27 126.441C127.597 126.879 127.775 127.353 127.979 127.843C128.734 129.655 129.56 131.44 130.306 133.257C130.777 134.403 131.424 135.442 132.043 136.504C132.25 136.859 132.431 137.227 132.665 137.575C132.562 137.108 132.461 136.642 132.357 136.175C132.377 136.164 132.394 136.154 132.413 136.143C132.564 136.45 132.721 136.756 132.863 137.067C133.628 138.736 134.361 140.418 135.159 142.071C136.196 144.221 136.776 146.539 137.688 148.735C137.767 148.924 137.849 149.115 138.036 149.266C137.789 148.307 137.542 147.348 137.294 146.389C137.335 146.374 137.376 146.357 137.417 146.342C137.533 146.565 137.679 146.78 137.759 147.015C138.234 148.399 138.688 149.788 139.161 151.173C139.643 152.586 140.111 154.003 140.638 155.401C140.952 156.233 141.401 157.013 141.728 157.841C142.3 159.282 142.995 160.705 143.324 162.204C143.741 164.109 144.674 165.836 145.027 167.745C145.149 168.406 145.306 169.048 145.263 169.745C145.22 170.433 145.42 171.132 145.468 171.829C145.534 172.809 145.594 173.792 145.59 174.775C145.586 175.867 145.145 176.858 144.749 177.886C144.436 177.729 144.238 177.942 144.141 178.17C144.044 178.398 144.064 178.675 144.016 179.075C143.803 178.785 143.653 178.578 143.5 178.37C143.104 178.72 143.098 178.735 142.892 179.675C142.771 179.312 142.677 179.017 142.58 178.725C142.548 178.729 142.515 178.733 142.483 178.738C142.464 179 142.444 179.264 142.425 179.527H142.365C142.255 179.026 142.141 178.525 142.034 178.024C141.982 177.776 141.92 177.536 141.604 177.538C141.322 177.542 141.088 177.63 141.04 177.966C140.986 178.355 140.705 178.428 140.41 178.314C140.094 178.191 139.675 178.359 139.44 177.966C139.406 177.908 139.142 177.912 139.045 177.979C138.922 178.062 138.866 178.12 138.724 178.009C138.447 177.791 138.307 177.946 138.208 178.226C138.103 178.518 137.963 178.796 137.804 179.157C137.512 178.473 136.97 178.43 136.456 178.351C136.069 178.29 135.677 178.256 135.271 178.209C134.901 178.604 134.51 179.024 134.106 179.456C133.938 179.247 133.817 179.097 133.68 178.923C133.559 178.998 133.458 179.062 133.331 179.142C133.25 179.047 133.159 178.957 133.082 178.854C132.717 178.366 131.585 177.985 131.022 178.183C130.682 178.303 130.418 178.514 130.274 178.871C130.168 179.131 130.037 179.385 129.878 179.617C129.639 179.965 129.452 180.034 129.104 179.849C128.468 179.512 127.842 179.497 127.143 179.664C126.515 179.815 125.851 179.817 125.201 179.847C124.995 179.856 124.776 179.763 124.573 179.69C124.266 179.576 123.967 179.439 123.666 179.31C123.208 179.114 122.802 179.054 122.307 179.34C122.019 179.507 121.55 179.381 121.165 179.361C120.862 179.344 120.559 179.241 120.26 179.256C119.666 179.288 119.092 179.284 118.51 179.101C118.239 179.015 117.893 179.058 117.609 179.142C116.921 179.344 116.228 179.37 115.529 179.299C115.084 179.254 114.85 179.419 114.674 179.821C114.413 180.419 114.265 180.451 113.745 180.105C113.183 179.733 112.639 179.338 112.067 178.981C111.9 178.875 111.67 178.869 111.564 178.841C111.132 179.135 110.782 179.376 110.392 179.641C110.225 179.499 110.027 179.219 109.773 179.153C109.534 179.09 109.238 179.254 108.913 179.331C108.795 178.839 108.511 178.598 107.986 178.626C107.803 178.634 107.61 178.437 107.459 178.353C107.429 177.802 107.296 177.262 107.399 176.774C107.593 175.863 107.098 175.026 107.234 174.138C107.277 173.859 107.292 173.575 107.548 173.379C107.717 173.25 107.743 173.082 107.692 172.857C107.408 171.646 107.156 170.429 106.883 169.216C106.576 167.853 106.251 166.494 105.943 165.131C105.838 164.664 105.685 164.232 105.462 163.795C105.178 163.243 105.07 162.598 104.905 161.987C104.66 161.08 104.434 160.168 104.195 159.26C104.169 159.161 104.099 159.071 103.98 158.994C104.012 159.308 104.047 159.622 104.079 159.936C104.045 159.944 104.012 159.953 103.98 159.961C103.911 159.74 103.838 159.518 103.778 159.295C103.423 157.99 103.073 156.684 102.72 155.381C102.561 154.79 102.423 154.194 102.243 153.612C101.987 152.779 101.692 151.958 101.43 151.128C101.34 150.842 101.331 150.53 101.239 150.244C101.092 149.791 100.895 149.352 100.742 148.898C100.632 148.571 100.559 148.23 100.473 147.896C100.43 147.731 100.4 147.559 100.348 147.397C99.7614 145.574 99.1765 143.75 98.5766 141.931C98.2498 140.938 97.8907 139.953 97.5552 138.962C97.2972 138.196 97.0585 137.427 96.8069 136.659C96.4801 135.661 96.0737 134.702 95.5275 133.799C95.3232 133.461 95.2222 133.064 95.0738 132.694C94.7083 131.789 94.4287 130.857 94.16 129.92C93.9815 129.299 93.732 128.699 93.502 128.092C93.2117 127.333 92.9192 126.574 92.6117 125.824C92.0484 124.452 91.4764 123.084 90.9001 121.719C90.2895 120.272 89.6637 118.831 89.0574 117.384C88.451 115.935 87.8618 114.479 87.2554 113.032C87.1802 112.853 87.0705 112.679 86.9393 112.537C85.862 111.389 84.8213 110.204 83.6817 109.12C82.241 107.751 80.7315 106.454 79.2306 105.147C78.4887 104.502 77.6996 103.91 76.9427 103.284C76.661 103.052 76.3772 102.891 75.9923 102.958C75.8977 102.975 75.7816 102.872 75.6762 102.824C75.7385 102.728 75.7988 102.631 75.874 102.515C75.7493 102.231 75.4612 102.285 75.2139 102.282C73.9022 102.276 72.5906 102.282 71.2789 102.282C70.7585 102.282 70.2382 102.282 69.7178 102.323C71.41 102.416 73.1002 102.508 74.9107 102.607C74.6183 102.661 74.4269 102.717 74.2355 102.728C73.1518 102.79 72.068 102.876 70.9864 102.93C69.3608 103.007 67.7288 103.005 66.0989 102.938C65.6645 102.921 65.2302 102.921 64.798 102.928C64.6754 102.928 64.5227 102.949 64.4346 103.022C64.226 103.198 64.0991 103.155 63.8712 103.009C63.6777 102.885 63.3702 102.908 63.1143 102.915C61.6779 102.953 60.2394 103.003 58.803 103.061C58.5213 103.072 58.2396 103.112 57.9622 103.171C57.4526 103.278 56.9602 103.416 56.4183 103.343C56.0635 103.295 55.6873 103.416 55.3217 103.435C53.1843 103.543 51.0491 103.637 48.9117 103.743C48.5634 103.76 48.2151 103.831 47.8689 103.816C47.4259 103.794 46.9872 103.706 46.5464 103.652C46.2067 103.611 45.8648 103.538 45.5251 103.549C44.3682 103.583 43.2092 103.721 42.0545 103.684C40.6611 103.639 39.2699 103.454 37.8787 103.325C37.7712 103.315 37.6572 103.297 37.5604 103.252C36.0209 102.534 34.3135 102.515 32.675 101.996C32.6385 102.224 32.5718 102.377 32.5976 102.51C32.7675 103.362 32.5976 104.209 32.6019 105.058C32.6084 106.258 32.6514 107.458 32.6557 108.66C32.6643 110.408 32.6557 112.157 32.6514 113.907C32.6471 115.7 32.6191 117.493 32.6428 119.287C32.6772 121.932 32.7567 124.574 32.7976 127.219C32.8298 129.318 32.8234 131.419 32.8492 133.517C32.8836 136.291 32.9374 139.067 32.9696 141.841C32.9804 142.693 32.9331 143.546 32.9374 144.398C32.9417 145.469 32.9696 146.537 32.9825 147.606C32.9911 148.24 32.9954 148.875 32.9911 149.507C32.9782 151.341 32.9567 153.175 32.9438 155.007C32.9374 155.79 32.9954 156.577 32.9202 157.353C32.8599 157.962 32.9653 158.579 32.6729 159.196C32.4449 159.678 32.3482 160.28 32.5224 160.865C32.5826 161.064 32.5869 161.31 32.5288 161.51C32.1762 162.718 32.2321 163.98 32.0256 165.206C31.8923 166.006 31.9332 166.804 31.959 167.61C31.9934 168.679 31.8042 169.737 31.5074 170.769C31.4408 170.999 31.3827 171.235 31.3548 171.474C31.2343 172.491 31.1526 173.512 30.9204 174.517C30.8322 174.897 30.9527 175.329 30.9871 175.736C30.9957 175.843 31.0903 175.968 31.058 176.048C30.8516 176.549 30.9699 177.08 30.886 177.589C30.7849 178.187 30.5011 178.748 30.5613 179.383C30.5742 179.507 30.4473 179.647 30.4 179.744C30.028 179.744 29.7076 179.77 29.3959 179.733C29.241 179.716 29.0841 179.602 28.9594 179.494C28.3293 178.948 27.7982 179.105 27.5595 179.916C27.3445 180.651 27.237 180.686 26.6263 180.206C26.4715 180.086 26.3253 179.948 26.1554 179.851C25.6243 179.548 25.2523 179.71 25.0695 180.301C25.0394 180.4 24.9964 180.494 24.9405 180.645C24.7534 180.57 24.5986 180.509 24.4459 180.447C24.2051 180.348 23.9729 180.198 23.7213 180.157C23.36 180.094 23.0698 179.963 22.7967 179.716C22.659 179.591 22.401 179.531 22.2096 179.553C21.8441 179.591 21.4699 179.669 21.1302 179.808C20.8077 179.942 20.541 179.92 20.2679 179.731C20.2314 179.707 20.1905 179.69 20.1518 179.669C19.3541 179.252 18.78 179.494 18.4811 180.363C18.3822 180.651 18.2553 180.929 18.1263 181.204C18.0725 181.318 17.9801 181.413 17.8919 181.535C17.7758 181.492 17.6575 181.479 17.5823 181.415C17.0834 180.998 16.5759 180.821 15.8964 181.028C15.4169 181.172 14.8665 181.122 14.3525 181.092C14.1354 181.079 13.916 180.914 13.7182 180.785C13.4086 180.583 13.114 180.352 12.8151 180.133C12.5786 179.959 12.3334 179.901 12.1012 180.12C11.7916 180.417 11.4561 180.359 11.1293 180.202C10.7035 179.998 10.2649 179.927 9.79611 179.92C9.54668 179.918 9.26715 179.847 9.05642 179.716C8.70808 179.499 8.34898 179.445 7.99203 179.578C7.45017 179.778 6.92335 179.733 6.37933 179.626C5.82886 179.518 5.7493 179.572 5.53857 180.082C5.46331 180.262 5.38375 180.441 5.29774 180.617C5.28054 180.651 5.23108 180.669 5.12572 180.744C4.42043 180.051 3.53237 179.516 3.3797 178.37C3.32809 177.991 3.15822 177.617 2.9905 177.265C2.62925 176.512 2.2551 175.772 2.42068 174.895C2.44003 174.79 2.42068 174.676 2.40347 174.568C2.12394 172.685 2.28521 170.79 2.26801 168.9C2.26156 168.137 2.2293 167.373 2.1992 166.61C2.15619 165.544 2.10674 164.475 2.04868 163.408C2.00352 162.559 1.91106 161.71 1.89386 160.858C1.87236 159.746 1.89386 158.635 1.91751 157.523C1.93901 156.519 2.02718 155.517 2.02718 154.513C2.02718 152.109 1.98632 149.707 1.96697 147.305C1.95837 146.256 1.97557 145.206 1.95622 144.157C1.93901 143.239 1.87236 142.323 1.8444 141.407C1.8057 140.144 1.77989 138.882 1.74979 137.62C1.72184 136.422 1.70248 135.223 1.66593 134.025C1.61647 132.412 1.54551 130.799 1.49821 129.187C1.44445 127.286 1.4079 125.387 1.36059 123.486C1.32189 121.869 1.27028 120.252 1.24448 118.635C1.22297 117.302 1.24018 115.967 1.22512 114.634C1.21007 113.279 1.17782 111.926 1.15201 110.572C1.10901 108.189 1.05525 105.809 1.02085 103.426C0.975691 100.328 0.943437 97.2272 0.909033 94.1286C0.891831 92.5116 0.88968 90.8946 0.874629 89.2776C0.859577 87.6391 0.831623 86.0006 0.823022 84.3621C0.818721 83.7944 0.868178 83.2267 0.861727 82.6591C0.848825 81.4377 0.812271 80.2163 0.792918 78.9971C0.788618 78.6703 0.825172 78.3435 0.823022 78.0166C0.812271 76.3136 0.784317 74.6106 0.782167 72.9076C0.782167 71.3121 0.80582 69.7166 0.812271 68.1211C0.820872 66.3277 0.846675 64.5344 0.823022 62.7411C0.788618 60.0962 0.709058 57.4535 0.668202 54.8087C0.635948 52.71 0.644549 50.6092 0.616596 48.5106C0.588642 46.3474 0.526284 44.1864 0.506932 42.0253C0.49403 40.4943 0.541336 38.9655 0.541336 37.4345C0.541336 35.2498 0.524134 33.0651 0.517683 30.8805C0.513383 29.5709 0.517683 28.2614 0.517683 26.9519C0.517683 26.1907 0.466077 25.4252 0.539186 24.6726C0.599394 24.0426 0.504782 23.404 0.80367 22.7675C1.0316 22.2837 1.11546 21.6773 0.928385 21.0989C0.872478 20.9225 0.874629 20.6989 0.928385 20.5183C1.28748 19.3098 1.23372 18.0476 1.4337 16.822C1.56702 16.0006 1.52186 15.1792 1.50466 14.3513C1.48316 13.3063 1.65088 12.2677 1.94977 11.2571C2.01212 11.0485 2.07233 10.8335 2.09598 10.6184C2.2121 9.5347 2.30241 8.44666 2.5755 7.38442C2.60775 7.25971 2.63785 7.11564 2.60775 6.99523C2.44648 6.33939 2.41422 5.68356 2.54969 5.01912C2.5927 4.8084 2.54754 4.58262 2.5884 4.37189C2.70021 3.79777 2.95824 3.25375 2.89589 2.64307C2.88298 2.51836 3.00985 2.37859 3.06146 2.27322C3.427 2.27322 3.74739 2.24742 4.05918 2.28398C4.214 2.30118 4.37527 2.40869 4.49999 2.5162C5.13002 3.06022 5.66974 2.90971 5.89982 2.1098C5.91272 2.06895 5.91272 2.02379 5.92347 1.98079C6.05249 1.43247 6.21591 1.36366 6.66532 1.6776C6.88034 1.82597 7.06742 2.01949 7.29105 2.15281C7.85012 2.4861 8.22426 2.31623 8.39629 1.67545C8.41779 1.59374 8.45219 1.51633 8.50165 1.37226C8.67797 1.43892 8.83064 1.49483 8.98331 1.55288C9.28865 1.66685 9.59829 1.76361 9.89503 1.89478C10.1488 2.00659 10.4046 2.12916 10.6218 2.29688C10.8304 2.45815 11.0282 2.53771 11.2841 2.4732C11.454 2.43019 11.6367 2.42589 11.7959 2.36139C12.4345 2.1098 13.0151 2.09475 13.643 2.4904C14.1117 2.78499 14.7009 2.38719 14.9503 1.75071C15.0858 1.40666 15.2277 1.06477 15.3804 0.727177C15.4212 0.636866 15.5158 0.570207 15.6105 0.464844C15.7567 0.553005 15.8857 0.623964 16.0061 0.703524C16.4534 1.00241 16.9028 1.24109 17.4683 0.995961C17.6145 0.931453 17.808 0.980909 17.9801 0.976609C18.2166 0.972308 18.4617 1.00241 18.6875 0.950806C19.0638 0.862644 19.3734 0.942205 19.6702 1.17013C19.982 1.40881 20.3067 1.63029 20.6227 1.86682C20.8786 2.0582 21.1302 2.1184 21.3882 1.87542C21.6506 1.63029 21.9452 1.64749 22.2419 1.78296C22.7257 2.00659 23.2246 2.12055 23.7643 2.1012C23.9686 2.09475 24.2051 2.17001 24.3793 2.28183C24.7427 2.52051 25.1276 2.57211 25.506 2.42589C26.0049 2.23452 26.4908 2.29258 26.9897 2.36999C27.6885 2.47965 27.6993 2.46675 27.9595 1.82597C28.0304 1.64964 28.1207 1.47977 28.2498 1.21099C28.5895 1.51848 28.8905 1.75286 29.1464 2.02809C29.4217 2.32698 29.7227 2.42804 30.1334 2.41299C32.9266 2.30333 35.7198 2.21947 38.5453 2.12486C38.6614 2.60007 38.9882 2.70973 39.3731 2.71403C40.0075 2.72048 40.6396 2.72048 41.274 2.72263C41.4417 2.72263 41.6073 2.72263 41.7986 2.82799C41.6589 2.871 41.517 2.91616 41.3428 2.96991C41.3987 3.02152 41.4374 3.08603 41.4761 3.08818C42.1534 3.10968 42.8351 3.17849 43.5038 3.12258C44.3231 3.05377 45.1638 2.97851 45.9379 2.72478C46.9313 2.40009 47.9205 2.58286 48.9074 2.5076C49.6686 2.4474 50.4298 2.39364 51.191 2.34203C51.4534 2.32483 51.7157 2.32053 51.9759 2.31623C53.0231 2.30333 54.0702 2.26462 55.1174 2.29043C56.356 2.32053 57.5924 2.41729 58.8309 2.45815C59.8351 2.49255 60.8415 2.50545 61.8456 2.49255C63.1552 2.4732 64.4647 2.41944 65.7742 2.37429C65.9806 2.36784 66.187 2.31623 66.3892 2.17431C66.1462 2.15066 65.901 2.12701 65.6581 2.1055C65.6495 2.0754 65.6409 2.0453 65.6323 2.01304C65.8365 1.95068 66.0387 1.84532 66.2472 1.83242C67.2493 1.77006 68.2513 1.6948 69.2533 1.69265C71.5262 1.68405 73.8012 1.7163 76.074 1.73136C76.203 1.73136 76.3342 1.74641 76.4933 1.75501V2.40224C75.201 2.51405 73.9065 2.62587 72.6142 2.73768C72.6099 2.79359 72.6056 2.8495 72.6013 2.9054C72.7905 2.93121 72.9819 2.97851 73.1733 2.98066C74.4634 3.00647 75.7536 3.00862 77.0438 3.05162C77.5555 3.06883 78.0651 3.20214 78.5769 3.22364C79.0328 3.243 79.4908 3.16129 79.9488 3.16559C80.3229 3.16774 80.6971 3.2301 81.0734 3.26665C81.0497 3.42362 81.039 3.50533 81.0196 3.63435C81.583 3.57844 82.1184 3.04732 82.6302 3.59349C83.0129 3.3756 83.2738 3.37345 83.4129 3.58704C83.3462 3.59564 83.286 3.60854 83.228 3.61284C83.1699 3.61715 83.1118 3.61284 83.0108 3.61284C83.0645 3.69671 83.0925 3.78702 83.1312 3.79132C83.5161 3.84937 83.9031 3.91388 84.2902 3.93539C84.9654 3.97409 85.6427 3.95689 86.3158 4.0128C86.7888 4.0515 87.2511 4.20202 87.7242 4.24718C88.2789 4.30308 88.8423 4.16116 89.4014 4.31383C90.025 4.48586 90.655 4.64713 91.2936 4.74819C91.7172 4.817 92.158 4.77184 92.5902 4.78474C92.8289 4.79119 93.0698 4.78689 93.3041 4.8299C94.6072 5.06643 95.8995 5.33091 97.1789 5.69216C97.8111 5.87063 98.4755 6.019 99.1314 6.14587C99.8173 6.27918 100.503 6.40605 101.187 6.54152C101.591 6.62108 102.054 6.62108 102.376 6.8318C102.645 7.00598 102.918 7.08769 103.195 7.18875C103.417 7.26831 103.653 7.30701 103.937 7.37582C103.892 7.45108 103.847 7.52634 103.767 7.65751C104.219 7.86178 104.66 8.07251 105.109 8.25959C105.984 8.62513 106.866 8.97778 107.745 9.33042C107.904 9.39493 108.074 9.43579 108.24 9.48739C108.313 9.51105 108.384 9.5347 108.457 9.5562C109.41 9.99056 110.356 10.44 111.317 10.8571C112.637 11.4312 113.964 11.9968 115.153 12.8096C116.232 13.5471 117.269 14.3492 118.301 15.1555C119.006 15.706 119.679 16.2973 120.348 16.8951C121.096 17.5638 121.851 18.2304 122.552 18.9464C124.019 20.4473 125.461 21.9697 126.896 23.5029C127.313 23.948 127.629 24.4856 128.048 24.9307C128.9 25.8359 129.618 26.8466 130.287 27.8787C130.973 28.9388 131.641 30.0225 132.082 31.2267C132.239 31.6524 132.557 32.0223 132.704 32.4502C133.172 33.8285 133.841 35.1294 134.228 36.54C134.344 36.9636 134.533 37.3678 134.555 37.8172C134.555 37.8603 134.553 37.9248 134.574 37.9398C135.166 38.314 135.097 38.987 135.293 39.5353C135.43 39.9245 135.493 40.3395 135.572 40.7481C135.669 41.2512 135.594 41.3975 135.181 41.6641C134.996 41.7845 134.819 41.92 134.622 42.0597C135.06 42.7693 135.148 43.4467 134.908 44.1649C134.813 44.4444 134.897 44.6616 135.273 44.8099C135.28 44.4358 135.331 44.0896 135.277 43.7606C135.217 43.3822 135.277 43.0897 135.626 42.8102C135.748 43.3133 135.566 43.795 135.637 44.2423C135.723 44.7798 135.536 45.2056 135.262 45.6786C135.493 45.584 135.667 45.4486 135.772 45.4894C135.899 45.5367 136.043 45.7324 136.052 45.8722C136.125 47.0355 136.249 48.2117 135.981 49.3535C135.821 50.0308 135.697 50.6909 135.77 51.3812C135.783 51.5016 135.772 51.6586 135.843 51.7338C136.123 52.0306 136.127 52.3789 136.129 52.7487C136.129 53.0949 136.209 53.4411 136.198 53.7873C136.174 54.7141 136.262 55.6624 135.692 56.4924C135.576 56.6622 135.548 56.8923 135.449 57.1848C135.346 57.045 135.295 56.9762 135.241 56.9031C134.729 57.574 135.047 58.3631 134.929 59.0878L134.944 59.0684C134.845 59.6963 134.744 60.3242 134.619 61.1133C135.071 60.7435 135.394 60.4811 135.789 60.1586C135.742 60.7263 135.71 61.2036 135.351 61.5477C135.11 61.7756 135.176 62.1239 134.966 62.4013C135.108 62.3605 135.25 62.3175 135.49 62.2465C135.383 62.6723 135.29 63.0292 135.202 63.3776C134.916 63.4163 134.8 62.9948 134.521 63.2356C134.297 63.4292 134.344 63.642 134.424 63.8807C134.458 63.9882 134.43 64.1151 134.43 64.2592C134.6 64.0441 134.749 63.8571 134.897 63.67C134.953 63.6893 135.007 63.7087 135.062 63.7281C135.039 64.2097 135.028 64.6914 134.989 65.1709C134.942 65.7364 134.875 66.2998 134.802 66.861C134.755 67.2222 134.738 67.5899 134.402 67.8609C134.306 67.9383 134.368 68.2135 134.359 68.3941C134.284 68.1985 134.144 68.0028 134.151 67.8136C134.164 67.4803 134.267 67.1491 134.329 66.818C134.381 66.5557 134.6 66.2912 134.308 66.0374C134.675 65.902 134.706 65.6504 134.572 65.3257C134.334 65.4375 134.253 65.6798 134.327 66.0525C134.267 66.1837 134.174 66.3084 134.149 66.446C133.929 67.62 133.721 68.7984 133.51 69.9724C133.714 69.6908 133.794 69.3747 133.891 69.065C133.974 68.7941 133.992 68.4673 134.361 68.392L134.368 68.4049ZM87.3952 8.18218C87.1092 8.14562 86.8211 8.10907 86.5351 8.07251C86.5351 8.10907 86.5351 8.14562 86.5351 8.18003H87.3973C87.4683 8.61008 87.8037 8.48106 88.079 8.47891C87.851 8.38 87.6231 8.28109 87.3952 8.18003V8.18218ZM123.109 30.874C123.004 30.6848 122.898 30.4956 122.795 30.3085C122.748 30.345 122.701 30.3838 122.651 30.4203C122.808 30.5665 122.965 30.7149 123.122 30.8611C123.3 31.0998 123.481 31.3385 123.66 31.5772C123.7 31.5406 123.739 31.5019 123.78 31.4653C123.556 31.2675 123.333 31.0718 123.111 30.8719L123.109 30.874ZM116.955 26.2617C116.873 26.0079 116.675 25.9069 116.475 25.808C116.448 25.8467 116.422 25.8854 116.394 25.9241C116.585 26.0316 116.777 26.1391 116.968 26.2466C117.189 26.6444 117.587 26.8121 117.957 27.0143C117.705 26.6509 117.389 26.3756 116.957 26.2595L116.955 26.2617ZM97.4026 31.3729C97.5316 31.5019 97.6584 31.6309 97.7875 31.7599C97.8197 31.7169 97.852 31.6718 97.8821 31.6288C97.7187 31.5471 97.5552 31.4653 97.3918 31.3836C97.3015 31.0439 97.0241 31.003 96.7403 30.988C96.521 30.9772 96.2995 30.9858 96.0651 30.9858C96.3425 31.2632 96.6027 31.5729 97.0843 31.3535C97.1703 31.3148 97.295 31.3643 97.4026 31.3729ZM90.6743 27.2874C90.8636 26.9756 91.0958 27.3798 91.3861 27.2164C91.0356 27.0035 90.7346 26.8207 90.4335 26.638C89.9906 26.3649 89.9648 26.3692 89.5132 26.8078C89.7218 26.8078 89.8874 26.81 90.0508 26.8078C90.3927 26.8014 90.6399 26.9132 90.6743 27.2917C90.4916 27.2056 90.3088 27.1196 90.1239 27.0336C90.1088 27.0809 90.0938 27.1282 90.0787 27.1755C90.2766 27.2143 90.4765 27.2508 90.6743 27.2895V27.2874ZM108.152 41.4942C108.255 41.019 108.014 40.6814 107.683 40.3804C107.651 40.8276 107.773 41.2104 108.165 41.4813C108.244 41.7028 108.335 41.92 108.403 42.1436C108.479 42.3866 108.532 42.636 108.597 42.8811C108.758 43.2209 108.969 43.5477 109.07 43.9068C109.193 44.3455 109.468 44.5584 109.926 44.7454C109.812 44.4809 109.691 44.3068 109.663 44.1175C109.595 43.6423 109.104 43.0467 108.597 42.8833C108.648 42.7973 108.698 42.7091 108.767 42.5909C108.947 42.7263 109.089 42.8317 109.289 42.9822C109.1 42.2683 108.769 41.7695 108.152 41.4942ZM103.929 94.4598C103.635 94.1387 103.201 94.143 102.628 94.4727C102.69 94.6017 102.752 94.735 102.854 94.9436C103.251 94.8103 103.649 94.6812 104.045 94.5393C104.073 94.5286 104.066 94.4232 104.075 94.363C104.406 94.5135 104.713 94.3931 105.019 94.277C107.031 93.5158 109.014 92.6944 110.902 91.6494C112.345 90.8516 113.837 90.1356 115.175 89.1615C115.747 88.7443 116.28 88.2734 116.83 87.8262C117.228 87.5724 117.656 87.3531 118.017 87.0542C119.823 85.5748 121.483 83.9363 123.135 82.2871C124.967 80.4572 126.397 78.3134 127.936 76.2577C128.431 75.5976 128.93 74.9417 129.427 74.2837C129.448 74.316 129.485 74.3805 129.491 74.3762C130.08 74.1332 130.577 73.7784 130.846 73.1764C130.861 73.1441 130.807 73.0796 130.807 73.0774C130.383 73.3806 129.971 73.6752 129.556 73.972C130.039 73.1376 130.633 72.3614 130.958 71.4282C130.695 71.5938 130.493 71.8045 130.293 72.0174C130.16 72.1593 130.05 72.3313 129.897 72.4453C129.745 72.5592 129.652 72.6345 129.59 72.8603C129.493 73.2172 129.214 73.5268 128.986 73.8408C128.893 73.9698 128.528 74.3784 128.483 74.488C128.425 74.6256 128.386 74.7762 128.3 74.8923C127.87 75.4728 127.418 76.0384 126.986 76.6168C126.457 77.3221 125.902 78.0059 125.446 78.7628C125.296 79.0122 125.126 79.2638 124.911 79.4509C124.586 79.7347 124.24 79.9261 124.128 80.44C124.062 80.7389 123.604 80.9969 123.27 81.1732C123.096 81.2657 123.004 81.3302 122.956 81.5108C122.928 81.6183 122.866 81.728 122.791 81.8097C122.184 82.4569 121.591 83.1171 120.952 83.7342C120.17 84.4889 119.35 85.2028 118.546 85.9339C118.54 85.9898 118.533 86.0457 118.527 86.1016C118.316 86.2285 118.099 86.3468 117.897 86.4865C117.841 86.5253 117.824 86.6951 117.8 86.693C117.269 86.6414 117.159 87.1768 116.77 87.3725C116.897 87.4133 116.974 87.4391 117.063 87.4671C116.979 87.5853 116.897 87.6993 116.815 87.8154C116.613 87.9208 116.409 88.0283 116.217 88.1272C116.101 88.0261 116.011 87.9466 115.992 87.9315C115.08 88.5487 114.226 89.1249 113.3 89.7528C113.508 89.7679 113.631 89.7786 113.755 89.7872C113.764 89.8324 113.773 89.8775 113.781 89.9205C112.669 89.9033 111.844 90.5441 110.96 91.0881C111.139 91.0623 111.317 91.0387 111.498 91.015C111.291 91.1978 111.025 91.3677 110.827 91.3096C110.5 91.215 110.281 91.3333 110.038 91.4773C110.014 91.4924 110.016 91.5483 110.007 91.587C110.089 91.6236 110.169 91.6601 110.25 91.6967C110.24 91.744 110.227 91.7913 110.216 91.8386C109.992 91.8085 109.769 91.7762 109.401 91.7268C109.119 91.8859 108.702 92.1611 108.253 92.3676C107.782 92.5826 107.281 92.7309 106.797 92.9159C106.217 93.1373 105.655 93.4663 105.055 93.561C104.597 93.6319 104.29 93.9157 103.84 94.0082C103.944 94.1673 104.015 94.2748 104.083 94.3824C104.03 94.4082 103.974 94.4361 103.92 94.4619L103.929 94.4598ZM102.836 34.6176C102.944 34.065 102.396 33.9317 102.17 33.592C102.073 33.4436 101.903 33.4242 101.671 33.5791C101.94 33.7532 102.172 33.8672 102.357 34.0349C102.542 34.2026 102.679 34.422 102.838 34.6176C102.918 34.6843 103.006 34.7445 103.073 34.8219C103.752 35.5896 104.41 36.3744 105.109 37.1227C105.417 37.4539 105.793 37.7248 106.283 37.7678C105.922 37.327 105.399 37.084 105.027 36.6626C104.784 36.3873 104.475 36.1701 104.232 35.8971C103.929 35.5573 103.668 35.181 103.374 34.8327C103.241 34.6757 103.109 34.4542 102.836 34.6198V34.6176ZM91.8785 27.941C92.0634 27.9733 92.2484 28.0055 92.5193 28.0507C92.3774 28.1754 92.3086 28.2399 92.2871 28.2571C92.4333 28.7796 92.8719 28.3345 93.1386 28.5281C93.1644 28.685 93.0117 28.8528 93.2654 28.9624C93.8331 29.2076 94.3879 29.4871 94.9405 29.7666C95.0781 29.8376 95.1899 29.9601 95.3146 30.0591C95.2286 30.1085 95.1448 30.1601 95.0609 30.2096C95.1233 30.2676 95.1856 30.3235 95.2695 30.401C95.2802 30.2461 95.2888 30.1429 95.2953 30.0376C95.5275 30.1322 95.7598 30.2268 95.992 30.3214C95.9877 30.1838 95.9511 30.1257 95.8995 30.0913C95.0394 29.5021 94.1793 28.913 93.317 28.3259C92.9257 28.0593 92.5343 27.7991 92.1451 27.5303C91.9108 27.3669 91.8484 27.3949 91.7667 27.7196H91.2571C91.4398 27.8486 91.5667 27.9518 91.7086 28.0292C91.7387 28.0464 91.8204 27.9711 91.8785 27.9367V27.941ZM133.772 39.6514C133.691 39.7396 133.611 39.8278 133.501 39.9482C134.22 40.0987 134.08 40.8706 134.538 41.2749C134.564 40.5782 134.127 40.1137 133.966 39.5375C133.856 39.6063 133.802 39.6407 133.746 39.6751C133.82 39.3074 134.086 38.9784 133.901 38.5569C133.71 38.1226 133.501 37.6753 133.435 37.213C133.366 36.7314 133.033 36.3938 132.906 35.9336C132.684 35.1294 132.226 34.3876 131.867 33.6199C131.863 34.0027 131.934 34.3596 132.054 34.7015C132.261 35.2778 132.538 35.8325 132.714 36.4174C133.009 37.3979 133.267 38.3935 133.493 39.3934C133.54 39.6041 133.639 39.6084 133.77 39.6514H133.772ZM111.126 54.0905C111.108 54.1034 111.091 54.1249 111.072 54.1271C111.059 54.1271 111.029 54.1056 111.029 54.0948C111.046 53.7529 111.072 53.4132 111.085 53.0713C111.1 52.6584 110.872 52.3617 110.476 52.2563C110.386 52.5703 110.491 52.8262 110.704 52.9831C110.575 53.181 110.41 53.3272 110.395 53.4863C110.377 53.6798 110.487 53.8841 110.506 53.9529C110.386 54.3034 110.298 54.555 110.182 54.8947C110.386 54.8152 110.468 54.7829 110.551 54.7507C110.435 54.9915 110.726 55.342 110.339 55.4817C110.369 55.7398 110.41 55.9978 110.42 56.258C110.422 56.3311 110.306 56.4042 110.3 56.4816C110.272 56.7547 110.268 57.0321 110.255 57.3245C110.465 57.374 110.644 57.417 110.85 57.4664C110.928 56.9805 110.997 56.5418 111.072 56.0731C110.896 56.1204 110.797 56.1462 110.676 56.1784C110.835 55.4387 110.982 54.7614 111.128 54.0862C111.222 54.2625 111.319 54.4367 111.472 54.7184C111.599 54.0776 111.609 53.553 111.446 53.024C111.371 53.2218 111.36 53.4304 111.313 53.6282C111.274 53.7873 111.19 53.9357 111.128 54.0884L111.126 54.0905ZM104.445 39.0365C104.268 38.944 104.094 38.8515 103.918 38.7591C104.06 38.9246 104.152 39.1999 104.447 39.0279C104.462 39.1655 104.43 39.3418 104.503 39.4364C104.662 39.6407 104.864 39.8127 105.066 39.9783C105.522 40.3567 105.851 40.8706 106.036 41.3781C106.3 42.1006 106.496 42.8381 106.92 43.4961C107.025 43.6617 107.034 43.8875 107.094 44.1111C106.93 44.0853 106.838 44.0702 106.702 44.0487C106.875 44.3197 107.036 44.5455 107.16 44.7906C107.21 44.8873 107.229 45.0766 107.171 45.1346C106.954 45.3583 107.126 45.4894 107.214 45.6894C107.365 46.0291 107.597 46.3732 107.425 46.7753C107.556 46.8591 107.677 46.9366 107.844 47.0441C107.692 47.1301 107.591 47.186 107.429 47.2785C107.621 47.7365 107.81 48.1902 108.018 48.6912C107.973 48.8073 107.902 48.9879 107.838 49.1578C108.126 49.4868 108.251 49.9792 108.094 50.0394C108.016 50.005 107.952 49.9749 107.887 49.9469C107.851 49.9727 107.814 49.9964 107.778 50.0222C107.883 50.3017 107.988 50.5813 108.104 50.8888C107.838 51.2844 107.851 51.3876 108.259 51.8865C107.932 52.237 107.978 52.652 108.055 53.0713C108.259 54.1916 108.285 55.3162 108.083 56.4365C107.784 58.0943 107.163 59.6597 106.655 61.2574C106.311 62.3433 105.851 63.3754 105.27 64.3495C104.208 66.1342 102.937 67.7727 101.634 69.3876C101.17 69.9638 100.723 70.5552 100.269 71.1379C99.026 71.8905 98.1057 73.0774 96.779 73.7268C96.9596 73.458 97.1875 73.2452 97.4391 73.0667C98.8411 72.0754 99.9958 70.824 101.114 69.5424C101.83 68.721 102.462 67.8243 103.127 66.9578C103.914 65.9342 104.632 64.8655 105.133 63.6721C105.606 62.5454 106.077 61.4187 106.492 60.2704C106.793 59.4318 107.107 58.5738 107.227 57.6987C107.416 56.3397 107.481 54.9614 107.533 53.5895C107.616 51.4005 107.47 49.2201 107.038 47.072C106.711 45.4486 106.307 43.838 105.892 42.2339C105.776 41.7802 105.559 41.3286 105.292 40.9416C104.87 40.3331 104.359 39.7891 103.909 39.1999C103.759 38.9999 103.679 38.744 103.527 38.4301C103.103 38.3849 102.86 37.9355 102.546 37.5915C102.226 37.2388 101.765 36.8733 101.695 36.4604C101.585 35.8132 101.024 35.8476 100.71 35.538C99.7464 34.5875 98.7787 33.6371 97.7552 32.7512C96.751 31.8825 95.706 31.0525 94.6223 30.287C93.8288 29.7258 93.0698 29.0613 92.057 28.8786C91.9538 28.8614 91.8634 28.7796 91.7624 28.7409C91.5431 28.6549 91.3194 28.5775 91.098 28.4915C91.0636 28.4786 91.0421 28.4335 90.9947 28.3797C91.0743 28.3044 91.1539 28.2292 91.2399 28.1475C91.1345 28.0765 91.0442 28.0163 90.9539 27.9561L90.9711 27.9733C90.9216 27.9346 90.8786 27.8808 90.8206 27.8593C89.653 27.3884 88.4897 26.9003 87.3092 26.4595C86.2899 26.0811 85.26 25.7263 84.2171 25.4209C83.0473 25.0769 81.8604 24.793 80.6777 24.4963C80.4692 24.4447 80.2412 24.4189 80.0284 24.4404C79.2994 24.5157 78.5726 24.6404 77.8415 24.7027C77.3448 24.7457 76.8416 24.7414 76.3449 24.7113C75.0161 24.6296 73.6915 24.5049 72.3626 24.4296C71.2316 24.3651 70.0962 24.3587 68.963 24.3049C67.9223 24.2555 66.8816 24.191 65.843 24.1028C65.6495 24.0856 65.385 23.9781 65.3011 23.8297C65.1614 23.5867 64.985 23.619 64.8044 23.6448C64.3313 23.7158 63.8583 23.7695 63.3809 23.791C62.6197 23.8254 61.8585 23.8577 61.0995 23.9114C60.1491 23.9802 59.1986 24.1114 58.2461 24.1394C56.6506 24.1867 55.0551 24.148 53.4596 24.191C52.6489 24.2125 51.8146 24.0146 51.0255 24.3759C50.9717 24.3995 50.8814 24.3995 50.8341 24.3694C50.2664 24.0039 49.6385 24.2705 49.0494 24.2361C48.0301 24.1781 47.0001 24.3264 45.9788 24.2877C44.9445 24.2469 43.9747 24.6339 42.9297 24.5888C41.8502 24.5415 40.7622 24.7436 39.6763 24.8059C38.5195 24.8726 37.3605 24.9178 36.2036 24.9479C35.3156 24.9694 34.4318 25.0016 33.533 25.3134C33.6405 25.1801 33.7136 25.0898 33.862 24.9049C33.591 25.0016 33.4276 25.0597 33.333 25.0941C33.2685 24.9457 33.2384 24.7801 33.1846 24.7715C32.6449 24.6898 32.1095 24.6941 31.5397 24.8898C31.5139 25.5757 31.4902 26.2488 31.4623 26.9218C31.4322 27.6422 31.3612 28.3625 31.3698 29.0828C31.3956 31.3772 31.4494 33.6715 31.4902 35.9637C31.5096 37.0345 31.5117 38.1054 31.5461 39.1762C31.5891 40.5051 31.6687 41.8318 31.716 43.1585C31.7676 44.5734 31.7977 45.9883 31.8407 47.4032C31.8601 48.0138 31.8966 48.6224 31.9074 49.2331C31.9203 49.9512 31.8988 50.6694 31.9224 51.3876C31.974 53.0046 32.0622 54.6173 32.1009 56.2343C32.1375 57.7847 32.116 59.3372 32.1375 60.8875C32.1676 63.0507 32.2127 65.2139 32.2579 67.3771C32.2729 68.0759 32.3202 68.7747 32.3267 69.4736C32.3396 71.0024 32.3245 72.5313 32.3439 74.0601C32.3654 75.6986 32.417 77.3371 32.4514 78.9756C32.4621 79.4465 32.4514 79.9196 32.4514 80.4529C38.9474 79.911 45.353 79.5068 51.763 79.4939C51.9716 79.9562 52.0769 80.04 52.6124 80.0529C53.2897 80.0701 53.967 80.0572 54.6444 80.0594C54.7605 80.0594 54.8745 80.0787 54.9906 80.0895C54.9949 80.1217 54.997 80.1561 55.0013 80.1884C54.8658 80.2465 54.7304 80.3024 54.5949 80.3604C56.0528 80.6184 57.4741 80.541 58.8654 80.1669C59.6416 79.9583 60.3964 79.7863 61.2178 79.8379C62.065 79.8917 62.9315 79.8895 63.7723 79.7712C64.4926 79.6723 65.1979 79.5971 65.9183 79.6981C66.0043 79.711 66.0924 79.6938 66.1806 79.6917C67.3546 79.6852 68.5308 79.6788 69.7049 79.6723C70.0726 79.6702 70.4424 79.6379 70.8101 79.6616C71.3326 79.696 71.8509 79.8056 72.3712 79.8207C74.6419 79.8831 76.9126 79.8659 79.179 79.6809C79.3381 79.668 79.4951 79.6078 79.6521 79.5713C79.6478 79.539 79.6435 79.5089 79.6392 79.4767C79.3854 79.4573 79.1338 79.438 78.8371 79.4143C79.1102 79.0832 79.4607 79.0788 79.7703 79.0638C80.8153 79.0122 81.8604 78.9993 82.9054 78.9713C84.3805 78.9326 85.8599 79.0853 87.3113 78.5628C87.879 78.3564 88.4725 78.1585 88.9864 77.8833C89.5025 77.6081 89.982 77.4446 90.5539 77.3629C91.1238 77.2812 91.6699 77.006 92.2183 76.7974C92.6247 76.6426 93.0375 76.4878 93.4181 76.277C94.891 75.4642 96.3081 74.5654 97.6498 73.5505C98.0154 73.2731 98.3508 72.9463 98.7443 72.7183C99.4066 72.3356 99.8754 71.7765 100.31 71.1744C100.529 70.9981 100.725 70.7551 100.976 70.6605C101.867 70.3208 102.423 69.6112 102.937 68.8909C103.619 67.934 104.238 66.9277 104.836 65.9149C105.632 64.5645 106.481 63.2507 107.1 61.795C107.846 60.0403 108.206 58.2083 108.408 56.3419C108.532 55.1979 108.464 54.0325 108.502 52.8778C108.509 52.6541 108.612 52.4327 108.67 52.209L108.655 52.1897C108.75 52.4327 108.842 52.6756 108.937 52.9186C108.928 52.9186 108.868 52.9358 108.887 52.9315C108.915 53.3379 108.952 53.7293 108.965 54.1206C108.982 54.6001 108.907 55.1033 109.438 55.542C109.481 55.1162 109.502 54.7679 109.556 54.4217C109.61 54.0712 109.324 53.6992 109.655 53.224C109.717 53.6153 109.76 53.8755 109.801 54.1357C109.919 53.8841 109.945 53.6304 109.93 53.3809C109.926 53.2949 109.835 53.1552 109.764 53.1423C109.386 53.067 109.485 52.7122 109.216 52.4198C109.554 52.5445 109.745 52.6176 110.007 52.7165C109.975 52.4069 109.952 52.1639 109.926 51.9209C109.891 51.9166 109.855 51.9123 109.82 51.908C109.773 52.0499 109.728 52.1897 109.644 52.4456C109.575 51.8435 109.522 51.3618 109.468 50.878C109.599 50.9619 109.64 51.0715 109.666 51.1855C109.702 51.3532 109.749 51.5037 109.911 51.5252C109.911 50.835 109.93 50.1813 109.906 49.5298C109.863 48.3966 109.687 47.2785 109.392 46.1818C109.319 45.9109 109.285 45.6378 108.894 45.5131C108.507 45.3905 108.507 44.9304 108.818 44.6917C108.593 44.1154 108.438 43.4983 108.124 42.9758C107.81 42.4511 107.767 41.8404 107.444 41.3265C107.111 40.7997 106.84 40.2342 106.567 39.731C106.296 39.6837 106.047 39.6901 105.853 39.5912C105.666 39.4966 105.621 39.187 105.339 39.159C105.348 39.2687 105.356 39.3482 105.374 39.559C105.077 39.2149 104.636 39.4171 104.447 39.0451L104.445 39.0365ZM75.4139 4.70088C75.9729 4.97182 76.5578 4.70948 77.1663 5.06213C77.6308 5.33091 78.3146 5.2191 78.8995 5.27501C79.4521 5.32661 80.0348 5.19115 80.5315 5.56744C80.5939 5.61475 80.7143 5.63625 80.7852 5.61045C81.2626 5.42983 81.7228 5.62335 82.1915 5.64915C82.9355 5.68786 83.6795 5.69646 84.4257 5.70076C85.9975 5.70721 87.5522 5.88138 89.1025 6.13082C89.2939 6.16092 89.5197 6.21468 89.6831 6.14802C90.1712 5.94159 90.6378 5.67926 91.1582 5.41692C90.6249 5.32661 90.1325 5.22125 89.6379 5.16534C88.4252 5.02772 87.2103 4.90301 85.9932 4.78689C85.0213 4.69443 84.073 4.37834 83.0796 4.50306C82.7785 4.54176 82.4732 4.55251 82.17 4.55897C81.1895 4.58477 80.2068 4.61057 79.2263 4.61272C79.0113 4.61272 78.9253 4.78044 78.7898 4.8299C78.6285 4.88796 78.3984 4.71163 78.1963 4.70733C77.2695 4.69228 76.3428 4.70088 75.416 4.70088H75.4139ZM103.189 37.2474C102.402 36.0626 101.464 35.009 100.454 34.022C99.8539 33.435 99.2389 32.8609 98.6261 32.2867C98.5659 32.2287 98.4497 32.1405 98.4132 32.1599C98.0584 32.362 97.8283 31.9836 97.5402 31.9836C97.5058 32.5641 98.2347 32.4932 98.3616 32.949C98.9766 33.0458 99.2754 33.5791 99.6668 33.9554C99.9076 34.1854 100.11 34.4069 100.443 34.4736C100.473 34.48 100.495 34.5381 100.529 34.5854C100.484 34.6886 100.434 34.7983 100.419 34.8348C101.368 35.6605 102.279 36.454 103.189 37.2453V37.2474ZM93.8503 76.4383C91.9624 77.3651 90.1303 78.3994 88.0467 78.8918C88.4789 79.0079 88.9004 79.0982 89.3068 78.9498C89.9712 78.709 90.6034 78.3585 91.2807 78.1736C92.343 77.8833 92.9816 77.006 93.8482 76.4383H93.8503ZM133.882 49.2395C133.433 49.7491 133.583 50.4501 133.316 51.0199C133.411 51.0414 133.508 51.0629 133.594 51.0823C133.452 52.1338 133.134 53.1121 133.181 54.1744C133.288 54.1486 133.39 54.1443 133.394 54.1185C133.736 52.5187 134.011 50.9103 133.882 49.2417V49.2395ZM132.16 32.9017C132.168 32.9813 132.16 33.0673 132.19 33.1383C132.413 33.6801 132.501 34.2564 132.867 34.7639C133.142 35.1445 133.17 35.7035 133.316 36.1787C133.42 36.5142 133.512 36.8647 133.912 37.0259C133.94 36.9206 133.977 36.8582 133.97 36.798C133.895 35.9551 133.213 35.3186 133.181 34.4585C133.181 34.4026 133.104 34.3553 133.078 34.2972C133.005 34.1424 132.908 33.9898 132.88 33.8263C132.809 33.392 132.471 33.1727 132.16 32.9017ZM94.8803 28.8592C94.8609 28.9001 94.8394 28.9431 94.8201 28.9839C95.0029 29.0957 95.1749 29.2807 95.3684 29.3065C95.7985 29.3624 96.0651 29.672 96.2758 29.9429C96.6091 30.3666 97.065 30.3192 97.4757 30.4397C97.7057 30.5085 97.8477 30.3838 97.7939 30.1322C97.5832 29.8591 97.0607 30.0225 97.037 29.5387C96.7123 29.4097 96.336 29.3667 96.1597 28.9624C96.0049 29.0828 95.8802 29.1796 95.777 29.2592C95.4523 29.1129 95.1684 28.9861 94.8824 28.8571L94.8803 28.8592ZM134.551 142.396C134.594 142.381 134.639 142.364 134.682 142.349C134.516 140.74 133.835 139.345 132.833 138.08C133.405 139.519 133.979 140.957 134.551 142.394V142.396ZM84.9116 24.9393C84.8987 25.0059 84.8858 25.0726 84.8729 25.1392C85.5868 25.3263 86.3114 25.4876 87.0146 25.7112C87.707 25.9327 88.3779 26.2187 89.0595 26.4767C87.8596 25.4252 86.4254 25.0618 84.9138 24.9371L84.9116 24.9393ZM98.5594 31.6331C98.5487 31.6589 98.5379 31.6847 98.5272 31.7126C99.4002 32.476 100.265 33.2501 101.15 33.9984C101.316 34.1381 101.561 34.1811 101.77 34.2693C101.796 34.2241 101.824 34.1811 101.849 34.136C101 33.2415 99.9979 32.5233 99.026 31.7728C98.9056 31.6804 98.7164 31.6782 98.5594 31.6352V31.6331ZM110.67 48.5837C110.708 48.5686 110.747 48.5557 110.786 48.5407C110.68 47.8268 110.597 47.1064 110.463 46.3968C110.379 45.9517 110.222 45.5217 110.091 45.0873C110.076 45.0379 110.003 45.0056 109.975 44.9841C109.818 45.0701 109.681 45.1432 109.455 45.2658C109.687 45.4421 109.885 45.5883 110.076 45.7346C109.9 45.9603 109.874 45.9883 110.001 46.1109C110.298 46.3968 110.235 46.7817 110.311 47.1215C110.397 47.5107 110.412 47.9149 110.481 48.3084C110.498 48.4073 110.605 48.4934 110.67 48.5837ZM104.49 98.3324C105.404 98.9194 106.257 99.4678 107.148 100.042C107.148 99.9258 107.165 99.8655 107.145 99.8484C106.507 99.2893 105.866 98.7324 105.225 98.1797C104.993 97.9798 104.784 98.0636 104.492 98.3346L104.49 98.3324ZM107.95 61.6014C107.7 62.182 107.507 62.6293 107.29 63.1346C107.474 63.2421 107.636 63.3367 107.818 63.4442C108.113 63.212 108.218 62.7776 108.292 62.3648C108.326 62.1777 108.115 61.9476 107.95 61.5993V61.6014ZM111.048 60.4252C110.906 60.307 110.818 60.2339 110.696 60.1328C111.257 59.5651 111.078 58.8749 111.044 58.1266C110.932 58.2298 110.812 58.2857 110.797 58.3631C110.655 59.0749 110.438 59.7801 110.567 60.5585C110.719 60.5155 110.853 60.479 111.046 60.4231L111.048 60.4252ZM104.845 9.77768C103.662 9.1498 102.415 8.60363 101 8.61868C102.282 9.00573 103.563 9.39063 104.845 9.77768ZM71.2015 101.902C72.4271 101.975 73.6743 102.042 74.9171 101.934C74.9171 101.883 74.915 101.829 74.9128 101.777C73.6743 101.818 72.4379 101.861 71.2015 101.902ZM101.871 34.5273C101.836 34.5682 101.802 34.609 101.768 34.6499C101.869 34.837 101.963 35.0283 102.071 35.2111C102.101 35.2606 102.178 35.2799 102.226 35.3229C102.464 35.5351 102.708 35.5014 102.959 35.2219C102.591 34.9875 102.23 34.7574 101.871 34.5295V34.5273ZM86.348 6.78665C87.3328 6.94147 88.3176 7.09844 89.3046 7.25326C89.3132 7.19735 89.3197 7.14144 89.3283 7.08554C88.3435 6.91782 87.3651 6.71999 86.348 6.78665ZM132.977 68.7038C133.099 68.6694 133.282 68.6715 133.331 68.592C133.579 68.1963 133.645 67.3921 133.48 66.8954C133.372 67.2437 133.142 67.5792 133.22 67.8157C133.351 68.2178 133.129 68.3683 132.977 68.7038ZM128.59 27.5583C128.665 28.2915 129.212 29.2936 129.745 29.7387C129.315 28.9259 128.951 28.2421 128.59 27.5583ZM105.425 9.41428C104.688 9.30677 104.228 8.7907 103.563 8.87671C104.083 9.1326 104.619 9.34977 105.156 9.5605C105.18 9.5691 105.227 9.52395 105.425 9.41428ZM106.814 65.259C107.67 65.1236 107.838 64.9344 107.932 64.1689C107.599 64.4935 107.253 64.8333 106.814 65.259ZM108.24 60.1134C108.12 60.5392 107.818 60.9413 108.029 61.4918C108.528 61.0187 108.253 60.5435 108.24 60.1134ZM110.764 60.6403C110.304 61.0682 110.345 61.5047 110.261 61.9928C110.594 61.6158 110.761 61.1649 110.764 60.6403ZM110.674 50.5684C110.713 50.5684 110.751 50.5684 110.79 50.5705V48.9492C110.751 48.9514 110.713 48.9557 110.674 48.9578V50.5684ZM97.6455 7.44463C97.6262 7.50699 97.6068 7.56935 97.5875 7.62956C98.0197 7.71772 98.4519 7.80588 98.8841 7.89189C98.8949 7.84673 98.9056 7.79943 98.9164 7.75427C98.4928 7.65106 98.0691 7.54784 97.6455 7.44248V7.44463ZM109.261 57.1848C109.373 56.9762 109.485 56.8171 109.543 56.6386C109.584 56.5117 109.567 56.3591 109.539 56.2236C109.532 56.1892 109.326 56.1526 109.319 56.1677C109.251 56.3075 109.173 56.4558 109.165 56.6063C109.156 56.7719 109.216 56.9418 109.259 57.1848H109.261ZM107.111 96.3305C107.117 96.3821 107.124 96.4337 107.133 96.4832C107.52 96.5713 107.9 96.5971 108.221 96.1735C107.851 96.2251 107.481 96.2767 107.111 96.3305ZM127.296 25.7263C127.343 25.6876 127.39 25.651 127.438 25.6144C127.128 25.1758 126.818 24.7371 126.509 24.2985C126.466 24.3286 126.423 24.3565 126.382 24.3866C126.687 24.8339 126.992 25.2812 127.296 25.7284V25.7263ZM104.903 71.5486C105.567 71.2175 105.632 71.1293 105.63 70.6605C105.348 71.0046 105.126 71.2755 104.903 71.5486ZM133.751 46.2915C133.759 46.1023 133.781 45.9109 133.772 45.7217C133.764 45.541 133.725 45.3604 133.699 45.1798C133.387 45.5733 133.703 45.9324 133.749 46.2893L133.751 46.2915ZM103.453 36.2863C103.187 36.0311 102.931 35.9057 102.686 35.91C102.905 36.0949 102.97 36.5357 103.453 36.2863ZM132.368 58.9071C132.415 58.9157 132.463 58.9265 132.51 58.9351C132.566 58.6427 132.622 58.3502 132.695 57.9696C132.327 58.2728 132.295 58.5738 132.366 58.9071H132.368ZM134.518 54.0927C135.142 53.8217 135.157 53.7959 134.94 53.2089C134.783 53.5401 134.665 53.7852 134.518 54.0927ZM110.891 51.2242C110.607 51.5224 110.607 51.7682 110.891 51.9618V51.2242ZM126.567 36.5507C126.416 36.1723 126.337 35.9078 125.984 35.7422C126.025 36.1271 126.104 36.3852 126.567 36.5507ZM122.337 119.818C122.432 120.249 122.612 120.54 122.879 120.691C122.668 120.353 122.503 120.087 122.337 119.818ZM95.8866 6.53292C95.8716 6.57592 95.8587 6.62108 95.8436 6.66623C96.2049 6.71784 96.5639 6.76945 96.9252 6.81675C96.9596 6.82105 97.0005 6.79095 97.1316 6.73934C96.6414 6.65763 96.2629 6.59527 95.8866 6.53292ZM97.6326 30.6977C97.7423 31.1428 97.8434 31.2052 98.3766 31.1686C98.1251 31.0095 97.8928 30.8633 97.6326 30.6977ZM105.445 38.4236C105.316 38.086 105.126 37.8194 104.651 37.7484C104.972 38.0215 105.208 38.2215 105.445 38.4236ZM135.546 54.97C135.368 55.2366 135.254 55.4065 135.12 55.6065C135.503 55.5979 135.639 55.4387 135.546 54.97ZM93.1665 27.1734C92.9558 27.0745 92.7945 26.9971 92.5558 26.881C92.6777 27.2279 92.8812 27.3253 93.1665 27.1734ZM99.6388 31.8416C99.6732 31.7986 99.7098 31.7556 99.7442 31.7126C99.512 31.5858 99.2797 31.461 99.0475 31.3342C99.0282 31.3686 99.0067 31.4008 98.9873 31.4352C99.2045 31.5707 99.4217 31.7062 99.6388 31.8416ZM110.265 63.8334C110.313 63.8549 110.36 63.8764 110.41 63.8979C110.483 63.6936 110.554 63.4915 110.655 63.2077C110.257 63.3496 110.225 63.5732 110.268 63.8356L110.265 63.8334ZM126.541 53.2089C126.494 53.2132 126.446 53.2175 126.401 53.224C126.42 53.4669 126.44 53.7078 126.459 53.9508C126.513 53.9443 126.567 53.94 126.623 53.9335C126.597 53.6927 126.569 53.4497 126.541 53.2089ZM101.469 95.3543C101.501 95.2898 101.533 95.2253 101.563 95.1586C101.346 95.0683 101.129 94.978 100.912 94.8877C100.892 94.9307 100.873 94.9715 100.856 95.0145C101.06 95.1285 101.264 95.2403 101.469 95.3543ZM131.431 32.448C131.39 32.4545 131.349 32.4631 131.308 32.4695C131.383 32.6781 131.456 32.8867 131.532 33.0952C131.566 33.0845 131.598 33.0716 131.633 33.0608C131.566 32.8566 131.499 32.6523 131.433 32.4459L131.431 32.448ZM110.061 62.7239C110.109 62.7368 110.154 62.7475 110.201 62.7604C110.246 62.6013 110.291 62.4443 110.358 62.2057C109.992 62.3261 110.012 62.5196 110.061 62.7239ZM106.371 10.0336C106.371 9.98411 106.374 9.9325 106.376 9.88304C106.24 9.87229 106.105 9.85724 105.971 9.85939C105.948 9.85939 105.924 9.9368 105.868 10.0336H106.371ZM128.278 76.4383C128.308 76.4878 128.339 76.5351 128.369 76.5845C128.489 76.4964 128.616 76.4125 128.726 76.3136C128.749 76.2921 128.717 76.2104 128.704 76.1115C128.541 76.2383 128.41 76.3394 128.278 76.4383ZM111.394 55.6258C111.409 55.385 111.418 55.2517 111.429 55.071C111.197 55.213 111.087 55.3248 111.394 55.6258ZM133.437 48.3901C133.398 48.3858 133.357 48.3815 133.319 48.3772V48.7256C133.347 48.7256 133.377 48.7277 133.405 48.7299C133.415 48.6159 133.426 48.502 133.437 48.388V48.3901ZM125.105 61.8186C125.13 61.8272 125.156 61.838 125.18 61.8466C125.236 61.6659 125.292 61.4853 125.348 61.3025C125.305 61.2939 125.261 61.2832 125.218 61.2724C125.18 61.4531 125.143 61.6337 125.105 61.8165V61.8186ZM100.572 32.2244C100.774 32.4824 100.992 32.61 101.226 32.6071C101.006 32.4781 100.852 32.3878 100.572 32.2244ZM107.855 67.0803C108.124 67.2373 108.27 67.1835 108.311 66.8223C108.109 66.9363 107.982 67.0094 107.855 67.0803ZM105.455 68.478C105.625 68.3447 105.733 68.2587 105.918 68.1146C105.683 68.0888 105.567 68.0759 105.412 68.0587C105.427 68.2006 105.438 68.2952 105.457 68.4802L105.455 68.478ZM123.118 32.3362C123.075 32.3771 123.032 32.4179 122.989 32.4588C123.103 32.5512 123.217 32.6415 123.331 32.734C123.361 32.6996 123.391 32.6673 123.423 32.6329C123.322 32.534 123.221 32.4351 123.118 32.3362ZM118.409 27.4207C118.46 27.6615 118.598 27.7346 118.821 27.64C118.692 27.5712 118.591 27.5174 118.409 27.4207ZM74.7989 4.8256C74.6161 4.76109 74.4204 4.62777 74.2205 4.94171C74.4677 4.89226 74.6333 4.86 74.7989 4.8256ZM135.394 52.6799C135.445 52.6885 135.497 52.6971 135.551 52.7057C135.555 52.5982 135.559 52.4907 135.566 52.3854C135.531 52.3811 135.497 52.3789 135.462 52.3746C135.439 52.4757 135.417 52.5789 135.394 52.6799ZM133.334 60.0833C133.28 60.079 133.228 60.0747 133.175 60.0726V60.4102C133.205 60.4145 133.235 60.4188 133.265 60.4231C133.286 60.3113 133.31 60.1995 133.331 60.0855L133.334 60.0833ZM109.625 63.713C109.657 63.7238 109.691 63.7345 109.724 63.7431C109.758 63.6614 109.792 63.5797 109.827 63.498C109.775 63.4808 109.726 63.4636 109.674 63.4485C109.657 63.5367 109.64 63.6248 109.625 63.713ZM130.738 30.5493C130.695 30.5536 130.654 30.5601 130.611 30.5644C130.648 30.6977 130.684 30.8289 130.721 30.9622C130.768 30.9493 130.814 30.9364 130.861 30.9213C130.82 30.7966 130.779 30.674 130.736 30.5493H130.738ZM135.213 53.3444C135.234 53.3831 135.256 53.4196 135.28 53.4562C135.411 53.3874 135.542 53.3164 135.671 53.2476C135.641 53.196 135.611 53.1444 135.581 53.0928C135.458 53.1767 135.336 53.2605 135.213 53.3444ZM106.328 96.6681C106.341 96.7003 106.356 96.7304 106.371 96.7627C106.477 96.7175 106.584 96.6702 106.69 96.6251C106.672 96.5907 106.657 96.5541 106.642 96.5176C106.539 96.567 106.434 96.6186 106.33 96.6681H106.328ZM68.0384 102.158C68.0341 102.177 68.0277 102.196 68.0212 102.216H68.4577V102.158H68.0363H68.0384ZM126.765 36.8367C126.719 36.8647 126.676 36.8926 126.631 36.9206C126.702 37.0647 126.775 37.2087 126.846 37.3549C126.881 37.3399 126.915 37.3248 126.949 37.3098C126.887 37.1528 126.827 36.9958 126.765 36.8367ZM120.894 30.072C120.944 30.0182 120.993 29.9644 121.041 29.9128C120.929 29.8118 120.815 29.7107 120.703 29.6075C120.656 29.6591 120.608 29.7107 120.559 29.7602C120.671 29.8634 120.78 29.9666 120.892 30.072H120.894Z" fill="#A6D21F"/>
<path d="M119.705 112.185C120.288 113.058 121.027 113.823 121.219 114.905C120.782 114.569 120.46 114.133 120.21 113.664C119.965 113.204 119.46 112.832 119.705 112.187V112.185Z" fill="#A6D21F"/>
<path d="M78.6777 1.77004C79.6131 1.68833 80.5485 1.56791 81.4903 1.72488C80.5549 1.82809 79.6196 1.9141 78.6777 1.77004Z" fill="#A6D21F"/>
<path d="M108.511 8.58868C109.001 8.7779 109.489 8.96713 109.977 9.1585C109.965 9.19291 109.952 9.22731 109.939 9.26172C109.451 9.10905 108.963 8.95638 108.434 8.7908C108.459 8.72415 108.49 8.65104 108.52 8.58008L108.513 8.59083L108.511 8.58868Z" fill="#A6D21F"/>
<path d="M108.47 9.56454C108.396 9.54089 108.326 9.51723 108.252 9.49573C108.145 9.40757 108.035 9.32156 107.928 9.2334C108.474 9.2463 108.938 9.39897 109.336 9.71936L109.349 9.70431C109.057 9.65915 108.762 9.61185 108.47 9.56669V9.56454Z" fill="#A6D21F"/>
<path d="M134.938 59.0961C135.17 58.7757 135.402 58.4532 135.634 58.1328C135.669 58.1543 135.703 58.178 135.735 58.1995C135.492 58.6317 135.249 59.066 134.953 59.5971V59.0768L134.938 59.0961Z" fill="#A6D21F"/>
<path d="M109.339 9.72013C109.795 9.72873 110.18 9.91581 110.489 10.2792C110.111 10.0878 109.73 9.89645 109.352 9.70508L109.339 9.72013Z" fill="#A6D21F"/>
<path d="M106.701 8.37318C106.572 8.34523 106.442 8.31728 106.313 8.28717C106.316 8.26137 106.32 8.23772 106.322 8.21191H106.713C106.709 8.26567 106.705 8.31943 106.703 8.37103L106.701 8.37318Z" fill="#A6D21F"/>
<path d="M108.517 8.58018H107.801C107.803 8.54147 107.807 8.50062 107.809 8.46191C108.042 8.50707 108.272 8.55223 108.506 8.59308C108.51 8.58878 108.517 8.58018 108.517 8.58018Z" fill="#A6D21F"/>
<path d="M104.705 7.81855C104.587 7.77555 104.469 7.73039 104.351 7.68739C104.357 7.65728 104.363 7.62503 104.37 7.59277C104.499 7.60998 104.626 7.62718 104.755 7.64438C104.738 7.70244 104.723 7.76049 104.708 7.81855H104.705Z" fill="#A6D21F"/>
<path d="M64.9854 1.98047C65.1208 2.03208 65.1982 2.06218 65.2756 2.09228C65.2154 2.10949 65.1552 2.13529 65.0929 2.13744C65.0735 2.13744 65.0499 2.07723 64.9854 1.98047Z" fill="#A6D21F"/>
<path d="M118.553 85.936C118.755 85.8328 118.955 85.7317 119.17 85.6221C119.085 85.8529 118.873 86.0134 118.533 86.1037C118.54 86.0478 118.546 85.9919 118.553 85.936Z" fill="#A6D21F"/>
<path d="M94.5645 74.1161C94.8913 73.6904 95.2848 73.3657 95.8331 73.2969C95.4826 73.6818 95.0698 73.9678 94.5645 74.1161Z" fill="#A6D21F"/>
<path d="M92.8936 75.3139C93.3064 74.9742 93.6376 74.486 94.2654 74.5484C93.8612 74.9032 93.444 75.2322 92.8936 75.3139Z" fill="#A6D21F"/>
<path d="M87.3564 27.1063C88.0166 26.9085 88.4488 27.1515 88.8939 27.4869C88.3047 27.6933 87.9413 27.2203 87.3564 27.1063Z" fill="#A6D21F"/>
<path d="M90.9544 27.9459C90.7372 28.2168 90.4684 28.2577 90.1114 28.0878C89.9244 27.9997 89.7287 27.9244 89.5137 27.8363C89.6255 27.6298 89.9007 27.7094 89.9867 27.7717C90.2964 28.004 90.6383 27.9395 90.9716 27.9631L90.9544 27.9459Z" fill="#A6D21F"/>
<path d="M83.2193 25.7541C83.443 25.7649 83.6644 25.7778 83.8881 25.7885C83.8838 25.8272 83.8795 25.8681 83.8752 25.9068C83.6558 25.8788 83.4344 25.853 83.2129 25.8251L83.2172 25.752L83.2193 25.7541Z" fill="#A6D21F"/>
<path d="M81.1421 25.2894L80.6346 25.3905C80.6238 25.356 80.6131 25.3216 80.6045 25.2872C80.7679 25.2378 80.9292 25.1862 81.0926 25.1367C81.1098 25.1883 81.127 25.2399 81.1442 25.2894H81.1421Z" fill="#A6D21F"/>
<path d="M82.6111 25.5857H81.9295C81.9274 25.5513 81.9252 25.519 81.9209 25.4868C82.151 25.4674 82.3811 25.4481 82.6111 25.4287V25.5878V25.5857Z" fill="#A6D21F"/>
<path d="M96.609 74.0427C96.4585 74.1287 96.308 74.2147 96.1596 74.2986C96.136 74.2599 96.1145 74.2212 96.0908 74.1825C96.2349 74.09 96.379 73.9997 96.523 73.9072C96.551 73.9524 96.5811 73.9975 96.609 74.0427Z" fill="#A6D21F"/>
<path d="M55.8271 79.9844H56.1755C56.1798 80.0123 56.1841 80.0403 56.1905 80.0682C56.0744 80.0919 55.9583 80.1155 55.8422 80.137C55.8379 80.0854 55.8336 80.036 55.8271 79.9844Z" fill="#A6D21F"/>
<path d="M56.4854 79.9688H56.9111C56.838 80.2741 56.709 80.1558 56.4854 79.9688Z" fill="#A6D21F"/>
<path d="M72.8613 24.9414H73.214C73.2161 24.9715 73.2204 24.9995 73.2226 25.0274C73.1129 25.0575 73.0032 25.0876 72.8936 25.1177C72.8828 25.0575 72.8721 24.9995 72.8613 24.9414Z" fill="#A6D21F"/>
<path d="M108.027 45.3022C108.124 45.6247 108.167 45.9795 108.333 46.2612C108.492 46.53 108.78 46.7213 109.027 46.9643V46.6375C109.094 46.6611 109.158 46.6676 109.167 46.6912C109.378 47.3363 109.276 48.0481 109.603 48.6759C109.683 48.8286 109.638 49.0479 109.655 49.3146C109.431 49.2221 109.268 49.1555 109.07 49.0737C109.386 48.6351 109.399 48.2244 109.006 47.8631C108.786 47.661 108.713 47.3342 108.376 47.2267C108.117 47.1449 108.317 46.8719 108.246 46.6998C108.165 46.502 108.092 46.2977 108.008 46.1021C107.887 45.8225 107.902 45.5537 108.044 45.2871L108.025 45.3043L108.027 45.3022Z" fill="#A6D21F"/>
<path d="M106.192 40.0491C106.298 40.0491 106.44 40.0082 106.485 40.0577C106.601 40.1824 106.715 40.3372 106.756 40.4985C106.857 40.8963 106.885 41.3134 107.164 41.6532C106.816 41.8295 106.73 41.6252 106.655 41.4059C106.502 40.9608 106.352 40.5157 106.192 40.0491Z" fill="#A6D21F"/>
<path d="M108.337 48.6182C108.832 48.7515 108.647 49.1901 108.748 49.5041C108.851 49.8202 109.04 50.1148 108.864 50.4997C108.427 50.3534 108.554 49.9341 108.475 49.6395C108.387 49.3106 108.378 48.9601 108.335 48.6182H108.337Z" fill="#A6D21F"/>
<path d="M107.836 44.6547C107.589 44.0677 107.341 43.4807 107.049 42.7861C107.262 42.8162 107.354 42.8291 107.444 42.842C107.395 43.1237 107.621 43.2936 107.705 43.5194C107.836 43.8656 107.881 44.244 107.963 44.6096C107.92 44.6246 107.879 44.6418 107.836 44.6569V44.6547Z" fill="#A6D21F"/>
<path d="M108.667 52.2023C108.652 51.7055 108.637 51.2067 108.62 50.71C108.925 51.2088 108.975 51.7378 108.953 52.3506C108.82 52.2775 108.736 52.2324 108.652 52.185L108.665 52.2044L108.667 52.2023Z" fill="#A6D21F"/>
<path d="M107.289 42.6274C107.124 42.5228 107.031 42.3329 107.01 42.0576C107.19 42.2067 107.284 42.3966 107.289 42.6274Z" fill="#A6D21F"/>
<path d="M109.571 50.7314C109.466 50.4282 109.395 50.226 109.287 49.9229C109.538 50.125 109.633 50.3945 109.571 50.7314Z" fill="#A6D21F"/>
<path d="M108.047 45.2855C107.948 45.178 107.851 45.0705 107.698 44.9028C108.197 44.8791 107.976 45.1608 108.029 45.3027L108.049 45.2855H108.047Z" fill="#A6D21F"/>
<path d="M89.3817 5.5779C87.6765 5.46393 85.9606 5.42308 84.2662 5.2145C82.6213 5.01022 80.9612 5.31126 79.2324 4.93927C79.6367 4.76079 79.9721 4.72639 80.3248 4.74144C81.3913 4.78445 82.46 4.78875 83.5244 4.85971C84.5199 4.92421 85.5112 5.04033 86.5025 5.15859C87.4658 5.27256 88.4248 5.42093 89.386 5.55209C89.386 5.56069 89.3839 5.57145 89.3817 5.58005V5.5779Z" fill="#A6D21F"/>
<path d="M106.24 93.3374C106.406 93.3052 106.571 93.2729 106.879 93.2148C106.621 93.518 106.429 93.4256 106.24 93.3374Z" fill="#A6D21F"/>
<path d="M103.928 94.4596H103.294C103.294 94.4467 103.294 94.4338 103.296 94.4209C103.507 94.4338 103.718 94.4467 103.928 94.4596Z" fill="#A6D21F"/>
</svg>
