<svg width="261" height="172" fill="none" xmlns="http://www.w3.org/2000/svg"><path d="M99.674 156.56c-3.873-2.184-8.243-3.284-12.296-5.089a737.018 737.018 0 0 0-20.537-8.86c-3.857-1.628-7.696-3.329-11.63-4.757-3.041-1.17-6.391-2.101-8.847-4.326-1.51-.377-.7-4.831-1.029-6.219-.293-7.25-.314-14.498-.15-21.749-.17-5.482.033-10.97.352-16.444.442-1.68-.698-5.53 1.16-6.173 1.538-1.781 9.74-.15 12.126.238 8.428 1.202 16.67 3.478 25.025 5.093 4.599.947 9.157 2.096 13.768 2.98 1.776.3 3.53.715 5.283 1.121 1.936.127 2.728 1.333 1.463 2.993.313.686 1.112 1.068.223 1.853.647 7.23-.004 14.532-.33 21.769 1.408-.091 4.221-2.241 4.858-.141 8.616 3.444 17.382 7.383 25.334 11.922.021.012.04.021.061.031l-.023-.013c.011.003.023.013.034.018l-.005-.001c.005.001.01.007.015.008l.048.025a1.027 1.027 0 0 1-.07-.04c4.072 2.073 8.085 4.268 12.206 6.235 1.665 1.054 8.698 3.357 5.879 5.904-10.804 4.086-22.438 5.883-33.531 9.161 0 0 .004.001.005-.001-4.174 1.207-8.397 2.245-12.574 3.453-2.208.345-4.621 1.715-6.819 1.013l.001-.004Zm9.218-34.842-.209-.098-.019.007c.081.028.156.058.228.089v.002Z" fill="#747474"/><path d="M102.453 119.751c.068-.371.549-.465.837-.631l-.045.021c1.299-.608 2.71-.906 4.074-1.32a.182.182 0 0 1-.019.008c.361-.228.877-.007.835.453-.405 1.29-3.675.997-4.88 1.549l.043-.014c-.083.025-.167.053-.251.08-.148.191-.613.153-.595-.144l.001-.002Z" fill="#2D4E62"/><path d="M117.159 123.59c-.307-.18-.613-.366-.925-.536.009.002.016.009.023.013-.026-.013-.048-.026-.074-.038.007.001.011.004.017.008-.006-.001-.01-.005-.017-.008.005.001.009.004.013.007l-.073-.038c.009.002.016.009.025.013a56.92 56.92 0 0 1-7.986-4.127c-.491.474-1.357-1.365.895-.467 2.495 1.046 4.955 2.185 7.416 3.294.544.412 1.933.762 1.46 1.652-.164.26-.507.388-.774.227Z" fill="#2D4E62"/><path d="M126.105 127.893a196.923 196.923 0 0 0-9.802-5.097c.002.001.007.002.009.005-.547-.292-1.091-.593-1.642-.875l.076.039c-.537-.274-1.042-.601-1.569-.895l.071.037c-1.775-.824-3.618-1.567-5.39-2.355-.313-.998 1.42-.248 1.881-.121-.018-.004-.035-.011-.052-.017 1.798.566 3.665.975 5.286 1.979l-.076-.039c1.976 1.042 4.034 1.909 5.992 2.982l-.045-.025c2.081.931 3.942 2.238 5.932 3.326.595.395-.064 1.426-.674 1.056h.003ZM102.986 105.719c.115-3.892.664-7.769.704-11.661-.823-.533.528-1.302.823-.46.661.765.74 16.037-1.527 12.121Z" fill="#2D4E62"/><path d="M100.733 153.67c-.415-.332.114-1.027.045-1.506-.004.016-.004.03-.006.046.28-1.938.195-3.901.518-5.833a.107.107 0 0 0-.003.025c.116-.9.144-1.811.266-2.71l-.001.004a.126.126 0 0 0 .004-.027l-.001.004c.01-.087.021-.171.03-.258-.005.018-.004.034-.005.05.241-3.709.38-7.428 1.021-11.1-.005.022-.006.043-.008.064l.048-.407c-.001.007-.003.015-.003.023l.007-.027s-.004.006-.003.011c.003-.011.003-.023.003-.034a.06.06 0 0 0 .001-.014l-.001.004a.056.056 0 0 0 .003-.023c-.003.014-.004.028-.005.042.111-.986.151-1.977.266-2.962-.003.013-.002.03-.005.043l.041-.345a.076.076 0 0 0-.003.021c.081-.676.183-1.352.27-2.026-.004.02-.005.041-.007.061.39-1.266-.008-5.878.91-6.297.24.021.259.276.231.467-.127 2.6-.129 5.212-.547 7.791-.135 1.091-.172 2.188-.305 3.279a.113.113 0 0 0 .005-.032l-.001.005a.26.26 0 0 0 .005-.039c-.006.032-.009.066-.012.098.002-.009.004-.018.004-.027l-.046.379c.005-.022.005-.043.008-.064-.851 5.151-.97 10.39-1.762 15.55l.006-.045c-.236 1.008.081 5.757-.971 5.811l.003-.002ZM101.719 154.561c-.15-.315.224-.509.476-.582 2.832-.997 5.619-2.131 8.518-2.923l-.053.016c.792-.235 1.598-.424 2.392-.656-.003-.001-.005.001-.01.002 1.332-.4 2.636-.89 3.978-1.255a.254.254 0 0 1-.037.01c.255-.076.513-.15.768-.224a.03.03 0 0 0-.01.002l.226-.066c-.002-.001-.005.001-.007.003l.053-.016-.003-.001.023-.006-.008.003c.156-.046.313-.091.466-.138a.334.334 0 0 1-.052.014l.134-.039a.583.583 0 0 1 .043-.014c-.005-.001-.008.003-.013.004.008-.003.015-.003.022-.006-.002-.001-.004.001-.007.003.884-.272 1.791-.466 2.681-.713l-.035.01.28-.082a.583.583 0 0 1-.053.013c5.536-1.883 11.329-2.843 16.956-4.409a158.86 158.86 0 0 1 12.902-2.789c.252-.157.63-.236.765.11.349 1.265-4.343 1.278-5.293 1.619l.06-.009c-7.834 1.512-15.513 3.716-23.263 5.603 0 0 .004.001.005-.002-1.918.657-3.898 1.108-5.835 1.699a.016.016 0 0 0 .008-.003c-1.713.454-3.383 1.042-5.071 1.572h.007c-.056.017-.111.032-.167.05l-.04.011c.005.001.008-.002.013-.004a1.067 1.067 0 0 1-.053.016c-.559.165-1.121.32-1.682.482l.035-.01c-.118.035-.237.071-.357.104 0 0 .005-.001.007-.003l-.055.015c.002.001.007 0 .01-.002-.384.117-.772.223-1.155.338.01-.005.022-.007.033-.011-.126.036-.25.075-.376.111l.055-.015c-2.201.715-4.391 1.485-6.624 2.105-.105.22-.518.269-.656.058l-.001.005ZM121.997 133.376c-.397-1.131 6.318-2.61 7.467-3.334-3.177-1.729-6.602-2.979-9.856-4.56l.024.006a.45.45 0 0 1-.026-.009c-1.968-.841-3.979.126-5.989.383-.24.026-.502.122-.738.048-.284-.151.018-.55.269-.439 2.069-.342 4.156-1.549 6.242-.871 3.566 1.428 7.177 2.917 10.587 4.694 2.36.803-.041 1.478-1.107 1.886-1.936.754-3.902 1.426-5.841 2.167l.031-.014-.068.031.019-.01c-.321.139-.804.496-1.011.018l-.003.004Z" fill="#fff"/><path d="M121.218 133.546c-.826-.402-1.638-.829-2.454-1.25a.903.903 0 0 1 .052.028c-.038-.018-.074-.038-.111-.058l.025.013-.052-.029a.022.022 0 0 1 .011.005l-.077-.042c.009.002.014.008.023.013l-.08-.042a11.73 11.73 0 0 1-.248-.131c.004.001.008.004.014.008-.248-.131-.486-.276-.732-.411l.053.027c-.783-.376-1.518-.832-2.28-1.243l.025.013-.048-.025.023.012c-1.351-.715-2.717-1.392-4.023-2.183l.004.001c-4.081-1.826 1.118-2.575 2.849-3.062.661-.031 2.999-.998 3.182-.23-.091.272-.41.111-.617.185.009-.001.021-.002.031-.005-.831.132-1.632.398-2.44.624l.005.001c-1.19.363-2.388.719-3.529 1.217 1.391.889 2.86 1.648 4.337 2.393l-.006-.001a43.897 43.897 0 0 1 2.169 1.144c.446.21.891.424 1.319.67l-.053-.027c.891.446 1.775.899 2.671 1.327l-.035-.02c.183.102.362.209.563.27l-.013-.003c.02.005.036.014.057.018-.014-.003-.024-.008-.035-.012.301.086.727-.251.883.176.183.78-.956.858-1.457.624l-.006.005ZM128.03 141.593l.015.008c-.122-.061-.24-.129-.36-.195-1.591-.78-3.26-1.385-4.835-2.204l.059.03c-2.659-1.648-5.558-2.774-8.302-4.259l.057.029c-3.987-1.646-7.627-4.097-10.93-6.849-.747-1.943 3.735 1.991 4.294 2.075a.743.743 0 0 0 .027.016c-.004-.001-.009-.002-.01-.005 1.622.885 3.113 2.004 4.756 2.86a.164.164 0 0 1-.029-.016c1.039.482 2.12.855 3.104 1.451l-.042-.021c2.495 1.265 5.088 2.273 7.471 3.756l-.023-.013.094.05c-.021-.009-.039-.021-.058-.03.042.022.086.044.127.068a.7.7 0 0 1-.06-.033c1.249.665 2.593 1.128 3.852 1.77-.007-.002-.012-.008-.018-.012.405.213.837.37 1.236.602l-.059-.03c.673.19.234 1.247-.368.951l.002.001ZM122.788 143.214c-.186-.109-.371-.218-.563-.32.009.003.014.009.023.013-.007-.002-.015-.008-.021-.012l.004.001c-5.968-3.526-12.358-6.348-18.047-10.336l.017.01c-.03-.023-.06-.044-.09-.068l.016.014c-.411-.331-.886-.666-1.185-1.083-.038-.457.483-.338.704-.122 1.619 1.1 3.437 1.823 5.069 2.907l-.063-.033c.843.418 1.63.933 2.459 1.373-.024-.01-.044-.022-.065-.034l.416.218c-.024-.011-.044-.023-.065-.034.885.477 1.778.932 2.671 1.395l-.006-.002.05.026-.03-.014c.022.01.04.021.061.031l-.025-.013c.002 0 .007.001.008.004l.238.126-.066-.036a95.366 95.366 0 0 0 4.24 2.13l-.034-.017c1.433.842 2.821 1.757 4.316 2.496l-.069-.037a3.467 3.467 0 0 1 .104.057.02.02 0 0 1 .012.008c-.008-.002-.016-.009-.025-.013.456.209 1.102.556.719 1.138-.161.26-.506.388-.773.227ZM115.556 144.187c-1.43-.717-2.751-1.616-4.268-2.14a1.3 1.3 0 0 0 .066.037c-.033-.017-.069-.035-.102-.054.013.005.023.012.036.017-2.758-1.969-5.795-3.424-8.672-5.191-.314.037-.607-.333-.506-.637.647-.948 2.278.864 3.138.997 3.515 1.557 6.594 3.895 10.084 5.522l-.069-.037c.028.013.054.029.082.042a.044.044 0 0 1-.015-.008c.024.01.047.023.067.034a.361.361 0 0 0-.044-.022c.485.234 1.385.526.957 1.215-.161.256-.494.377-.754.223v.002ZM108.669 145.04c-2.231-1.32-4.583-2.565-6.485-4.344-.282-.016-.234-.461-.006-.534.404-.035.708.382 1.076.515l-.002-.001c2.077 1.165 4.513 2.122 6.271 3.663.113.46-.416.966-.854.704v-.003ZM103.364 145.97c-.361-.272-.645-.625-.949-.957l.022.026c-.148-.22-.916-.658-.367-.82.088.035.222.026.268.121.512.409 1.274.721 1.597 1.273.035.29-.335.57-.574.359l.003-.002Z" fill="#fff"/><path d="M39.346 142.4c.137.033.359.052.568.085-.17-.039-.333-.046-.568-.085Zm30.58-15.505c.066.013.13.026.183.039-.072-.013-.124-.026-.183-.039Zm-22.785 15.941c-.058-.052-.13-.13-.274-.182-.378.091-.789.111-1.213.195.033-.019.072-.026.02-.071-1.507.104-3.047.006-4.69-.17-.307-.019-.092-.065-.353-.078-.176-.006-.352-.019-.489-.026.046.007.137.02.085.026a3.816 3.816 0 0 0-.313-.045c.098 0 .267.006.006-.02l.352.033s-.097 0-.365-.039l-.215-.02.013-.013c-.574-.111-.587-.033-.535-.072.059-.026.137-.267.137-.28l.04-.071c.097-.143.195-.274.306-.391a9.363 9.363 0 0 1 1.409-1.706c.156-.195.613-.625.802-.957l.033.097c.274-.312.587-.853.743-1.061l.02.045c.11-.123.352-.547.209-.716.306-.215.365.052.659-.417l-.072.026c.182-.234.796-.788 1.428-1.263.633-.488 1.279-.925 1.435-1.12v.091c.261-.436.816-.56 1.044-1.094.378-.163 1.33-.684 2.31-1.198.971-.514 1.963-1.022 2.321-1.335.672-.456-.071-.293.646-.625.105-.039.078-.215-.098-.241.261-.052.548-.248.881-.137.659-.488 1.729-1.029 2.837-1.472 1.11-.449 2.251-.794 3.001-1.028l-.026.039c.496-.144 1.716-.502 3-.73 1.292-.221 2.636-.325 3.21-.299l.176-.098c.28.085.463.013.829.091.17 0 .065-.065-.026-.084.32.065.606.026.789.078l-.04.019c.496.104.699 0 1.246.111.222.052.444.033.64.078.28.065.039.039.267.085.085-.007.333.052.568.091-.268-.046-.561-.091-.535-.065.32.045.078.032.404.065l.02-.013c.137.013.43.091.463.091-.085-.019-.196-.039-.326-.065 0 0-.19.046-.274.287-.098.221-.098.651-.091.703-.222.371-.653.703-.875 1.178.085-.065-.182.235-.052.183-.058.032-.137.137-.195.195.071-.117.143-.234.137-.28-.411.436-.842.938-1.285 1.316-.275.195-.229.547-.287.605l-.04-.111-.26.235c.097.065.136.28.267.215.026.071-.078.104-.15.215.02-.052.039-.202-.026-.17-.203.189-.026.15-.222.443-.013-.026.072-.332-.157-.221-.267.176-1.063.931-1.885 1.634-.822.71-1.67 1.394-1.95 1.609.059.052-.19-.717-.157-.736l-.176.365.248.117c-.13.573-1.768 2.012-1.97 2.526l.098-.052c-.19.332-.372.476-.692.684l.157-.215c-.228-.26-.378-.143-.567 0l.182.052c-.078.411-.372.28-.685.508l.17.02c-.04.11-.157.117-.261.163.104-.235-.215-.137-.352-.267.267.26-.079.41-.163.494-.17-.208-.229.333-.366.105-.071.123.098.241.13.228-.293-.02-.3.455-.69.703-.738.28-.19-.156-.862.501l-.17-.123.079.293c-.372-.417-.535.091-.835-.352.013.221-.196.02-.293.28.234.28.39.052.574.215-.32.221-1.299.592-2.31.873-1.01.286-2.054.481-2.426.527.098-.059 0-.189-.137-.241l-.222.156c.065.065.144.046.13.124-.084.091-.313-.059-.254.189-.052-.137-.248-.104-.26-.143-.02.254-.731-.092-.68.351-.351.15-.221-.247-.632-.149l.11.286s-.593.091-1.147.182c-.555.105-1.103.183-1.037.241h.032ZM34.941 142.321c.047-.148.098-.382.149-.617-.066.19-.08.367-.149.617Zm-17.248-28.118c.031-.066.064-.137.086-.192-.033.072-.056.133-.086.192Zm17.596 19.614c-.057.085-.152.186-.198.355.141.367.194.791.325 1.222-.033-.029-.035-.07-.09.009.053.397.096.804.133 1.21.03.411.024.846.03 1.27-.003.428-.031.876-.048 1.308-.05.449-.098.899-.147 1.348-.037.332-.084.111-.108.393-.02.196-.036.379-.05.53.013-.05.039-.144.033-.098-.027.1-.053.22-.08.34.01-.105.026-.288-.024-.007l.065-.384s-.01.111-.069.397l-.036.231-.013-.003c-.176.622-.088.62-.128.568-.024-.06-.326-.088-.334-.084l-.08-.022a3.123 3.123 0 0 1-.463-.227 10.385 10.385 0 0 1-2.009-.945c-.23-.096-.742-.411-1.145-.487l.12-.068c-.371-.169-1.033-.283-1.28-.364l.056-.031c-.152-.062-.66-.147-.864.059-.267-.228.054-.395-.518-.517l.03.061c-.289-.099-.977-.508-1.598-.993-.635-.482-1.214-.996-1.482-1.15l.114-.022c-.564-.175-.79-.773-1.462-.876-.11-.191-.35-.519-.637-.919l-.927-1.333c-.638-.939-1.245-1.89-1.615-2.213-.542-.624-.376.146-.754-.561-.045-.107-.265-.039-.312.156-.052-.276-.283-.54-.125-.92-.574-.606-1.183-1.651-1.65-2.751-.472-1.102-.801-2.259-1.01-3.02l.05.013c-.134-.492-.454-1.734-.57-3.06-.114-1.326-.045-2.735.065-3.336l-.1-.175c.15-.301.088-.492.24-.88.022-.175-.069-.066-.117.035.133-.339.127-.636.229-.836.003.014.014.024.017.038.212-.532.105-.729.352-1.312l.006.001c.1-.241.115-.471.204-.675.134-.292.06-.044.16-.285.003-.086.121-.349.223-.596-.11.278-.216.591-.179.554.113-.338.05-.086.155-.42l-.009-.016c.041-.15.19-.451.2-.482-.039.09-.09.204-.148.342 0 0 .023.187.313.26.259.084.803.038.868.023.42.188.758.596 1.318.762-.066-.078.26.159.22.034.032.055.146.127.215.172-.139-.058-.27-.12-.328-.103.476.372 1.033.746 1.43 1.142.2.25.65.158.71.208l-.15.053.252.237c.098-.114.372-.18.312-.304.09-.036.124.061.24.126-.062-.017-.244-.013-.214.049.207.177.18.002.52.162-.038.016-.403-.023-.301.193.174.248 1 .944 1.771 1.664.772.721 1.52 1.455 1.743 1.698.072-.068-.915.32-.933.288l.431.118.176-.274c.697.036 2.298 1.413 2.905 1.505l-.056-.089c.39.12.55.271.77.553l-.253-.11c-.353.286-.221.416-.068.572l.087-.198c.5-.01.305.312.562.577l.048-.175c.126.007.12.127.169.22-.283-.05-.19.25-.37.416.352-.327.503-.017.597.056-.28.212.389.153.095.341.144.039.312-.156.294-.188-.054.294.532.192.8.52.275.666-.213.237.533.73l-.17.202.372-.154c-.547.475.065.501-.506.915.276-.072.009.19.317.221.367-.309.103-.401.32-.63.238.259.61 1.112.868 2.014.268.892.434 1.809.465 2.14-.06-.077-.227.065-.294.215l.173.154c.077-.086.067-.149.154-.172.102.048-.083.306.208.15-.163.104-.141.27-.18.293.299-.086-.148.711.373.478.178.283-.295.315-.169.692l.339-.23c-.023.034.123.557.264 1.099.151.531.284 1.077.35.987l-.018.016ZM37.601 141.452c.085-.046.216-.137.34-.222-.111.059-.196.13-.34.222Zm9.623-22.915c.039-.019.078-.045.117-.065-.045.026-.078.046-.117.065Zm-5.29 19.433c-.053 0-.125-.006-.223.033-.163.235-.371.438-.56.692.006-.026.025-.052-.02-.045-.757.777-1.618 1.463-2.564 2.142-.17.131-.078.007-.222.124-.104.079-.19.157-.274.216.026-.013.078-.052.059-.026-.079.052-.13.085-.183.117.052-.045.15-.124 0-.013l.202-.15s-.058.046-.208.15l-.124.092v-.013c-.353.209-.327.261-.313.215.02-.046-.04-.215-.04-.215v-.059a2.2 2.2 0 0 1-.006-.359 7.64 7.64 0 0 1 .046-1.588c0-.183.065-.627.026-.895l.058.04c.013-.294-.045-.739-.052-.921l.026.019c0-.117-.045-.457-.189-.483.072-.261.215-.144.176-.536l-.026.046c0-.216.085-.797.222-1.352.124-.562.28-1.098.28-1.281l.04.053c-.046-.36.195-.686.084-1.078.124-.268.411-.999.705-1.738.294-.738.594-1.482.652-1.822.157-.562-.163-.118.072-.64.04-.072-.052-.15-.157-.079.118-.156.183-.398.405-.496.248-1.156 1.39-3.181 2.01-4.141v.032c.202-.313.697-1.097 1.284-1.835.588-.738 1.266-1.444 1.58-1.705l.051-.137c.183-.092.255-.216.483-.353.091-.085.007-.065-.052-.033.196-.117.333-.274.457-.333l-.013.026c.313-.182.371-.339.71-.535.144-.079.248-.196.373-.261.176-.098.039 0 .182-.079.04-.046.196-.131.346-.222-.163.105-.34.216-.313.216.189-.131.052-.02.241-.157v-.013c.085-.059.268-.157.287-.17-.065.039-.124.072-.202.117 0 0-.078.112-.026.288.039.17.222.398.241.418.04.3-.059.679.026 1.039.02-.079 0 .209.046.124-.02.045-.02.137-.02.196-.013-.098-.02-.196-.045-.216-.04.425-.052.901-.13 1.306-.066.236.11.399.104.458l-.072-.039-.04.248c.08-.013.19.078.236-.013.045.026 0 .091.006.183-.013-.04-.065-.125-.085-.079-.026.196.053.092.072.34-.02-.007-.104-.209-.176-.039-.065.222-.17.999-.307 1.77-.13.771-.287 1.541-.345 1.783.052 0-.405-.287-.392-.313l.059.274.182-.059c.177.366-.071 1.921.04 2.286l.032-.078c.046.268.007.431-.072.699l-.013-.19c-.234-.026-.26.112-.3.275l.118-.059c.137.255-.079.327-.144.601l.098-.072c.026.078-.033.137-.065.209-.046-.176-.17.033-.3.026.254.007.137.255.124.34-.176-.033.02.287-.144.229.013.098.157.078.163.058-.163.131.033.386-.065.706-.267.509-.17.006-.241.679l-.144.02.163.117c-.372-.039-.241.307-.587.216.098.111-.091.104-.039.287.248.033.228-.156.398-.163-.072.268-.43.941-.848 1.581-.411.64-.88 1.254-1.057 1.456.026-.078-.078-.104-.176-.065l-.052.196c.058 0 .098-.046.124 0 0 .091-.19.118-.053.222-.084-.046-.176.065-.195.052.098.151-.424.307-.209.516-.124.249-.222-.026-.398.229l.183.098s-.274.333-.529.653c-.248.32-.502.627-.45.627l-.013.013Z" fill="#8BB704"/><path d="m172.102 19.052 1.742-3.154 9.585-5.313 19.337 3.4 5.769 9.045 1.453-.623 2.49 5.81c-1.065 1.258-3.186 3.876-3.153 4.274.033.398 1.924 11.037 2.866 16.307l-3.068 17.304-13.651 10.666-7.595-12.904-2.742-20.83-8.673-1.783-3.114-13.278-1.246-8.921ZM111.429 91.524c1.037.707 2.4.624 3.572 1.005 2.402 1.357 4.156 3.674 6.236 5.47l-.004-.004c.616.608 1.206 1.239 1.824 1.845l-.07-.068.135.133-.01-.008.07.067-.06-.06c.655.564 2.281 2.871 3.112 2.427.942.988 2.778-2.182 4.567-4.861 1.862-1.074 3.638-2.131 4.072-3.092.447-.1.799-.748 1.22-.99l-2.621-2.785c-1.778-2.314-4.018-4.205-6.168-6.154-2.178-2.016-4.208-4.254-6.804-5.743-7.574-5.795-21.741-1.932-10.217 1.83-1.23-.032-4.024.018-3.538 1.872.993 1.417 3.084 1.366 4.592 1.925-.911.208-2.029.079-2.735.792-.689.932.219 2.058 1.136 2.388 1.255.602 2.657.71 4.007.967-1.481.221-4.297 1.375-2.329 3.044h.013Z" fill="#F69471"/><path d="M111.429 91.524c1.037.707 2.4.624 3.572 1.005 2.402 1.357 4.156 3.674 6.236 5.47l-.004-.004c.616.608 1.206 1.239 1.824 1.845l-.07-.068.135.133-.01-.008.07.067-.06-.06c.819.705 3.155 4.134 3.558 1.507-.029-.189-.137-.41-.319-.497-1.101-.711-1.84-1.857-2.837-2.7-2.436-2.358-4.924-4.746-7.71-6.678-1.27-.657-3.085-.112-4.126-1.153.454-1.014 3.581-.875 4.474-1.533 1.257-1.834-4.45-1.444-5.417-2.019.02.005.041.013.062.018-.572-.215-1.445-.393-1.556-1.104 1.164-.38 2.466-.526 3.693-.495.679.048 1.433.34 2.083.04 2.035-2.096-6.414-2.212-7.318-3.311 2.048-.937 4.397.13 6.476-.196 1.968-2.041-6.459-2.44-7.158-4.083 2.435-1.053 5.458-.745 7.997-.12 8.202 2.436 12.77 10.33 19.207 15.284-.001.174.161.284.321.302 3.002 2.586-8.724-6.135-5.919-3.318 1.648 1.73 3.639 3.204 5.712 4.382.731.566 1.175-.513 1.748-.842l-2.621-2.785c-1.778-2.314-4.018-4.205-6.168-6.154-2.178-2.016-4.208-4.254-6.804-5.743-7.574-5.795-21.741-1.932-10.217 1.83-1.23-.032-4.024.018-3.538 1.872.993 1.417 3.084 1.366 4.592 1.925-.911.208-2.029.079-2.735.792-.689.932.219 2.058 1.136 2.388 1.255.602 2.657.71 4.007.967-1.481.221-4.297 1.375-2.329 3.044h.013Z" fill="#F69471"/><path d="M218.978 148.075c8.821-1.017 17.738-1.137 26.483-2.734 3.38-.655 7.346.059 10.283-1.996 3.227-.196 1.276-7.251 1.116-9.378-.786-5.464-1.736-10.907-3.056-16.269-.01-.038-.018-.077-.027-.116 0 .01.004.017.007.027l-.107-.456a.035.035 0 0 0-.003-.014l.001.006-.022-.094c-.631-3.565-1.883-6.942-2.953-10.386-.81-3.54-2.092-6.938-2.943-10.462-.667-4.156-2.558-7.936-4.297-11.726-1.6-3.392-2.962-6.93-5.39-9.84-1.875-2.724-3.922-5.4-6.529-7.465l.135.114c-3.92-3.779-8.534-6.756-13.41-9.154-2.036-.84-5.414-4.157-5.463.2.204 7.945-1.161 15.87-.558 23.826-1.383-.505-2.764-1.027-4.038-1.776-1.028-.704-2.013.506-1.523 1.522.596 5.285.509 10.707 1.078 16.028.294 6.004.822 12.005.824 18.019-.242 5.491-.721 10.963-1.001 16.45a1.244 1.244 0 0 0-.008.459c-4.664-.335-9.299.054-13.948.429-1.286.275-6.184-.108-6.261 1.348l-.081-.04a1.23 1.23 0 0 0-.141-.504c3.696-3.642 3.962-7.333 3.532-12.257-.231-3.568-.359-7.141-.62-10.707-.869-11.564-2.176-23.133-5.049-34.39.012.048.025.098.035.146-.935-5.015-2.898-9.755-3.837-14.77-.258-2.545-.577-6.245-3.893-3.568-.907.612-2.108.535-3.057 1.14-10.621 4.895-13.507 13.963-17.342 24.1-2.658 7.993-7.012 15.386-8.404 23.792-.333-.36-.661-.722-.993-1.082l.074.08c-5.005-5.909-9.785-12.032-15.337-17.446-.931-1.028-1.977-1.935-2.964-2.907-.961-1.181-1.893-.545-2.606.49l.091-.099c-2.16 2.373-4.956 4.174-6.637 6.978-1.472 1.69-.006 3.121 1.222 4.361 2.045 2.397 3.644 5.11 5.738 7.47 0-.004-.004-.006-.005-.009 4.538 5.985 9.873 11.3 14.539 17.195 1.733 2.192 3.782 4.101 5.56 6.253 2.489 2.501 5.195 7.235 9.323 5.74 4.365-1.944 4.96-7.067 6.633-11.022 1.968-5.41 3.532-10.974 6.207-16.097v.004c.045-.097.088-.193.129-.289 1.153 1.722 3.138 2.754 4.211 4.533.315 4.04.39 8.106.84 12.14a3.427 3.427 0 0 0-.014-.149c.59 3.632.525 7.472 1.523 10.988.535.652 1.465.257 2.187.313 2.878.21 5.79.259 8.645.587.13.64.348 1.264.482 1.905a2.56 2.56 0 0 1-.028-.119c.748 2.099.569 12.314 3.68 11.627 4.243-.444 8.503-.066 12.757-.164 5.077-.122 10.146-.464 15.213-.782l-.003-.003Zm8.432-43.412c2.387 8.251 3.609 16.793 5.941 25.039-2.232.195-4.497-.099-6.723-.277-.326-4.856.336-9.684.439-14.531l-.004.124c.152-3.928-.071-7.853-.045-11.786l.39 1.43.002.001Z" fill="#7F91EE"/><path d="M172.31 149.548c1.233-.234 2.138-1.256 3.236-1.815 2.658-.739 5.538-.341 8.277-.542h-.004c.865-.005 1.728.023 2.593.015l-.097.002.189-.002-.012.001.097-.002-.085.001c.862-.065 3.643.416 3.916-.485 1.365.033.422-3.507-.208-6.666.557-2.077 1.066-4.08.694-5.066.244-.387.036-1.094.163-1.563l-3.824-.116c-2.893-.379-5.814-.132-8.712.009-2.966.116-5.983-.031-8.872.751-9.453 1.258-16.74 14.007-5.931 8.519-.892.846-2.832 2.858-1.178 3.826 1.704.299 3.146-1.216 4.608-1.887-.497.792-1.379 1.491-1.373 2.494.172 1.147 1.61 1.301 2.491.886 1.314-.462 2.381-1.377 3.518-2.15-.892 1.204-2.067 4.01.505 3.799l.009-.009Z" fill="#F69471"/><path d="M186.341 37.972c.759-.16 1.015-.905 1.319-1.523.585-.33-.195-1.169-.526-.351-.363 1.179-2.043 1.793-2.908.807-.889-1.285-.769 1.769 2.115 1.067ZM193.774 27.563c.902-.026 4.372-2.135 3.356-3.121.006-.14-.145-.285-.283-.217-1.498-.91-3.226-1.306-4.955-.913-1.231.173-2.3.813-3.348 1.438-.726.433-.118 1.392.42 1.71l-.045-.029c1.465.861 3.154 1.363 4.855 1.132Zm-.462-.852c-1.468.073-3.292-.206-4.361-1.265 1.064-.645 2.134-1.336 3.401-1.476-.016 0-.032.005-.046.008.795-.125 1.604-.169 2.4-.034l-.042-.006c.659.114 1.278.386 1.903.615-.563.88-1.44 1.62-2.425 1.977.005 0 .008-.002.013-.004-.275.088-.552.177-.841.183l-.002.002Z" fill="#221200"/><path d="M192.318 26.433c1.113-.744.08-2.776-1.158-2.307-1.438.888-.44 3.257 1.158 2.306Zm-.57-.882a.514.514 0 0 1-.146-.149c.023.005.044.013.065.02a.22.22 0 0 0 .09.12l-.009.008v.001ZM178.653 27.849c.787-.097 1.646-.275 2.176-.921.213-.347.576-.608.73-.98.096-.372-.275-.828-.667-.685-.504-.788-1.511-.95-2.365-1.097l.044.006c-1.482-.235-4.148-.128-4.674 1.498.954 1.618 2.887 2.575 4.756 2.177v.002Zm-.203-.956c-1.465.27-2.805-.148-3.844-1.228 1.254-.94 2.857-.957 4.352-.756l-.01-.002.043.006a1.96 1.96 0 0 0-.024-.003c.563.11 1.223.172 1.592.663-.43.82-1.17 1.312-2.109 1.319v.002Z" fill="#221200"/><path d="M177.039 27.257c1.666-.222 1.447-2.304-.258-2.045-1.43.12-1.091 2.206.258 2.045Zm-.189-.899h-.005a.295.295 0 0 0 .017-.064c.064-.015.128-.033.193-.037l.023.05c-.076.021-.15.048-.228.051ZM181.46 26.141c.677-.382-1.484-2.073-1.645-1.174.023.567.85.447 1.159.841-.04.265.273.367.486.333ZM198.835 22.792c.176-.856-1-.614-1.491-.867-2.189-.894-4.56-.728-6.86-.5-1.205.221-3.007.016-3.728 1.172-.099.535.495.789.88.442 2.707-.523 5.6-.603 8.363-.48.763.015 2.294.802 2.836.233ZM181.526 23.362c1.944-2.264-8.17-1.377-8.142.05.213.68.996-.033 1.424-.116 2.088-.524 4.309-.29 6.388.145l-.024-.003a.498.498 0 0 0 .354-.076ZM198.266 26.442c.03-.475-.552-.42-.867-.546a3.61 3.61 0 0 1-.457-.17l-.075-.034.035.015c-1.02-.686-1.226.38-.58.287.481.157 1.647 1.167 1.944.445v.003ZM197.244 27.276c.187-.517-.599-.545-.875-.802.002 0 .003.003.007.005l-.027-.017.015.008c-.213-.127-.925-.783-.8-.149.346.287 1.254 1.346 1.682.955h-.002ZM195.97 27.927c.069-.184-.029-.382-.195-.468h.001a.919.919 0 0 1-.512-.637l.01.04c.036-.312-.416-.55-.526-.18-.06.512.689 1.853 1.222 1.244v.002ZM176.31 28.837c.149-.319.658-.845.326-1.162-.332-.077-.49.568-.747.757-.209.254.186.685.421.405ZM175.046 28.392c.318-.297 1.327-.875.809-1.334-.429-.08-.725.545-1.13.69l.009-.006c-.351.189-.052.813.312.65ZM174.524 27.517c.297-.253.803-1.388.013-1.113.009-.007.018-.016.028-.022a.231.231 0 0 0-.107.185c-.114.164-.273.286-.425.415-.324.294.181.902.493.538l-.002-.003Z" fill="#221200"/><path d="M172.716 149.703c1.234-.234 2.138-1.256 3.236-1.815 2.659-.739 5.538-.341 8.278-.542h-.005c.865-.005 1.729.023 2.594.015-.034.001-.066 0-.098.002.091-.002.184-.001.274-.003l-.097.002c1.06-.088 5.172.698 3.594-1.452-.155-.113-.388-.193-.578-.126-1.281.276-2.614-.011-3.916.097l.096-.001c-3.42.055-6.902.121-10.269.731-1.362.433-2.261 2.102-3.732 2.102-.396-1.038 1.913-3.15 2.08-4.248-.409-2.185-4.169 2.126-5.259 2.404l.057-.032c-.556.252-1.3.743-1.881.32.555-1.092 1.372-2.116 2.261-2.961.515-.447 1.254-.773 1.501-1.445-.043-2.922-6.099 2.971-7.515 2.833.785-2.11 3.201-3.017 4.44-4.718-.052-2.835-6.292 2.842-7.948 2.175.978-2.471 3.34-4.393 5.58-5.747-.024.015-.05.029-.074.042 7.536-4.126 16.375-1.757 24.452-2.809.122.124.315.087.441-.013 3.952-.295 7.93-.922 11.905-.914 2.388.057 4.839-.308 7.138-.941.916-.116.468-1.193.641-1.831.626-10.428-.026-20.901-.177-31.341-.289-6.358.166-12.71.165-19.063 1.462.701 5.134 3.778 4.67.12-.189-2.264-.225-4.535-.196-6.807.235-5.584 1.477-11.118.839-16.722 15.374 4.345 24.396 16.83 30.439 30.891.554 1.288 1.091 2.585 1.513 3.922.302 2.121 2.041 1.952 3.603 1.203 4.932-2.289 5.109-7.718 2.463-11.903-.981-1.541-2.312-2.836-3.259-4.404-.524-.998-.24-2.166-.436-3.236-.415-1.399-.778-3.09-1.993-4.008-1.867-4.656-9.344-4.421-8.746-9.295l-.004.091c.991-8.16-5.812-11.892-11.837-15.434-.891-.878-.993-2.217-1.357-3.355-.427-1.424-1.01-2.805-1.811-4.06-2.204-3.574-6.187-5.686-8.107-9.444l.029.052c-1.722-3.585-2.503-7.593-4.84-10.88C204.117 6.05 193.398 2.33 181.244 6.95l.031-.017s.006 0 .009-.002c-.094.038-.143.138-.136.24-4.299 2.414-9.811 5.703-9.823 11.26-.2.574.195 1.21.287 1.786-.817.231-1.971-.087-2.585.56-.499.16-.365.82-.347 1.227l-.002-.023.005.06-.001-.009c.12 1.127.112 2.273.389 3.375l-.018-.075c.228 2.539 1.695 5.006 4.334 5.566.662 2.559 1.242 5.155 1.243 7.813-.358 1.506-1.039 3.03-.655 4.63.65 2.167 2.382 3.84 3.065 6 1.07 2.714-5.472 2.716-6.004 8.434-.44.684-.679 1.475-.942 2.24-.271.738-1.209 2.342.146 2.488.988-.464 1.91-1.15 2.896-1.66a48.995 48.995 0 0 1 8.349-3.06c-1.472 6.344-.957 12.868-1.245 19.31-.299 7.847-.364 6.487 5.146 2.157-.713 4.496-.255 9.034.181 13.535-.003-.043-.008-.085-.013-.128.012.13.026.26.04.389l-.002-.024c.954 6.944 1.06 13.933 1.319 20.923.403 6.499.904 13.005.74 19.52-2.893-.379-5.814-.132-8.712.009-2.965.116-5.983-.031-8.872.751-9.453 1.258-16.74 14.007-5.931 8.519-.892.846-2.832 2.858-1.178 3.826 1.704.299 3.147-1.216 4.608-1.887-.496.792-1.379 1.491-1.373 2.494.173 1.152 1.625 1.302 2.505.88a.36.36 0 0 0-.042.016c1.327-.459 2.401-1.382 3.546-2.16-.891 1.204-2.067 4.01.505 3.799l.009-.009Zm40.651-68.742-.055-.541.055.533v-.006l.001.014h-.001Zm-3.628-55.865c3.251 4.371-2.48 4.291-2.28 5.956.07 4.2.43 8.382.665 12.574.372 3.705.082 7.835 1.777 11.195-1.246 1.687-2.867 3.059-4.04 4.796-3.151 5.002-5.858 10.289-9.368 15.055-1.045-2.982-2.49-5.802-3.852-8.647-1.393-3.553-3.093-6.931-4.932-10.27.449-.675-.146-1.683-.122-2.47-.369-3.694-.837-7.405-.902-11.116l-.003.086c.102-.618-.26-1.338-.976-1.149-10.704 1.02-8.459-.896-11.234-9.92l.017.08c-.012-.056-.027-.114-.038-.17 2.533.428 5.733.053 7.224-2.299-.057 1.29-.451 2.55-.484 3.828.846 1.699 3.353.347 4.375-.568a1.86 1.86 0 0 0-.048.039c.66-.295 1.004-1.191.206-1.552-.823-.387-2.284 2.917-3.923 2.02.158-1.093.462-2.16.568-3.266a.835.835 0 0 0-.01.055c.135-.753.226-1.513.329-2.271 0 0-.001-.006.002-.01v-.005s-.001-.008.002-.013l.004-.024-.002.016c.199-1.146.381-2.312.805-3.402.265-.069.532-.155.807-.165.085 5.313 5.18 9.511 10.4 8.66-.01.001-.019.004-.029.006.021-.002.041-.008.062-.01l.023-.003h-.004c3.633-.956 5.694-4.838 6.236-8.33.623.107 1.252.187 1.878.275-.031-.004-.06-.01-.091-.013 1.689.272 3.388.491 5.083.71.046.075.158.111.231.053.024-.002.049-.004.073-.003a.15.15 0 0 1-.027 0c.46.007.92.034 1.378.056.074.07.149.144.222.22l-.002-.004Zm-17.566-5.393c2.553-.308 5.044-.043 7.585.19.141 4.461-1.647 11.008-7.011 11.152-5.15-.171-8.5-5.068-7.369-9.97 2.165-.86 4.48-1.222 6.794-1.372h.001Zm-10.32 3.432c.057.233.153.467.355.605.208 4.823-3.589 6.9-7.973 6.274-.329-2.054-.753-4.091-.945-6.167.133-.195.093-.47-.054-.647a75.865 75.865 0 0 0-.147-1.649c2.812-.098 5.662-.102 8.465.125.024.116.049.23.075.346l-.017-.07.081.346a1.746 1.746 0 0 0-.024-.099c.071.31.107.628.182.938l.002-.002Zm-11.49 1.44c.657.174 1.323.31 1.996.407.209 1.64.609 3.246.845 4.882-.574-.134-1.085-.428-1.574-.747l.052.034c-.396-.217-.672-.566-.915-.938-.749-1.101-.628-2.504-.871-3.764.156.038.312.086.467.127v-.002Zm26.949-8.806c1.944-.017 3.346 1.596 5.214 1.947 2.377.48 3.171 2.96 4.076 4.91-1.793-.399-3.541-1.011-5.374-1.24-.078-.879.585-2.507-.781-2.598-.91-.567-2.028-.512-3.06-.475h.035c-3.345-.02-6.959.077-10.167.854-2.598.735-3.345.726-3.011 3.724-.417-.133-.854-.138-1.28-.229-.065-2.382-1.005-2.515-3.13-2.435-2.269-.006-4.541-.093-6.81-.104.039-.4.054-.805.071-1.207 2.853-3.527 8.07-2.257 9.289-6.774 2.041 1.39 4.425 2.203 6.786 2.872l-.086-.026c2.65.923 5.455 1.258 8.228.776v.005Zm-14.649 8.12c-.001-.017-.006-.034-.009-.052l.035-.003a1.416 1.416 0 0 1-.026.057v-.002Zm-10.613-2.058c.026.37.055.739.086 1.107-.759.037-1.606-.297-2.321-.115a21.657 21.657 0 0 1-.034-.806c.756-.09 1.505-.228 2.257-.345.005.053.008.107.01.159h.002Z" fill="#221200"/><path d="M227.936 100.102c.172-.019.17-.217.151-.348-.145-1.742-.166-3.492-.331-5.232l.001.016c-.003-.035-.006-.072-.011-.106l.003.036a4.741 4.741 0 0 0-.01-.11l.004.052c-.184-.545.093-1.677-.614-1.815-.67.104.207 2.57.094 3.229v-.008c.055.547.113 1.095.17 1.644l-.001-.02v.007l-.001-.017.003.042-.001-.02.006.079v-.008c.005.065.014.13.019.195v-.005l.002.024-.001-.006a.216.216 0 0 1 .002.025v-.005c.167.59.001 2.071.512 2.353l.003-.002ZM213.402 131.401c4.365-.617 8.765-.861 13.127-1.455h-.003l.013-.001h-.002c.352-.01 1.065-.232.463-.549v-.002c-3.622.29-7.274-.082-10.868.6-.752.278-3.476-.173-3.328.89.045.277.299.551.598.518v-.001ZM169.959 103.602c.961-.509-.546-2.367-.455-3.257l.002.025c-.245-3.258.438-6.576 1.849-9.515.894-2.066.497-4.326.181-6.473-.077-.27-.024-1.232-.479-.907-.018 1.223.121 2.485.084 3.723-.001-.013.001-.026.001-.038.003 1.563-.513 3.031-1.283 4.374-.638 1.987-1.331 4.027-1.401 6.13-.006 1.363-.146 2.785.36 4.082.337.582.255 1.908 1.14 1.858l.001-.002ZM208.058 79.088c1.51-.685-1.85-1.72-2.284-2.203-1.052-.736-2.142-1.403-3.304-1.95-.509-.175-1.275-1.149-1.69-.402-.172 1.104 2.182 1.57 2.929 2.135 1.292.771 2.576 1.546 3.948 2.17.077.15.228.267.402.25h-.001ZM187.492 77.453c1.867-.913 3.8-1.693 5.696-2.544.4.132.518-.575.123-.649-.574.093-1.122.41-1.683.586-1.492.763-3.318 1.045-4.642 2.047-.122.296.188.701.506.56ZM198.45 130.443c-.135-6.943-.269-13.904-1.148-20.801l.001.008-.004-.04.001.008c-.971-8.587-.722-17.227-1.163-25.844-.092-2.559.102-5.117.107-7.674-.973-1.484-.519 2.566-.637 2.983-.001-.014.001-.029.001-.043l-.029 1.025c-.001-.014.001-.028.001-.043.241 10.808.12 21.664 1.56 32.4l-.001-.014.003.038v-.005c.526 4.931.704 9.887.848 14.841.103.358-.27 4.313.46 3.159v.002ZM149.636 110.236c.33-.67.942-2.14-.058-2.468-.579.139-.008.776-.224 1.147-.103.471-.769 1.109-.201 1.494a.337.337 0 0 0 .482-.171l.001-.002ZM153.582 113.528c.431-.369-1.343-1.782-1.553-1.239-.222.567.624.746.914 1.092.164.171.435.396.639.146v.001ZM235.631 92.615c.165-.245.996-.676.368-.849-.283.111-.922.438-.684.807.073.091.227.138.318.042h-.002ZM228.001 51.409c.34-.986-2.199-2.065-2.901-2.588-3.094-1.991-4.08-3.034-4.441-6.79-.489-4.492-4.996-3.878-5.933-7.863l.008.04c-.153-.698-.316-1.4-.575-2.067a.251.251 0 0 0 .014.035c-.023-.057-.043-.116-.066-.173l.013.036c-.771-2.19-1.955-.713-.989-.731.034.008.064.03.093.048l.01.007-.006-.004.02.017c-.014-.012-.026-.022-.042-.03.549.541.657 1.396.877 2.108 0-.008-.003-.014-.005-.022l.008.038c0-.003 0-.006-.002-.01.265 1.75 1.109 3.532 2.66 4.48l-.015-.009.15.096-.007-.004.079.051-.038-.025c4.815 2.124 1.354 7.937 5.914 10.3 1.37 1.122 3.105 1.652 4.47 2.767.201.154.429.52.701.296l.003-.003ZM223.29 55.257c.488-.272.045-.856.013-1.262l.015.07c-.819-4.41-6.591-4.756-6.904-9.532-.254-1.406-.681-2.779-1.792-3.746-.088-.1-.239-.148-.346-.046-.262.34.282.615.454.862.983 1.02.874 2.541 1.221 3.829l-.013-.053.057.24-.001-.007c.284 4.123 5.621 4.785 6.47 8.573.124.416.209 1.262.826 1.072ZM229.669 60.399c.771-.23-.234-1.942-.256-2.543-.282-1.089-.6-2.26-1.516-2.994a.51.51 0 0 0-.017-.015l.005.005c-.266-.14-.723-.753-.989-.413-.074.199.118.312.268.389 2.219 1.058 1.257 5.032 2.503 5.568l.002.003ZM235.457 58.567c-.089-1.97-.719-3.973-2.355-5.196-.119-.11-.307-.129-.414.01-.215.708.99 1.011 1.254 1.613v-.003c.703 1.028.764 2.319.805 3.525-.011.468.724.581.712.05h-.002ZM244.804 75.154c.883-.324-.164-1.729-.386-2.29-1.32-2.269-3.833-3.118-5.837-4.584l.043.037-.098-.083.009.006-.103-.088.013.012a2.041 2.041 0 0 0-.048-.04l.043.034c-.702-.56-1.003-1.43-1.325-2.238v.004a.247.247 0 0 0-.016-.04.091.091 0 0 1 .008.022c-.366-.509-.3-2.294-.823-2.354-.37.604.491 2.934.746 3.7 1.33 3.196 5.922 3.373 7.057 6.807.19.381.143 1.103.715 1.094l.002.001ZM249.213 83.257c.12-.658-.91-3.886-1.736-3.468-.146.138-.117.367-.008.516.539.793.935 1.746.971 2.712l.002-.06c-.163.533.658.956.771.3ZM184.136 50.894c.023-1.339-.602-2.625-1.184-3.803-.518-.925-1.593-1.558-1.617-2.716-.053-.272-.035-.727-.417-.717-.175.015-.266.193-.239.355.003 1.661 1.463 2.616 1.989 4.068.3.844.631 1.712.603 2.62-.078.551.783.84.866.195l-.001-.002ZM179.932 53.912c1.271-1.645 1.18-3.667.463-5.533-.215-.988-1.128-1.007-.767-.215l-.009-.01c.63 1.298 1.071 3.122.102 4.355l.031-.047-.106.162c.003-.004.004-.009.007-.012-.161.245-.324.49-.482.74-.287.456.44 1.088.76.56h.001ZM176.754 55.402l.029-.095-.012.035.013-.041c0 .003-.003.006-.004.01.004-.012.008-.023.01-.035l-.001.005c.012-.04.023-.078.038-.116.298-.234-.188-.648-.373-.3-.37.284-.057.998.299.537h.001ZM183.064 54.612c-.037-.382.155-1.105-.322-1.237-.51.075-.112.774-.237 1.113-.056.356.511.538.557.124h.002ZM200.501 12.872c-.058-1.38-3.308-2.605-4.506-2.935-.538-.036-1.325-.928-1.714-.327-.11 1.292 3.703 1.214 4.601 2.174l-.032-.022c.411.274.843.528 1.203.87l-.023-.025c.025.027.051.052.069.082-.036.212.281.404.403.183h-.001ZM196.999 13.148c.297-.593-2.604-1.612-3.128-1.934-.208-.12-.522-.18-.593.123-.22.593 2.591 1.187 3.136 1.587a.292.292 0 0 0-.026-.013c.209.047.401.374.611.235v.002ZM192.836 13.405c-.364-.578-1.375-.733-1.935-1.187a.257.257 0 0 0-.371.131c-.096.604.855.634 1.227.92.305.063.988.684 1.079.136ZM177.852 12.391c.373-.377 1.119-.69 1.107-1.284-.047-.23-.404-.242-.405.018-.257.433-1.292.562-1.076 1.157.069.125.251.201.375.11h-.001ZM179.764 14.098c.357-.316 1.014-1.212.268-1.441-.371.016-.342.64-.748.846-.317.286.138.903.479.595h.001Z" fill="#fff"/></svg>