<svg width="200" height="200" viewBox="0 0 200 200" fill="none" xmlns="http://www.w3.org/2000/svg">
<g id="Frame 1321314812">
<g id="Group">
<g id="Group_2">
<g id="Group_3">
<g id="Group_4">
<g id="Group_5">
<path id="Vector" d="M79.5244 48.4775H120.22" stroke="white" stroke-width="2" stroke-miterlimit="10" stroke-linecap="round" stroke-linejoin="round"/>
<path id="Vector_2" d="M99.8721 49.085V96.11" stroke="white" stroke-width="2" stroke-miterlimit="10" stroke-linecap="round" stroke-linejoin="round"/>
<path id="Vector_3" d="M115.513 96.4033H84.2314V101.196H115.513V96.4033Z" stroke="white" stroke-width="2" stroke-miterlimit="10" stroke-linecap="round" stroke-linejoin="round"/>
<g id="Group_6">
<g id="Group_7">
<path id="Vector_4" d="M131.374 70.8525C131.374 76.9338 126.443 81.8626 120.364 81.8626C114.284 81.8626 109.354 76.9324 109.354 70.8525H131.374Z" stroke="white" stroke-width="2" stroke-miterlimit="10" stroke-linecap="round" stroke-linejoin="round"/>
<path id="Vector_5" d="M109.352 70.8508L120.075 49.1807L131.374 70.8508" stroke="white" stroke-width="2" stroke-miterlimit="10" stroke-linecap="round" stroke-linejoin="round"/>
</g>
<path id="Vector_6" d="M121.555 48.4786C121.555 47.6617 120.892 46.999 120.075 46.999C119.258 46.999 118.596 47.6617 118.596 48.4786C118.596 49.2956 119.258 49.9582 120.075 49.9582C120.892 49.9582 121.555 49.2956 121.555 48.4786Z" fill="#FEFDF8" stroke="white" stroke-width="2" stroke-miterlimit="10" stroke-linecap="round" stroke-linejoin="round"/>
</g>
<g id="Group_8">
<g id="Group_9">
<path id="Vector_7" d="M90.3921 70.8525C90.3921 76.9338 85.462 81.8626 79.3821 81.8626C73.3008 81.8626 68.3721 76.9324 68.3721 70.8525H90.3921Z" stroke="white" stroke-width="2" stroke-miterlimit="10" stroke-linecap="round" stroke-linejoin="round"/>
<path id="Vector_8" d="M68.3706 70.8508L79.0936 49.1807L90.3921 70.8508" stroke="white" stroke-width="2" stroke-miterlimit="10" stroke-linecap="round" stroke-linejoin="round"/>
</g>
<path id="Vector_9" d="M80.573 48.4786C80.573 47.6617 79.9103 46.999 79.0934 46.999C78.2765 46.999 77.6138 47.6617 77.6138 48.4786C77.6138 49.2956 78.2765 49.9582 79.0934 49.9582C79.9103 49.9582 80.573 49.2956 80.573 48.4786Z" fill="#FEFDF8" stroke="white" stroke-width="2" stroke-miterlimit="10" stroke-linecap="round" stroke-linejoin="round"/>
</g>
</g>
<g id="Group_10">
<g id="Group_11">
<path id="Vector_10" d="M56.9746 145.194V129.099C44.5706 123.184 36 110.527 36 95.8691C36 83.648 41.9584 72.8179 51.1289 66.1254C51.1289 66.1254 54.0068 64.9714 55.5121 67.1451C57.0174 69.3188 55.0965 72.0096 55.0965 72.0096C50.1421 76.0899 46.9815 82.2712 46.9815 89.1909C46.9815 97.2402 51.2575 104.291 57.6616 108.196" stroke="white" stroke-width="2" stroke-miterlimit="10" stroke-linecap="round" stroke-linejoin="round"/>
<path id="Vector_11" d="M79.1406 145.193V131.569C82.0598 129.447 83.9565 126.005 83.9565 122.119C83.9565 118.27 82.0941 114.856 79.222 112.728C77.581 111.247 72.865 109.506 72.865 109.506C65.2498 106.991 59.21 101.016 56.6092 93.4405C56.6092 93.4405 55.5566 89.6515 51.8333 90.1028C47.6929 90.6041 48.1814 96.4069 48.1814 96.4069" stroke="white" stroke-width="2" stroke-miterlimit="10" stroke-linecap="round" stroke-linejoin="round"/>
</g>
<g id="Group_12">
<path id="Vector_12" d="M142.766 145.194V129.099C155.17 123.184 163.741 110.527 163.741 95.8691C163.741 83.648 157.782 72.8179 148.612 66.1254C148.612 66.1254 145.734 64.9714 144.229 67.1451C142.723 69.3188 144.644 72.0096 144.644 72.0096C149.599 76.0899 152.759 82.2712 152.759 89.1909C152.759 97.2402 148.483 104.291 142.079 108.196" stroke="white" stroke-width="2" stroke-miterlimit="10" stroke-linecap="round" stroke-linejoin="round"/>
<path id="Vector_13" d="M120.602 145.193V131.569C117.682 129.447 115.786 126.005 115.786 122.119C115.786 118.27 117.648 114.856 120.52 112.728C122.161 111.247 126.879 109.506 126.879 109.506C134.494 106.991 140.534 101.016 143.134 93.4405C143.134 93.4405 144.187 89.6515 147.91 90.1028C152.051 90.6041 151.562 96.4069 151.562 96.4069" stroke="white" stroke-width="2" stroke-miterlimit="10" stroke-linecap="round" stroke-linejoin="round"/>
</g>
</g>
</g>
</g>
</g>
</g>
</g>
</svg>
