<svg width="519" height="270" fill="none" xmlns="http://www.w3.org/2000/svg"><path d="M480.979 177.288c3.277-27.055 1.868-57.376-20.334-86.05-16.955-21.899-57.79-47.708-96.456-57.14-48.908-11.93-94.658 6.338-142.071 9.562-42.386 2.882-86.062-8.026-127.507-2.297-29.69 4.104-54.354 16.584-69.488 31.656C9.981 88.09 3.554 105.572 1.456 122.935c-4.052 33.558 7.979 67.676 33.617 98.08 12.814 15.196 30.909 27.167 46.977 40.958 16.376 14.05 279.377 6.898 322.658-.615 55.129-9.585 72.432-52.373 76.271-84.07Z" fill="#172B3C"/><path d="M247.561 214.624c46.671 0 84.505-37.834 84.505-84.505 0-46.671-37.834-84.506-84.505-84.506-46.671 0-84.505 37.835-84.505 84.506s37.834 84.505 84.505 84.505Z" fill="#1A6652"/><path d="M264.558 189.285c-41.721 0-75.543-33.822-75.543-75.543 0-28.117 15.365-52.646 38.15-65.652-36.82 9.122-64.115 42.382-64.115 82.022 0 46.675 37.836 84.505 84.505 84.505 38.546 0 71.062-25.811 81.218-61.094-13.325 21.461-37.097 35.75-64.215 35.75v.012Z" fill="#19614F"/><path d="M265.113 68.34c-3.364-1.047-5.8-1.372-7.774-2.484-1.975-1.111-3.943-1.933-5.451-1.868-1.507.065-4.641-.756-6.497 0-1.857.757-3.819 4.582-6.669 5.28-2.843.697-9.991-.81-11.983-2.087-1.999-1.277-2.56-3.825-1.987-5.102.574-1.277.804-3.553.692-4.387-.118-.834 2.897-2.471 3.943-3.565 1.041-1.094 2.034-4.664-.437-6.45a84.044 84.044 0 0 0-32.108 14.851c0 .006.077.834.769 1.992.697 1.16-.42 1.857-.385 2.206.036.348.656.307.113.963-.544.656.011.544-.497 1.005-.508.461-.97.928-1.318 1.159-.349.23-.231.928-.929 1.738-.697.81-1.974 1.508-1.974 2.785 0 1.276-1.975 3.015-2.205 3.712-.231.698-2.205 3.364-2.318 5.102-.118 1.738-.118 3.595 0 4.641.118 1.047.172 2.205-.088 3.482-.261 1.277-.491 2.436-.609 4.754-.119 2.317.81 3.363 3.015 4.061s6.373 2.666 7.419 4.174c1.047 1.507 1.626 3.364 2.442 3.594.81.231 1.507 2.667 4.174 4.523 2.666 1.856 7.656 2.093 9.861 4.469 2.205 2.377 6.261 8.165 7.307 11.363 1.046 3.193 2.784 4.369 4.641 5.93 1.856 1.555 4.174 3.299 5.918 3.411 1.738.118 2.447-.615 2.382-1.236-.065-.62-2.27-2.477-2.619-2.938-.349-.461-1.046-3.594-2.087-5.799-1.046-2.206-1.158-2.294-.81-3.353.349-1.058 1.047-3.375 2.087-3.955 1.047-.579 1.857-.159 2.554-1.182.698-1.023.94-1.602.875-2.241-.065-.638-1.111-1.034-2.152-1.129-1.046-.089-1.389-1.017-2.784-1.253-1.39-.231-3.364-.81-3.825-1.626-.461-.81-1.508-1.046-2.205-.928-.698.118-2.785.461-4.174-.928-1.39-1.39-1.508-4.062-1.738-5.451-.231-1.389-.462-1.856-.119-2.897.349-1.046.349-1.862 1.975-2.613 1.626-.75 4.292-1.336 5.918 0 1.626 1.336 4.871.296 5.569-.52.697-.81 2.666-3.246 4.292-3.364 1.626-.118 4.292 0 5.338-.928 1.047-.928 4.99-2.885 5.682-4.458.697-1.573 3.364-6.137 3.364-7.626 0-1.49 4.871-4.387 6.26-3.926 1.39.461 3.246-1.738 3.944-1.738.697 0 2.784.349 3.943-1.046 1.159-1.39 2.087-2.33 3.015-3.66.928-1.33 1.626-3.417-1.738-4.463l-.012.005ZM257.884 177.68s-3.913-2.447-7.236-3.848c-3.322-1.402-5.77-6.35-6.645-7.373-.875-1.022-1.572-9.944 0-11.516 1.573-1.573 3.157-4.198 4.464-6.296 1.306-2.099 1.832-3.5 1.306-4.375s-.526-5.841 0-6.681c.526-.839 3.145-2.412 4.375-2.24 1.224.177 5.072-.899 6.645-.012 1.573.887 7.52 4.032 10.145 4.209 2.625.178 5.244 2.454 7.343 1.224 2.098-1.23 5.178.177 6.964 2.796 1.785 2.625 3.884 5.292 6.852 7.018 2.974 1.726 2.713 3.299 4.416 3.647 1.703.349 5.51 1.39 7.567 2.797 2.058 1.407 1.384 3.145-.319 5.244-1.703 2.098-3.819 5.421-5.208 7.52-1.39 2.098-.881 5.244 0 6.119s.183 4.546-1.041 5.598c-1.224 1.047-3.849 2.796-4.895 4.724-1.046 1.921-.946 3.352-3.358 4.209-2.412.863-7.833 3.311-11.156 4.097-3.322.786-6.119.976-8.395 2.891s-2.595 7.13-4.735 8.023c-2.14.892-8.561 4.912-11.008 4.652-2.448-.26-2.448-.751-1.047-2.518 1.396-1.768 4.937-4.878 6.929-7.715 1.992-2.838-.632-5.575 1.118-6.722 1.749-1.147 2.057-4.558 2.601-5.563s.402-6.592-5.688-9.927l.006.018ZM308.129 99.49c.349.715 2.217 1.531 3.612 2.228 1.401.698 2.714-.378 3.281-2.229.568-1.85 3.015-2.199 4.298-1.501 1.283.697 2.684 1.046 3.612.816.923-.23 2.708-.917 2.755-.934-5.338-12.924-13.786-24.234-24.41-32.995 0 0-.958 1.407-2.477 2.802-1.514 1.395-1.892 2.442-2.288 3.258-.396.816-1.561 4.316-1.094 5.829.467 1.513.272 2.566 2.004 3.849 1.733 1.282 3.27 1.72 2.501 4.067-.768 2.347-.189 4.854-1.005 6.107-.816 1.253-.91 3.7 1.005 5.333 1.91 1.631 4.363 1.282 4.943 1.4.585.119 2.914 1.254 3.263 1.97ZM250.646 119.123s0 1.602-1.165 2.654c-1.165 1.053-2.329 2.915-1.165 3.146 1.165.23 3.613.579 4.198.928.585.354 3.612 1.986 4.428 1.401.816-.585 1.401-1.981 2.217-2.099.816-.118 1.046-2.181 1.75-2.843.697-.657 3.145-2.992 3.381-4.854.231-1.868.468-4.665 0-5.362-.467-.698-3.73-1.165-4.079-2.099-.349-.934-2.43-1.632-4.014-.698-1.584.934-2.282 3.033-2.518 4.547-.231 1.513-3.146 2.625-3.033 5.273v.006ZM266.078 121.64s-1.377 1.248-2.341 2.619c-.963 1.372 1.65.686 2.341.822.686.136.828 1.129 2.2.775 1.377-.361.136.053 1.377-.361 1.236-.414 1.649-.278 2.891-.414 1.236-.136.993-1.034 1.667-1.827.674-.786.704-1.478 0-2.163-.703-.686-1.117 1.377-2.495 0-1.377-1.378-1.33-2.56-2.589-1.969s-.934.798-1.514 1.312c-.579.515-1.537 1.206-1.537 1.206Z" fill="#108F6E"/><path d="M312.645 222.407c1.721-.304 2.879.203 4.867-2.533.238-.575-1.246-1.014.713-1.723l-.594 2.635a20.278 20.278 0 0 0 3.443-2.77c.98-1.115 1.811-2.264 2.315-3.446.891-.743 1.692-1.621 2.523-2.432l-.386 1.216c1.959-1.824 4.274-3.209 4.957-6.013-.149 1.216-.297 3.682 1.425 1.689.296-.743.623-1.452.89-2.229.386-.068.03 1.216 2.018-2.128-1.157.169 1.425-2.939 2.79-2.905-1.009-.44-2.849 1.114-3.68.304 2.73-2.568.059-3.986 2.612-6.25l.475 1.115a14.833 14.833 0 0 0 1.988-3.175c.238-.507.445-1.014.624-1.52l.267-.744.118-.371.06-.169c.119-.203.148-.304.208-.405.059.202 0 .641.118.777.891-1.149 1.187-1.385 1.544-1.858.356-.44.682-.879 1.009-1.284.653-.845 1.157-1.655 1.721-2.432 1.099-1.487 2.137-2.77 3.77-3.615.356-.878.653-1.79.979-2.668-.029.946.327.844 1.187 0 1.306-1.622 1.811-5.27.832-4.628 4.6-4.966 3.769-8.074 7.36-14.796.891.878 1.603-2.668 1.989-.912l.386-2.5c-.089.372.267.203.445.102.623-.642.445-1.216.238-1.757l.089.27 1.395-3.074-.832-.54c.535-.608 1.039-1.25 1.574-1.892.623 2.027-1.425 5.101-.564 6.317.504-.912 3.324-4.189 2.819-8.006.861-2.06 1.751-4.121 2.523-6.215.623-.068.089.304.95-1.723.772-1.621.178-1.959.831-4.223-.059.777-.089 1.149.03 1.419.593-1.317.564-2.263.386-3.108-.089-.405-.179-.844-.297-1.249-.149-.271-.267-.507-.327-.777-.178.371-.178 2.195-.237 3.276-.327.237-.297-.135-.445 0l-.297 3.446c-.445-.405.237-.507-.713 1.216.505-2.162.683-2.669 1.039-5.101-.534-1.419-1.454 1.115-1.662-.54l.356-2.128c0-.237.089-.406.06-.608-.119-1.014-.238-1.993-.327-2.939-.297-2.77-.475-5.439-.623-8.006-.297-5.135-.386-9.864-.534-14.593l-.06-1.757c0-.608-.059-1.25 0-1.385 0-.27.06-.574-.059-.844-.089-.304-.119-.439-.356-1.081-.772-2.128-1.662-4.223-2.642-6.35a60.942 60.942 0 0 0-8.103-12.77c-.356-2.634-2.76-8.816-4.571-10.438l.179.879c-2.286-2.331-1.336-4.493-3.651-5.777l-2.523-1.114c-.505-1.352-2.464-4.088-1.603-3.986-1.751-1.217-3.562-5.405-5.164-4.29-2.82-3.818-4.215-6.25-7.302-9.391.267.135.445 0 .445 0-.237-1.216-2.196-.642-2.374-2.297.683.135 3.206 2.702 1.573.1-2.345-.54-5.758-5.978-6.114-7.194-.95-.642-1.9-1.25-2.909-1.419-1.039-1.284-2.018-3.85 0-2.365-3.888-2.803-3.176-4.256-4.927-3.107-4.957-2.432-6.648-6.756-11.754-8.108-6.292-5.472-13.297-9.796-18.164-15.032l-.653.338c1.662-.878-3.681-4.763-1.098-4.662-2.612-.135-5.818-2.432-7.45-3.783L279.076 0c3.235 2.736 1.187.067 5.372 2.702-.475-.101-.801-.338-.831.067 2.434.913 6.886 3.514 9.26 4.662l-.86.405c3.383 2.433 5.995.946 9.765 2.703 2.166 2.736-.861.338-1.099 2.263 3.77 2.466 5.224-3.108 7.183 1.993l-.95-.405c4.452 3.48-2.374-.608.416 2.736 7.272 5.033-.95-4.391 5.906-.507-1.157.71.149 2.06 1.277 3.851 1.78-.54 7.004 2.736 9.794 3.243-.623.203.564 1.926 2.553 3.615-1.751-.338-2.345-1.385-4.63-3.581-.594.203-1.93.372-1.217 1.689 3.146-.372 9.498 6.452 12.466 6.148-1.336-.44.653 2.364.089 2.837 1.543.237 3.294 2.129 4.036 2.568l-1.306-2.027c2.494 3.682 7.48 6.317 10.893 10.168l-.356.236c2.553 2.601 5.372 4.02 7.658 7.634-1.603-1.148-1.366 1.217-1.306 2.196-.594 1.723-5.966-3.986-3.918.338 2.671 2.128 5.224 2.027 7.717 6.486 1.573.506-.238-2.973-.95-3.953 2.582 2.703 4.868 8.378 6.827 9.121-.861-1.284-1.01-1.892-.624-2.094-.178.067 4.72 2.6 5.105 4.425-1.098-.304-.326.405-1.632-.203.712 2.196 1.781 3.074 2.849 4.256-1.424.845-2.819-4.661-4.333-2.972 3.502 7.127 5.906 7.398 9.884 12.971 1.217 2.905 2.315 4.797 3.146 7.871-.238-.338-.623-1.25-.713-.777.327 1.622.653 2.669.921 3.412.296.777.504 1.08.949 1.96.327.742.861 1.384 1.01 2.465.059.98.148 2.973-.119 3.918 1.721 2.568 2.256 8.986 2.404 13.04-.267-.473-.831-.541-1.098-1.149.653 3.919 1.573 7.567 2.285 11.215l.475 2.736.267 2.027c.089.844.267 1.689.238 2.533l-.564 2.466-.267 1.149-.208.709a26.733 26.733 0 0 1-.98 2.838l-.118-.27c-1.188 4.898-2.108 9.357-4.245 14.491.416-1.351.178-1.959-.089-2.128-3.116 6.486-3.383 12.668-7.331 19.424-1.543 1.452-3.176 5.844-4.126 4.222-2.908 5.54 2.731-1.081-.296 4.121l.326-.473c-2.909 7.5-7.776 12.263-11.338 18.782-.712.473-1.603 1.047-2.582 1.824-.208.169-.564.507-.683.541-.089.067-.089 0-.208.101l-.385.372c-.505.54-1.01 1.148-1.514 1.824-.06 1.587-1.098 3.783-2.018 5.877-1.158 1.183-2.286 2.433-3.889 4.29 2.612-1.756-.771 2.027-1.157 3.074.356-1.993-1.217-.439.326-3.546-4.719 4.29-.534 5.168-5.55 9.694l-1.632-.135c1.068-.743 1.543-2.026 2.344-3.107-.979.81-4.185 3.276-5.105 5.539-.297 1.318 4.245-2.905.891 1.521-.891-1.858-2.553 3.04-5.491 3.074.089.912-1.277 3.175-3.146 4.391-.416 0-.149-.304-.09-.642-3.413 2.297-.207 2.196-3.235 4.56-.831-.067 1.009-2.803-.831-1.993-2.968.946-1.276 1.757-4.422 3.243 1.098-.169.771 2.095-.98 3.345-.653-.811-1.246-2.129 1.425-4.223-1.781.439-4.66 1.284-2.671-1.115-2.909 3.581-8.044 6.385-11.784 9.594-.771-.27-2.137.169-3.828.777-1.87 1.554-2.434 4.391-4.423 4.425-.801.98.802.743 1.039 1.182l-3.116 1.622c-2.167 0 2.137-2.432.653-2.804-1.069.169-2.108.338-3.176.405-2.583 1.352-.06 2.095.92 2.601-3.087-.304-3.503 1.993-5.669 1.757 4.214-1.453-2.582-1.824 2.849-3.311l-2.315.102c-.386-.946 2.909-1.892 3.176-2.77-3.473.473-4.096 1.892-7.391 2.229.624-1.722 3.978-.641 5.254-2.77-4.155 0-6.678 1.791-8.073.575 1.87-.912 4.986.033 5.609-1.689-1.068-.676-2.166-2.466-5.817-1.014-1.158 1.014 1.187 1.183 2.909.879l.148-.609.386.98c-1.781 0-4.393 1.25-6.263 1.419a2.265 2.265 0 0 0-1.246-.27c0 .101.089.202.207.304a1.112 1.112 0 0 1-.623-.271c-2.107.338-4.749 2.027-6.737 1.352l3.621-.912c-.297-1.115-2.79-1.115-5.551-1.554-2.374.101-7.509.202-6.648 1.756l1.84-.304c-.831 2.162-4.571-1.013-4.037 1.385.564.27 1.217.034 1.959-.067-1.602.675-1.306 2.06 1.395 2.432l1.93-1.757c2.433 1.351 3.977-.81 6.886-.135-.09.507.474.743-.179 1.047-2.611-.101-6.084.271-7.628 1.183 3.206-.169-.029 1.351 1.663 1.418-4.838.237-1.959 2.399-7.243 2.5l1.989-1.554c-4.63-.304-4.689 1.892-6.619 2.871-1.751-.236-4.007-2.33-6.886-1.722-3.769-1.385-3.027 1.081-6.144 1.148.594-1.351 3.621-1.587 5.462-1.79a1.865 1.865 0 0 0-.624-.101c.178 0 .386-.068.446-.203-2.434-1.047-8.281 1.486-5.907-1.014 5.076.946 9.171-1.216 14.188-2.161 1.751.337 3.561-.068 4.659.472.535-1.216.683-2.398-1.009-3.378-3.027 1.25-2.137 2.298-6.114 2.568-2.671-.304-6.203.236-8.756.405l.505 1.149c-3.295.506-9.706-.406-9.557.979.504-.642-.861-1.182-2.316-1.114l1.959-.71c-.771-1.047-5.52-1.79-3.918-2.533-4.659-.575-4.57.608-9.082-.777-3.532-1.014-5.699 3.04-11.753.675-.802-1.655 4.689 0 2.315-2.094-5.847-1.689-7.361-1.013-10.092-.237 1.692 1.081-.089 1.183-.267 1.96-.801-.439-1.632-.811-2.434-1.25.861-.946 1.247.811 2.879 0-1.306-.98-2.137-1.486-4.422-2.331l1.306-.507c-1.603-.946-4.037-.608-3.948-2.094-1.276.169-2.523.27-3.829.372-2.849-2.297-4.096-1.284-6.648-1.892l1.989 1.588-2.701-1.689c-2.167-.271 1.335 2.06-2.019.81 2.79-.54-2.79-2.398-1.899-4.053 1.454.81 4.155 2.263 3.977 1.013-1.098-.507-2.671-2.331-3.888-3.952.148.405-2.226-1.149-2.464-.811l.386 5.033c-1.751.135-2.196-5.236-3.947-6.046 3.146 1.081-.386-.71.623-1.318-3.799-1.182-8.34-1.858-11.872-4.29l1.395-.169c-2.79-.743-1.425-1.79-4.898-2.803-1.395-.237 2.464 1.756 0 1.114-6.144-4.053-12.258-8.918-17.749-14.728-5.521-5.742-10.18-12.6-13.712-19.592.742-.237.267-1.858-.446-3.716-.712-1.892-1.454-4.155-1.751-5.472-1.039-1.216-1.157.371-.208 1.756-1.929-2.702-2.196-4.256-3.205-7.431.772-1.588-.03-4.257-1.009-6.452.771.81 1.365-.744 1.692 3.749.059-1.216 3.175 4.898 1.958-1.148-3.116-5.135-5.194-11.249-5.995-18.208-.089-3.952-.89-5.742-.267-7.702l.593 1.014c.149-2.095-.593-2.432-1.098-3.04-.059-3.311 1.425-1.554 1.989-.575-.594-7.533-2.493-9.593-1.692-17.802.653-1.689 1.722-.067 2.018-3.749.475-5.912 1.188-11.35 2.553-16.721 1.365-5.338 3.443-10.675 6.619-15.776l2.315-2.026v-3.615c6.975-8.952 12.703-16.485 20.45-24.794-.564 1.047-1.573 1.959-1.573 2.77 1.128-1.487 1.899-3.379 2.701-5.169.861-1.892 2.077-3.817 3.502-4.729-.267-.44.742 1.013.831 1.486.356-.439.712-.878.98-1.25.148-.27.237-.506.326-.743.178-.473.267-.946.297-1.35.059-.812-.089-1.453.119-1.96.742-.068.415.71 1.691.473l.594-.811c.178.743 2.137-.372 2.226-.135-.356.169-.95.338-.95.608 1.069.135 2.345-.845 3.889-1.622.415-.574-.208-.844-1.277-.337 1.87-.98 1.187-.27 2.523-.406.95-.675 1.306-1.148 1.187-1.317-.118-.237-.831-.135-1.899 0-1.098.304-1.455.405-2.167.777-.267.067-.712.304-1.306.574.267-.169.564-.338.861-.507.475-.304.95-.641 1.365-.98.356-.37 1.098-.709 1.009-1.114.119-.743.149-1.317.535-1.96-.802.102-1.573.203-2.316.372l.268-.337c-.742.371-1.128.54-1.366.641h.208c-3.888.54-5.639.845-7.569.913-.563.033-7.093.472-11.16 1.587-2.404 0-4.748.068-7.39 0 3.858-1.554 9.438-1.587 10.922-2.567l-1.484.27c-.534-.405 2.672-.101 2.939-1.283l-2.226-.609c-3.443-.405-1.633 2.905-5.016 1.216 4.541-.878-1.781-.912 1.187-2.229-1.336-.743-2.701.642-4.304 1.824 1.158-.135 2.286-.27 3.235-.203-.801.811-4.778.372-5.52 1.96-.445 0-.802-.068-1.039-.17l-14.633-5.201 12.051-4.392c.237-.067.386-.101.534-.101 1.098-.676 1.87-.473 2.464-.236.326-.203.712-.406 1.216-.676-.534-.743 1.811-2.838 4.274-3.007.594-.067-1.246 1.081-1.276 1.723 4.838.406 8.489.17 13.149.473-1.811-.338-2.701-1.486-3.057-1.79.475-.17.949-.237 1.454-.27.059-.372.95-.642 1.662-.913l-1.009.845c1.187-.101 2.374-.169 2.998-.81.386-.676.623-1.116 2.196-.372-.623.27-.92.608-1.157.98 1.009-.136 1.988-.338 3.086-.811.178.337 1.01 1.182 3.147 1.047l-1.128-1.757c2.077-.067 3.205-.101 4.007-.169.801-.067 1.306-.202 2.641-.169.772.642 1.87.946 3.057 1.487 1.188.54 2.523 1.216 3.592 2.263 2.196 1.96 3.532 4.763 2.73 5.574-.504-1.622-1.335-3.21-2.315-4.56 0 1.25-1.098.81-2.137.709-1.039-.135-1.959.067-1.632.912 1.306.574 2.463 1.655 3.472 3.04-.415-2.534.475-1.925 1.752-.338 1.187 1.656 2.166 4.02 2.849 3.277.594 2.601-.623 4.358.653 7.094-.238 2.026-1.276-1.52-1.425.878.297 1.554 1.217 1.148.95 3.547-.178-.203-.653-.98-.89-.574-.386 2.567.771 1.756 1.009 4.763l.089-.575c1.009 1.42-.534 3.513-.92 4.088l.742 7.465c-.564-1.013-1.069-4.763-1.811-2.466-1.306-2.6 2.018-10.404-.831-10.1-.801 2.06.831 5.236-.564 7.094 1.187.675 1.039 3.952 1.366 6.148l-.416.54c-.356 4.392 2.196.203 1.573 4.932-.415.54-1.217-1.047-1.365 1.79.208.575.386 1.723.89 1.892l.208-.71c.415-.337.505.507.505 1.69 0 1.25-.149 2.972-.238 4.053-.475-1.216-1.187-1.587-1.543.372.267-3.75-2.108-3.108-1.9-6.25.475 1.183 1.158 4.46 1.811 2.534.712-2.432-.505-4.73-.683-8.073l-.267 2.094c-2.018.405-1.009-5.743-2.85-6.824-.059.946 0 1.757-.326 1.723.475-.169.178-3.276.326-4.796l.772 1.587c1.751-4.459-.504-3.682.327-8.377.712.371.86 7.296 1.691 3.547-.949-.068-.059-3.074-.742-3.48l1.455-3.04c-.416-2.702-1.247-5.911-1.87-7.465.801 1.216.89 2.162 1.514 3.648-.564-3.513 1.632-5.675-.297-8.074 0 .71 0 1.453-.089 2.162-.327-3.04-.92-4.053-1.662-5.033-.535-.27-.772.237-.861.912-.089.676-.059 1.487 0 2.331-.119-1.385-.386-3.885-1.217-3.277.148-1.52-1.098-2.195-1.692-1.857-1.039-1.656-.148-1.081.208-1.926-.772-.372-1.989-.98-3.057-.946-1.069 0-1.781.372-1.484 1.149.593.169 2.552-.135 1.514.946-.357-1.52-.98.608-1.9.371.92-.81.386-1.148-.416-1.283-.801-.136-1.959-.068-1.038-.845-2.909.338-3.206 1.588-5.373 2.466l-.237-1.047c-1.098.439-2.256.81-3.443 1.148-.831-1.182.831-2.736-2.375-2.905-2.374 1.69-1.484 3.784-5.461 4.56l.742-1.52c-1.217-.27-4.956.473-4.511 1.453a6.876 6.876 0 0 0 3.472 1.216h-.474c-2.019.777 3.472 1.655-.653 1.858.474-.98-1.01-1.655-2.85-2.027-1.87-.405-4.066-.304-5.283-.371-.505.506-1.217 1.216-1.781 1.993l-1.187-4.46c1.039-.371 2.107-.81 2.523-1.25-.208-.472-2.286-.776-1.395-1.79 5.164 1.352 7.806-2.026 12.911-.439-.148.17-.119.507 1.306.304l.712.507a8.29 8.29 0 0 1 1.306-.304c.445-.068 1.158-.101 1.603 0a84.9 84.9 0 0 1 5.135.135c0 .27 1.039-.169 2.166-.54-.356-.102-.801-.17-1.395-.27l1.425.27c.861-.27 1.722-.44 2.107-.237 1.663-1.08 3.236 1.115 4.512 1.79-.297-.067-.861-.1-1.217-.1 2.612.877 6.144-.136 7.212 2.026l-.059.44c-.356-.305-.801-.508-1.039-.474.386.237.742.44 1.039.608.891.676.861.71.623.338.92.608 1.425.845 2.048 1.182.297.203.624.406 1.01.777.178.203.415.406.623.71.208.304.564.675.356 1.047l.208-.44-.178-.506a8.786 8.786 0 0 0-.386-.946c.623.743 1.128 1.385.89 1.655.089.54.178 1.453.238 2.466-1.395 2.365-3.503 5.27-5.907 7.162-1.039 3.006.356 2.939-4.511 7.668-.178-.406-.386-.811-.594-1.216l-5.699 4.323c.208-.574-.564-.202-1.187.068-.712.372-1.692 1.047-2.671 1.925 0-.033.059-.067.089-.1-2.167 0-3.562 3.512-4.066 4.728-.297.811-1.039 2.635-1.484 2.5.267 1.216-1.395 3.108-2.672 5.1 0 0 .06 0 .089.035-.148.169-.385.371-.653.709.119 0 .297-.034.475-.068-1.602 1.115-.92 3.04-3.176 4.29-2.552 2.534-.682-2.432-3.65.845l-.683 2.162c-.505.304-.326-.068-.297-.405-.95 1.722-2.612 2.263-2.077 3.85 2.404-2.33 3.205-2.567 5.58-5.134-2.167 3.75-1.455 5-3.206 8.073.148.372.505-.304.98-.608-.861 1.69-2.316 2.635-2.286 1.52-.979 1.385-.237 2.534-1.336 4.628l1.425 1.183c-.801 3.074-3.176 5.641-4.482 7.668 1.128-2.5 1.099-5.338 1.989-7.128-1.603-.439-.861-2.398.326-4.493 1.188-2.06 2.85-4.155 2.85-5.1-1.514 1.317.356-2.973-2.078.1-.297 2.602-1.425 2.838-2.552 5-1.425.676-.297-2.668-2.375 1.385 1.247-1.452.327 3.007 1.722-.304-1.633 5.844-2.701 6.621-4.067 12.161 1.484-4.391.653 2.432 2.256.169-1.484-.203 1.781-7.229-.89-2.061.386-1.351.86-2.668 1.335-4.019.772 0-.92 4.357 1.366 1.418-.416 1.791-.802 2.872-1.128 3.919-.356 1.047-.624 2.128-.564 3.884-.683-.979-1.929 2.365-2.82 2.568-.326 1.486.297 3.141-.772 4.526l-.059-2.567c-.623 2.398-1.692 2.263-2.404 4.391-.03 1.487.564 1.791 1.187 1.25-1.009 3.446-.534 7.06-1.425 10.81.505-4.56-1.305-.946-.949-4.696l-.802 2.737c.861 5.573 2.612 13.647 4.69 14.762 1.246 6.215-2.226 4.965.89 12.262-.356-1.048-1.157.946-1.692.473.09 1.283.119 3.546.743 4.898l.504-3.209c1.365 3.378 1.395 8.985 2.315 12.498-.445-.675-.772.777-1.662-1.385-.683.203-.119 2.905.208 4.054 1.395 2.398 2.107.135 3.472 2.871 2.494 7.736 6.263 14.694 11.517 20.505 5.134 5.911 11.575 10.775 18.461 15.234 14.217 8.986 28.909 16.046 44.67 20.944l-.178.642c10.032 1.959 20.687 3.986 31.669 4.932 10.952 1.047 22.231 1.148 33.035-.338l-.267-.439c3.472 1.013 4.363-.102 5.313-1.081.949-1.047 1.958-1.892 5.698-1.183 3.859-3.884 10.834-3.141 15.286-7.634l.801.676c1.395-2.128 3.562-2.635 5.758-3.446 2.256-.675 4.571-1.621 6.174-3.783l.297.27Z" fill="#E9BC38"/><path d="M349.561 29.068V42.16h-1.975V29.07h1.975Zm4.634 7.262v5.83h-1.911V32.34h1.834v1.598h.122c.226-.52.579-.937 1.061-1.253.486-.315 1.097-.473 1.834-.473.669 0 1.255.14 1.758.422.503.277.893.69 1.17 1.24.277.55.415 1.23.415 2.04v6.244h-1.911v-6.015c0-.711-.185-1.267-.556-1.668-.371-.405-.88-.607-1.528-.607-.443 0-.837.096-1.182.287a2.067 2.067 0 0 0-.812.844c-.196.367-.294.81-.294 1.33Zm10.758 0v5.83h-1.911V32.34h1.834v1.598h.122c.225-.52.579-.937 1.061-1.253.485-.315 1.097-.473 1.834-.473.669 0 1.255.14 1.758.422.503.277.893.69 1.17 1.24.277.55.415 1.23.415 2.04v6.244h-1.911v-6.015c0-.711-.185-1.267-.556-1.668-.371-.405-.88-.607-1.528-.607-.443 0-.837.096-1.182.287a2.067 2.067 0 0 0-.812.844c-.196.367-.294.81-.294 1.33Zm12.982 6.027c-.92 0-1.724-.21-2.41-.632a4.273 4.273 0 0 1-1.598-1.771c-.379-.758-.569-1.645-.569-2.66 0-1.017.19-1.908.569-2.67.38-.764.912-1.356 1.598-1.778.686-.422 1.49-.633 2.41-.633.921 0 1.724.211 2.41.633.686.422 1.219 1.014 1.598 1.777.379.763.569 1.654.569 2.672 0 1.014-.19 1.9-.569 2.659a4.266 4.266 0 0 1-1.598 1.77c-.686.423-1.489.633-2.41.633Zm.006-1.604c.597 0 1.091-.158 1.483-.473.392-.315.682-.735.87-1.26a5.003 5.003 0 0 0 .287-1.732c0-.626-.095-1.201-.287-1.725-.188-.529-.478-.953-.87-1.272-.392-.32-.886-.48-1.483-.48-.6 0-1.099.16-1.495.48-.392.32-.684.743-.876 1.272a5.103 5.103 0 0 0-.281 1.725c0 .631.094 1.209.281 1.733.192.524.484.944.876 1.259.396.315.895.473 1.495.473Zm14.769-8.412-3.56 9.818h-2.046l-3.566-9.818h2.052l2.486 7.556h.102l2.48-7.556h2.052Zm4.372 10.036a4.006 4.006 0 0 1-1.687-.346 2.84 2.84 0 0 1-1.195-1.016c-.29-.443-.435-.986-.435-1.63 0-.554.107-1.01.32-1.368.213-.358.5-.641.863-.85a4.506 4.506 0 0 1 1.214-.473c.447-.107.903-.187 1.368-.243l1.432-.166c.366-.047.633-.121.799-.224.166-.102.249-.268.249-.498v-.045c0-.558-.158-.99-.473-1.298-.311-.306-.776-.46-1.393-.46-.644 0-1.151.143-1.522.428-.366.282-.62.595-.76.94l-1.797-.41c.213-.596.525-1.077.934-1.444a3.78 3.78 0 0 1 1.425-.805 5.569 5.569 0 0 1 1.694-.256c.392 0 .808.047 1.246.14.444.09.857.257 1.24.5.388.242.706.59.953 1.041.247.448.371 1.03.371 1.745v6.52h-1.867v-1.342h-.077a2.69 2.69 0 0 1-.556.729 2.948 2.948 0 0 1-.952.594c-.388.158-.852.237-1.394.237Zm.416-1.535c.528 0 .98-.104 1.355-.313.379-.209.667-.481.863-.818.2-.34.3-.705.3-1.093v-1.266c-.068.069-.2.133-.396.192a6.174 6.174 0 0 1-.658.147c-.247.039-.488.075-.723.109-.234.03-.43.055-.588.077a4.75 4.75 0 0 0-1.016.236c-.303.11-.545.27-.729.48-.179.204-.268.477-.268.818 0 .473.175.83.524 1.074.349.238.795.358 1.336.358Zm8.886-4.512v5.83h-1.911V32.34h1.835v1.598h.121a2.81 2.81 0 0 1 1.061-1.253c.486-.315 1.098-.473 1.835-.473.669 0 1.255.14 1.758.422.502.277.892.69 1.169 1.24s.416 1.23.416 2.04v6.244h-1.911v-6.015c0-.711-.186-1.267-.556-1.668-.371-.405-.88-.607-1.528-.607-.443 0-.838.096-1.183.287a2.064 2.064 0 0 0-.811.844c-.196.367-.295.81-.295 1.33Zm13.43-3.989v1.534h-5.363v-1.534h5.363Zm-3.925-2.352h1.912v9.287c0 .371.055.65.166.838a.866.866 0 0 0 .428.377c.179.064.373.096.582.096.153 0 .287-.01.403-.032l.268-.051.345 1.579a3.205 3.205 0 0 1-.473.127c-.204.047-.46.073-.767.077a3.365 3.365 0 0 1-1.406-.268 2.414 2.414 0 0 1-1.055-.87c-.268-.392-.403-.884-.403-1.476v-9.684ZM394.848 134.995v-13.091h4.667c1.014 0 1.855.175 2.524.524.674.35 1.177.833 1.509 1.451.332.614.499 1.324.499 2.129 0 .801-.169 1.506-.505 2.116-.333.605-.836 1.076-1.509 1.412-.669.337-1.511.505-2.525.505h-3.535v-1.7h3.356c.639 0 1.159-.092 1.56-.275.405-.183.701-.449.888-.799.188-.349.282-.769.282-1.259 0-.494-.096-.923-.288-1.285a1.862 1.862 0 0 0-.889-.831c-.4-.196-.926-.294-1.578-.294h-2.48v11.397h-1.976Zm6.463-5.906 3.234 5.906h-2.25l-3.17-5.906h2.186Zm9.094 6.104c-.967 0-1.8-.206-2.499-.62a4.194 4.194 0 0 1-1.611-1.758c-.375-.758-.563-1.647-.563-2.665 0-1.006.188-1.892.563-2.659.379-.767.908-1.366 1.585-1.796.682-.431 1.479-.646 2.391-.646.554 0 1.091.092 1.611.275a3.9 3.9 0 0 1 1.399.863c.414.392.74.901.978 1.528.239.622.358 1.378.358 2.269v.677h-7.804v-1.432h5.931c0-.502-.102-.948-.306-1.335a2.33 2.33 0 0 0-.863-.927c-.367-.226-.797-.339-1.291-.339-.537 0-1.006.132-1.407.396-.396.26-.703.601-.92 1.023-.213.418-.32.871-.32 1.361v1.119c0 .656.115 1.215.345 1.675.235.46.561.812.978 1.054.418.239.906.358 1.464.358.362 0 .693-.051.991-.153a2.053 2.053 0 0 0 1.272-1.246l1.809.326a3.275 3.275 0 0 1-.78 1.399 3.763 3.763 0 0 1-1.4.927c-.558.218-1.195.326-1.911.326Zm-.997-11.326 1.496-2.947h2.013l-1.981 2.947h-1.528Zm14.687 3.707-1.732.307a2.07 2.07 0 0 0-.345-.633 1.712 1.712 0 0 0-.627-.492c-.264-.128-.594-.192-.99-.192-.542 0-.993.121-1.356.364-.362.239-.543.548-.543.927a.98.98 0 0 0 .364.793c.243.2.635.364 1.177.492l1.559.358c.904.209 1.577.53 2.02.965.443.435.665.999.665 1.694 0 .588-.171 1.112-.511 1.572-.337.456-.808.814-1.413 1.074-.601.26-1.298.39-2.09.39-1.1 0-1.997-.234-2.691-.703-.695-.473-1.121-1.144-1.279-2.013l1.848-.282c.115.482.351.846.709 1.093.358.243.825.365 1.4.365.626 0 1.127-.13 1.502-.39.375-.264.563-.586.563-.965 0-.307-.115-.565-.346-.774-.225-.209-.573-.366-1.041-.473l-1.662-.364c-.917-.209-1.594-.541-2.033-.997-.435-.456-.652-1.034-.652-1.733 0-.579.162-1.086.486-1.521.324-.434.771-.773 1.342-1.016.571-.247 1.225-.371 1.962-.371 1.061 0 1.897.23 2.506.69.609.456 1.012 1.068 1.208 1.835Zm2.293 7.421v-9.818h1.912v9.818h-1.912Zm.966-11.333c-.333 0-.618-.111-.857-.332a1.084 1.084 0 0 1-.352-.806c0-.315.118-.584.352-.805.239-.226.524-.339.857-.339.332 0 .615.113.85.339.238.221.358.49.358.805 0 .311-.12.58-.358.806a1.196 1.196 0 0 1-.85.332Zm5.428-1.758v13.091h-1.911v-13.091h1.911Zm2.571 13.091v-9.818h1.911v9.818h-1.911Zm.965-11.333c-.332 0-.618-.111-.856-.332a1.08 1.08 0 0 1-.352-.806c0-.315.117-.584.352-.805a1.2 1.2 0 0 1 .856-.339c.333 0 .616.113.851.339.238.221.357.49.357.805 0 .311-.119.58-.357.806a1.197 1.197 0 0 1-.851.332Zm7.749 11.531c-.967 0-1.8-.206-2.499-.62a4.194 4.194 0 0 1-1.611-1.758c-.375-.758-.562-1.647-.562-2.665 0-1.006.187-1.892.562-2.659.379-.767.908-1.366 1.585-1.796.682-.431 1.479-.646 2.391-.646.554 0 1.091.092 1.611.275.52.183.986.471 1.4.863.413.392.739.901.978 1.528.238.622.357 1.378.357 2.269v.677h-7.804v-1.432h5.932c0-.502-.103-.948-.307-1.335a2.323 2.323 0 0 0-.863-.927c-.367-.226-.797-.339-1.291-.339-.537 0-1.006.132-1.407.396-.396.26-.703.601-.92 1.023-.213.418-.32.871-.32 1.361v1.119c0 .656.115 1.215.346 1.675.234.46.56.812.978 1.054.417.239.905.358 1.463.358.363 0 .693-.051.991-.153a2.053 2.053 0 0 0 1.272-1.246l1.809.326a3.275 3.275 0 0 1-.78 1.399 3.763 3.763 0 0 1-1.4.927c-.558.218-1.195.326-1.911.326Zm8.244-6.027v5.829H450.4v-9.818h1.835v1.598h.121c.226-.52.58-.938 1.061-1.253.486-.315 1.097-.473 1.835-.473.669 0 1.255.141 1.757.422.503.277.893.69 1.17 1.24.277.55.416 1.229.416 2.039v6.245h-1.912v-6.015c0-.711-.185-1.268-.556-1.668-.37-.405-.88-.607-1.527-.607a2.4 2.4 0 0 0-1.183.287 2.074 2.074 0 0 0-.812.844c-.196.367-.294.81-.294 1.33Zm13.43-3.989v1.534h-5.363v-1.534h5.363Zm-3.925-2.352h1.911v9.287c0 .371.056.65.167.838.11.183.253.309.428.377.179.064.373.096.582.096.153 0 .287-.011.402-.032l.269-.051.345 1.578a3.114 3.114 0 0 1-.473.128c-.205.047-.46.073-.767.077a3.362 3.362 0 0 1-1.406-.269 2.405 2.405 0 0 1-1.055-.869c-.269-.392-.403-.884-.403-1.476v-9.684ZM362.36 219.335h-1.994a3.053 3.053 0 0 0-1.196-1.95 3.291 3.291 0 0 0-1.016-.511 3.972 3.972 0 0 0-1.183-.173 3.7 3.7 0 0 0-2.026.569c-.592.379-1.061.935-1.406 1.668-.341.733-.511 1.628-.511 2.685 0 1.065.17 1.964.511 2.697.345.733.816 1.287 1.413 1.662a3.701 3.701 0 0 0 2.013.563c.413 0 .805-.056 1.176-.166a3.391 3.391 0 0 0 1.016-.505 3.066 3.066 0 0 0 1.209-1.924l1.994.006a5.341 5.341 0 0 1-.62 1.777 4.917 4.917 0 0 1-1.17 1.394 5.306 5.306 0 0 1-1.623.901 6.014 6.014 0 0 1-1.995.319c-1.133 0-2.143-.268-3.03-.805-.886-.541-1.585-1.315-2.096-2.32-.507-1.006-.761-2.206-.761-3.599 0-1.398.256-2.597.767-3.599.512-1.005 1.21-1.777 2.097-2.314.886-.541 1.894-.811 3.023-.811.695 0 1.343.1 1.943.3a5.123 5.123 0 0 1 1.63.869c.482.38.88.844 1.196 1.394.315.545.528 1.17.639 1.873Zm2.21 8.833v-9.818h1.847v1.56h.103c.179-.528.494-.944.946-1.247.456-.306.971-.46 1.546-.46a8.816 8.816 0 0 1 .812.045v1.828a3.361 3.361 0 0 0-.409-.07 3.881 3.881 0 0 0-.588-.045 2.49 2.49 0 0 0-1.208.288 2.136 2.136 0 0 0-1.138 1.924v5.995h-1.911Zm10.788.199c-.967 0-1.8-.207-2.499-.62a4.206 4.206 0 0 1-1.611-1.758c-.375-.759-.562-1.647-.562-2.666 0-1.005.187-1.892.562-2.659.379-.767.908-1.366 1.585-1.796.682-.43 1.479-.646 2.391-.646.554 0 1.091.092 1.611.275.52.184.986.471 1.4.863.413.392.739.901.978 1.528.238.622.357 1.378.357 2.269v.678h-7.804v-1.432h5.932c0-.503-.103-.948-.307-1.336a2.323 2.323 0 0 0-.863-.927c-.367-.226-.797-.339-1.291-.339-.537 0-1.006.132-1.407.397-.396.26-.703.6-.92 1.022-.213.418-.32.872-.32 1.362v1.118c0 .657.115 1.215.346 1.675.234.46.56.812.978 1.055.417.238.905.358 1.463.358.363 0 .693-.051.991-.154a2.047 2.047 0 0 0 1.272-1.246l1.809.326a3.278 3.278 0 0 1-.78 1.4 3.787 3.787 0 0 1-1.4.927c-.558.217-1.195.326-1.911.326Zm-.997-11.327 1.496-2.947h2.013l-1.981 2.947h-1.528Zm10.187 11.346a4.01 4.01 0 0 1-1.687-.345 2.857 2.857 0 0 1-1.196-1.017c-.289-.443-.434-.986-.434-1.63 0-.554.106-1.01.319-1.368a2.36 2.36 0 0 1 .863-.85 4.522 4.522 0 0 1 1.215-.473c.447-.106.903-.187 1.368-.243l1.432-.166c.366-.047.632-.121.799-.224.166-.102.249-.268.249-.498v-.045c0-.558-.158-.991-.473-1.297-.311-.307-.776-.461-1.394-.461-.643 0-1.15.143-1.521.429-.366.281-.62.594-.761.939l-1.796-.409c.213-.596.524-1.078.933-1.444.414-.371.889-.64 1.426-.806a5.577 5.577 0 0 1 1.694-.256c.392 0 .807.047 1.246.141.443.09.857.256 1.24.499.388.243.706.59.953 1.042.247.447.37 1.029.37 1.745v6.519h-1.866v-1.342h-.077a2.72 2.72 0 0 1-.556.729 2.947 2.947 0 0 1-.952.594c-.388.158-.853.237-1.394.237Zm.416-1.534c.528 0 .98-.105 1.355-.314.379-.208.667-.481.863-.818.2-.341.3-.705.3-1.093v-1.265c-.068.068-.2.132-.396.191a5.892 5.892 0 0 1-.658.147c-.248.039-.488.075-.723.109-.234.03-.43.055-.588.077a4.73 4.73 0 0 0-1.016.236 1.743 1.743 0 0 0-.729.48c-.179.204-.268.477-.268.818 0 .473.174.831.524 1.074.349.238.795.358 1.336.358Zm11.558-8.502v1.534h-5.363v-1.534h5.363Zm-3.925-2.352h1.912v9.288c0 .37.055.65.166.837a.866.866 0 0 0 .428.377c.179.064.373.096.582.096.153 0 .287-.011.403-.032l.268-.051.345 1.579a3.787 3.787 0 0 1-1.24.204 3.365 3.365 0 0 1-1.406-.268 2.417 2.417 0 0 1-1.055-.869c-.268-.393-.403-.885-.403-1.477v-9.684Zm10.165 12.369c-.967 0-1.8-.207-2.499-.62a4.22 4.22 0 0 1-1.611-1.758c-.375-.759-.562-1.647-.562-2.666 0-1.005.187-1.892.562-2.659.38-.767.908-1.366 1.586-1.796.681-.43 1.478-.646 2.39-.646.554 0 1.091.092 1.611.275.52.184.986.471 1.4.863.413.392.739.901.978 1.528.238.622.358 1.378.358 2.269v.678h-7.805v-1.432h5.932c0-.503-.102-.948-.307-1.336a2.316 2.316 0 0 0-.863-.927c-.366-.226-.797-.339-1.291-.339-.537 0-1.006.132-1.406.397-.397.26-.703.6-.921 1.022a2.956 2.956 0 0 0-.319 1.362v1.118c0 .657.115 1.215.345 1.675.234.46.56.812.978 1.055.417.238.905.358 1.464.358.362 0 .692-.051.99-.154a2.047 2.047 0 0 0 1.272-1.246l1.809.326a3.276 3.276 0 0 1-.779 1.4 3.795 3.795 0 0 1-1.4.927c-.559.217-1.196.326-1.912.326Zm12.553-4.27v-5.747h1.917v9.818h-1.879v-1.7h-.102a3.069 3.069 0 0 1-1.087 1.311c-.494.345-1.11.517-1.847.517-.631 0-1.189-.138-1.675-.415-.481-.281-.861-.697-1.138-1.247-.272-.549-.409-1.229-.409-2.039v-6.245h1.912v6.015c0 .669.185 1.202.556 1.598.37.397.852.595 1.444.595.358 0 .714-.09 1.068-.269a2.24 2.24 0 0 0 .888-.812c.239-.362.356-.822.352-1.38Zm4.485 4.071v-9.818h1.848v1.56h.102c.179-.528.494-.944.946-1.247.456-.306.972-.46 1.547-.46a8.854 8.854 0 0 1 .812.045v1.828a3.4 3.4 0 0 0-.409-.07 3.881 3.881 0 0 0-.588-.045c-.452 0-.855.096-1.209.288a2.136 2.136 0 0 0-1.137 1.924v5.995H419.8Zm15.348.192c-.793 0-1.5-.202-2.122-.607-.618-.409-1.104-.991-1.458-1.745-.349-.759-.524-1.668-.524-2.729 0-1.062.177-1.969.531-2.723.358-.755.848-1.332 1.47-1.733.622-.4 1.327-.601 2.116-.601.609 0 1.099.103 1.47.307.375.201.664.435.869.703.209.269.371.505.486.71h.115v-4.864h1.911v13.09h-1.866v-1.527h-.16a5.024 5.024 0 0 1-.499.716 2.771 2.771 0 0 1-.882.703c-.375.2-.861.3-1.457.3Zm.422-1.63c.549 0 1.014-.145 1.393-.434.384-.294.673-.701.869-1.221.201-.52.301-1.125.301-1.816 0-.681-.098-1.278-.294-1.789-.196-.512-.484-.91-.863-1.196-.379-.285-.848-.428-1.406-.428-.576 0-1.055.149-1.439.447-.383.299-.673.706-.869 1.221-.192.516-.288 1.098-.288 1.745 0 .657.098 1.247.294 1.771.196.524.486.94.87 1.246.388.303.865.454 1.432.454Zm11.401 1.637c-.967 0-1.8-.207-2.499-.62a4.22 4.22 0 0 1-1.611-1.758c-.375-.759-.562-1.647-.562-2.666 0-1.005.187-1.892.562-2.659.38-.767.908-1.366 1.586-1.796.681-.43 1.478-.646 2.39-.646.554 0 1.091.092 1.611.275.52.184.986.471 1.4.863.413.392.739.901.978 1.528.238.622.358 1.378.358 2.269v.678h-7.805v-1.432h5.932c0-.503-.102-.948-.307-1.336a2.316 2.316 0 0 0-.863-.927c-.366-.226-.797-.339-1.291-.339-.537 0-1.006.132-1.406.397-.397.26-.703.6-.921 1.022a2.956 2.956 0 0 0-.319 1.362v1.118c0 .657.115 1.215.345 1.675.234.46.56.812.978 1.055.417.238.905.358 1.464.358.362 0 .692-.051.99-.154a2.047 2.047 0 0 0 1.272-1.246l1.809.326a3.278 3.278 0 0 1-.78 1.4c-.37.396-.837.705-1.399.927-.559.217-1.196.326-1.912.326Zm19.496-10.017-3.56 9.818h-2.046l-3.566-9.818h2.051l2.487 7.556h.102l2.48-7.556h2.052Zm4.372 10.036a4.01 4.01 0 0 1-1.687-.345 2.857 2.857 0 0 1-1.196-1.017c-.289-.443-.434-.986-.434-1.63 0-.554.106-1.01.319-1.368.214-.358.501-.641.863-.85a4.522 4.522 0 0 1 1.215-.473c.447-.106.903-.187 1.368-.243l1.432-.166c.366-.047.632-.121.799-.224.166-.102.249-.268.249-.498v-.045c0-.558-.158-.991-.473-1.297-.311-.307-.776-.461-1.394-.461-.643 0-1.15.143-1.521.429-.366.281-.62.594-.761.939l-1.796-.409c.213-.596.524-1.078.934-1.444.413-.371.888-.64 1.425-.806a5.577 5.577 0 0 1 1.694-.256c.392 0 .807.047 1.246.141.443.09.857.256 1.24.499.388.243.706.59.953 1.042.247.447.37 1.029.37 1.745v6.519h-1.866v-1.342h-.077a2.72 2.72 0 0 1-.556.729 2.947 2.947 0 0 1-.952.594c-.388.158-.852.237-1.394.237Zm.416-1.534c.528 0 .98-.105 1.355-.314.379-.208.667-.481.863-.818.2-.341.3-.705.3-1.093v-1.265c-.068.068-.2.132-.396.191a5.892 5.892 0 0 1-.658.147c-.248.039-.488.075-.723.109-.234.03-.43.055-.588.077a4.73 4.73 0 0 0-1.016.236 1.743 1.743 0 0 0-.729.48c-.179.204-.268.477-.268.818 0 .473.174.831.524 1.074.349.238.795.358 1.336.358Zm8.886-11.774v13.09h-1.911v-13.09h1.911Zm6.803 13.289c-.967 0-1.8-.207-2.499-.62a4.206 4.206 0 0 1-1.611-1.758c-.375-.759-.563-1.647-.563-2.666 0-1.005.188-1.892.563-2.659.379-.767.908-1.366 1.585-1.796.682-.43 1.479-.646 2.391-.646.554 0 1.091.092 1.611.275.52.184.986.471 1.399.863.414.392.74.901.978 1.528.239.622.358 1.378.358 2.269v.678h-7.804v-1.432h5.932c0-.503-.103-.948-.307-1.336a2.323 2.323 0 0 0-.863-.927c-.367-.226-.797-.339-1.291-.339-.537 0-1.006.132-1.407.397-.396.26-.703.6-.92 1.022-.213.418-.32.872-.32 1.362v1.118c0 .657.115 1.215.345 1.675.235.46.561.812.978 1.055.418.238.906.358 1.464.358.362 0 .693-.051.991-.154.298-.106.556-.264.773-.473.218-.208.384-.466.499-.773l1.809.326a3.278 3.278 0 0 1-.78 1.4 3.787 3.787 0 0 1-1.4.927c-.558.217-1.195.326-1.911.326Zm12.552-4.27v-5.747h1.918v9.818h-1.879v-1.7h-.102a3.076 3.076 0 0 1-1.087 1.311c-.494.345-1.11.517-1.847.517-.631 0-1.189-.138-1.675-.415-.482-.281-.861-.697-1.138-1.247-.273-.549-.409-1.229-.409-2.039v-6.245h1.911v6.015c0 .669.186 1.202.556 1.598.371.397.853.595 1.445.595.358 0 .714-.09 1.067-.269.358-.179.655-.449.889-.812.239-.362.356-.822.351-1.38Zm4.486 4.071v-9.818h1.847v1.56h.103c.179-.528.494-.944.946-1.247.456-.306.971-.46 1.547-.46a8.816 8.816 0 0 1 .811.045v1.828a3.361 3.361 0 0 0-.409-.07 3.881 3.881 0 0 0-.588-.045 2.49 2.49 0 0 0-1.208.288 2.136 2.136 0 0 0-1.138 1.924v5.995h-1.911Zm14.266-7.421-1.733.307a2.05 2.05 0 0 0-.345-.633 1.709 1.709 0 0 0-.626-.492c-.265-.128-.595-.192-.991-.192-.541 0-.993.122-1.355.365-.362.238-.544.547-.544.927 0 .328.122.592.365.792.243.2.635.365 1.176.492l1.56.358c.903.209 1.576.531 2.02.965.443.435.664 1 .664 1.694 0 .588-.17 1.113-.511 1.573-.337.456-.808.814-1.413 1.074-.601.26-1.297.39-2.09.39-1.099 0-1.996-.235-2.691-.704-.695-.473-1.121-1.144-1.278-2.013l1.847-.281c.115.481.351.846.709 1.093.358.243.825.364 1.4.364.627 0 1.127-.13 1.502-.39.375-.264.563-.586.563-.965a1 1 0 0 0-.345-.773c-.226-.209-.573-.367-1.042-.473l-1.662-.365c-.916-.209-1.594-.541-2.033-.997-.434-.456-.652-1.033-.652-1.732 0-.58.162-1.087.486-1.521.324-.435.771-.774 1.342-1.017.571-.247 1.226-.371 1.963-.371 1.061 0 1.896.231 2.505.691.61.456 1.012 1.067 1.209 1.834ZM103.137 255.4h-4.238v-13.091h4.372c1.283 0 2.385.263 3.305.787a5.183 5.183 0 0 1 2.116 2.243c.494.972.741 2.137.741 3.497 0 1.363-.249 2.535-.748 3.515a5.247 5.247 0 0 1-2.147 2.263c-.938.524-2.071.786-3.401.786Zm-2.263-1.725h2.154c.998 0 1.826-.188 2.487-.563a3.546 3.546 0 0 0 1.483-1.643c.328-.72.492-1.598.492-2.633 0-1.027-.164-1.899-.492-2.615-.324-.715-.808-1.259-1.451-1.63-.644-.37-1.443-.556-2.397-.556h-2.276v9.64Zm17.081-2.346v-5.747h1.918v9.818h-1.879v-1.7h-.102a3.068 3.068 0 0 1-1.087 1.31c-.494.346-1.11.518-1.847.518-.631 0-1.189-.138-1.675-.415-.482-.282-.861-.697-1.138-1.247-.273-.549-.409-1.229-.409-2.039v-6.245h1.911v6.015c0 .669.186 1.202.556 1.598.371.396.853.595 1.445.595.358 0 .714-.09 1.067-.269.358-.179.654-.449.889-.812.239-.362.356-.822.351-1.38Zm4.486 4.071v-9.818h1.847v1.56h.103c.179-.529.494-.944.946-1.247.456-.306.971-.46 1.547-.46a7.667 7.667 0 0 1 .811.045v1.828a3.361 3.361 0 0 0-.409-.07 3.881 3.881 0 0 0-.588-.045 2.49 2.49 0 0 0-1.208.288 2.136 2.136 0 0 0-1.138 1.924v5.995h-1.911Zm9.678.218a4.01 4.01 0 0 1-1.688-.345 2.848 2.848 0 0 1-1.195-1.017c-.29-.443-.435-.986-.435-1.63 0-.554.107-1.01.32-1.368.213-.358.5-.641.863-.85a4.515 4.515 0 0 1 1.214-.473c.448-.106.904-.187 1.368-.243l1.432-.166c.366-.047.633-.121.799-.224.166-.102.249-.268.249-.498v-.045c0-.558-.158-.991-.473-1.298-.311-.306-.775-.46-1.393-.46-.644 0-1.151.143-1.522.429-.366.281-.62.594-.76.939l-1.796-.409c.213-.597.524-1.078.933-1.445.413-.37.888-.639 1.425-.805a5.581 5.581 0 0 1 1.694-.256c.392 0 .808.047 1.247.141.443.089.856.256 1.24.499.387.242.705.59.952 1.041.247.448.371 1.03.371 1.746v6.519h-1.867v-1.342h-.076c-.124.247-.309.49-.557.729a2.947 2.947 0 0 1-.952.594c-.388.158-.852.237-1.393.237Zm.415-1.534c.529 0 .98-.105 1.355-.314.379-.208.667-.481.863-.818.2-.341.301-.705.301-1.093v-1.265c-.069.068-.201.132-.397.191a5.892 5.892 0 0 1-.658.147c-.247.039-.488.075-.722.109-.235.03-.431.055-.588.077-.371.047-.71.125-1.017.236a1.756 1.756 0 0 0-.729.48c-.179.204-.268.477-.268.818 0 .473.175.831.524 1.074.35.238.795.358 1.336.358Zm7.129 1.316v-13.091h1.911v4.865h.115a5.36 5.36 0 0 1 .48-.71c.208-.268.498-.503.869-.703.371-.204.861-.307 1.47-.307.793 0 1.5.201 2.122.601.622.401 1.11.978 1.464 1.732.358.755.537 1.662.537 2.723 0 1.062-.177 1.971-.531 2.73-.353.754-.839 1.336-1.457 1.745-.618.405-1.323.607-2.116.607-.596 0-1.084-.1-1.464-.3-.375-.201-.669-.435-.882-.703a5.406 5.406 0 0 1-.492-.716h-.16v1.527h-1.866Zm1.873-4.909c0 .691.1 1.296.3 1.816.2.52.49.926.869 1.221.38.289.844.434 1.394.434.571 0 1.048-.151 1.432-.454.383-.306.673-.722.869-1.246.2-.524.3-1.114.3-1.771 0-.647-.098-1.229-.294-1.745-.191-.515-.481-.922-.869-1.221-.383-.298-.863-.447-1.438-.447-.554 0-1.023.143-1.406.428-.38.286-.667.684-.863 1.196-.196.511-.294 1.107-.294 1.789Zm11.152-8.182V255.4h-1.911v-13.091h1.911Zm6.803 13.29c-.967 0-1.8-.207-2.499-.62a4.206 4.206 0 0 1-1.611-1.758c-.375-.759-.563-1.647-.563-2.666 0-1.005.188-1.892.563-2.659.379-.767.908-1.366 1.585-1.796.682-.43 1.479-.646 2.391-.646.554 0 1.091.092 1.611.275a3.9 3.9 0 0 1 1.399.863c.414.392.74.901.978 1.528.239.622.358 1.378.358 2.269v.678h-7.804v-1.432h5.931c0-.503-.102-.948-.306-1.336a2.33 2.33 0 0 0-.863-.927c-.367-.226-.797-.339-1.292-.339-.536 0-1.005.132-1.406.397-.396.259-.703.6-.92 1.022-.213.418-.32.872-.32 1.362v1.118c0 .657.115 1.215.345 1.675.235.46.561.812.978 1.055.418.238.906.358 1.464.358.362 0 .693-.051.991-.154a2.045 2.045 0 0 0 1.272-1.246l1.809.326a3.278 3.278 0 0 1-.78 1.4 3.787 3.787 0 0 1-1.4.927c-.558.217-1.195.326-1.911.326ZM54.838 166.416c-.068-.605-.349-1.074-.843-1.406-.495-.337-1.117-.505-1.867-.505-.537 0-1.001.085-1.393.255-.392.167-.697.397-.914.691-.213.289-.32.62-.32.99 0 .312.073.58.217.806.15.226.343.415.582.569.243.149.503.275.78.377.277.098.543.179.799.243l1.278.332c.418.102.846.241 1.285.416.439.174.846.404 1.221.69a3.3 3.3 0 0 1 .908 1.061c.234.422.351.927.351 1.515 0 .741-.192 1.4-.575 1.975-.38.575-.931 1.029-1.656 1.362-.72.332-1.591.498-2.614.498-.98 0-1.828-.155-2.544-.466-.716-.311-1.276-.753-1.681-1.324-.405-.575-.629-1.257-.671-2.045h1.981c.039.473.192.867.46 1.183.273.311.62.543 1.042.696.426.149.893.224 1.4.224.559 0 1.055-.087 1.49-.262.438-.179.784-.426 1.035-.742.252-.319.377-.692.377-1.118 0-.388-.11-.705-.332-.953-.218-.247-.514-.451-.889-.613a8.726 8.726 0 0 0-1.259-.429l-1.547-.421c-1.048-.286-1.879-.706-2.493-1.26-.609-.554-.914-1.287-.914-2.198 0-.755.205-1.413.614-1.976.409-.562.963-.999 1.662-1.31.699-.315 1.487-.473 2.365-.473.886 0 1.668.156 2.346.467.682.311 1.218.739 1.61 1.284.393.542.597 1.164.614 1.867h-1.905Zm8.427 9.85c-.92 0-1.724-.211-2.41-.633a4.27 4.27 0 0 1-1.598-1.77c-.38-.759-.569-1.645-.569-2.659 0-1.019.19-1.91.569-2.672.38-.763.912-1.355 1.598-1.777.686-.422 1.49-.633 2.41-.633.92 0 1.723.211 2.41.633.686.422 1.218 1.014 1.597 1.777.38.762.57 1.653.57 2.672 0 1.014-.19 1.9-.57 2.659a4.269 4.269 0 0 1-1.598 1.77c-.686.422-1.489.633-2.41.633Zm.006-1.604c.597 0 1.091-.158 1.483-.473.392-.316.682-.735.87-1.26a5.006 5.006 0 0 0 .287-1.732c0-.626-.096-1.202-.288-1.726-.187-.528-.477-.952-.869-1.272-.392-.319-.886-.479-1.483-.479-.6 0-1.1.16-1.496.479-.392.32-.684.744-.875 1.272a5.093 5.093 0 0 0-.282 1.726c0 .631.094 1.208.282 1.732.191.525.483.944.875 1.26.397.315.895.473 1.496.473Zm6.857 1.406v-13.091h1.911v4.864h.115c.111-.204.271-.441.48-.709.209-.269.498-.503.87-.703.37-.205.86-.307 1.47-.307.792 0 1.5.2 2.121.601.623.4 1.11.978 1.464 1.732.358.754.537 1.662.537 2.723s-.177 1.971-.53 2.729c-.354.755-.84 1.336-1.458 1.745-.618.405-1.323.608-2.115.608-.597 0-1.085-.101-1.464-.301-.375-.2-.67-.434-.882-.703a5.291 5.291 0 0 1-.493-.716h-.16v1.528h-1.866Zm1.873-4.909c0 .69.1 1.295.3 1.815.2.52.49.927.87 1.221.379.29.843.435 1.393.435.571 0 1.049-.152 1.432-.454.384-.307.673-.722.87-1.247.2-.524.3-1.114.3-1.77 0-.648-.098-1.23-.294-1.745-.192-.516-.482-.923-.87-1.221-.383-.298-.862-.448-1.438-.448-.554 0-1.022.143-1.406.429-.38.285-.667.684-.863 1.195-.196.511-.294 1.108-.294 1.79Zm9.241 4.909v-9.818h1.848v1.559h.102c.179-.528.494-.944.946-1.246.456-.307.971-.46 1.547-.46.12 0 .26.004.422.012.166.009.296.02.39.032v1.829a3.336 3.336 0 0 0-.41-.071 3.881 3.881 0 0 0-.588-.045c-.451 0-.854.096-1.208.288-.35.188-.626.45-.83.786a2.129 2.129 0 0 0-.307 1.138v5.996h-1.912Zm10.788.198c-.967 0-1.8-.207-2.499-.62a4.21 4.21 0 0 1-1.61-1.758c-.376-.758-.563-1.647-.563-2.665 0-1.006.187-1.892.562-2.659.38-.767.908-1.366 1.586-1.797.681-.43 1.478-.645 2.39-.645.554 0 1.091.091 1.611.275.52.183.987.471 1.4.863.413.392.74.901.978 1.527.239.622.358 1.379.358 2.27v.677h-7.805v-1.432h5.932c0-.503-.102-.948-.307-1.336a2.322 2.322 0 0 0-.863-.927c-.366-.225-.797-.338-1.29-.338-.538 0-1.007.132-1.407.396a2.66 2.66 0 0 0-.92 1.023c-.214.417-.32.871-.32 1.361v1.119c0 .656.115 1.214.345 1.675.234.46.56.811.978 1.054.418.239.905.358 1.464.358.362 0 .692-.051.99-.153.299-.107.557-.264.774-.473.217-.209.383-.467.499-.774l1.808.326c-.144.533-.404 1-.78 1.4a3.79 3.79 0 0 1-1.4.927c-.558.217-1.195.326-1.91.326ZM49.294 77.035v11.636h-1.756V77.035h1.756Zm4.12 6.455v5.181h-1.7v-8.727h1.63v1.42h.109c.2-.462.515-.833.943-1.113.432-.28.975-.42 1.63-.42.595 0 1.116.125 1.563.375.447.246.794.613 1.04 1.102.246.488.37 1.093.37 1.812v5.551h-1.7v-5.346c0-.633-.164-1.127-.494-1.483-.33-.36-.782-.54-1.358-.54-.394 0-.744.085-1.051.256-.303.17-.544.42-.722.75-.174.326-.26.72-.26 1.182Zm11.539 5.358c-.845 0-1.572-.192-2.182-.574a3.8 3.8 0 0 1-1.398-1.597c-.325-.678-.488-1.454-.488-2.33 0-.886.166-1.668.5-2.346a3.83 3.83 0 0 1 1.409-1.597c.606-.382 1.32-.573 2.142-.573.663 0 1.254.123 1.772.369.52.242.938.583 1.256 1.023.322.439.514.952.574 1.54h-1.653c-.091-.41-.3-.762-.625-1.057-.322-.296-.754-.444-1.296-.444a2.11 2.11 0 0 0-1.244.375c-.352.247-.627.599-.824 1.057-.197.455-.295.993-.295 1.614 0 .636.096 1.185.29 1.648.193.462.465.82.818 1.073.356.254.774.381 1.255.381.322 0 .614-.059.875-.176.265-.121.487-.294.665-.517.182-.224.309-.492.38-.807h1.654a3.212 3.212 0 0 1-.551 1.511 3.17 3.17 0 0 1-1.233 1.046c-.511.254-1.112.38-1.801.38Zm7.1-11.813v11.636h-1.698V77.035h1.699Zm7.815 8.017v-5.108h1.704v8.727h-1.67v-1.51h-.091c-.201.465-.523.853-.966 1.164-.44.307-.987.46-1.642.46-.56 0-1.057-.123-1.489-.37-.428-.25-.765-.619-1.011-1.107-.243-.489-.364-1.093-.364-1.813v-5.55h1.7v5.346c0 .594.164 1.068.493 1.42.33.353.758.529 1.285.529.318 0 .634-.08.948-.239.319-.16.582-.4.79-.722.212-.322.316-.73.313-1.227Zm10.527-2.977-1.54.273a1.825 1.825 0 0 0-.307-.563 1.519 1.519 0 0 0-.557-.437c-.235-.114-.528-.17-.88-.17-.482 0-.883.107-1.205.323-.322.212-.483.487-.483.824 0 .292.108.526.324.704.216.178.564.324 1.045.438l1.387.318c.803.186 1.401.472 1.795.858.394.386.591.888.591 1.506 0 .522-.151.988-.454 1.397-.3.406-.718.724-1.256.955-.534.231-1.154.347-1.858.347-.977 0-1.775-.209-2.392-.625-.618-.42-.996-1.017-1.136-1.79l1.642-.25c.102.428.312.752.63.971.318.216.733.324 1.245.324.556 0 1.001-.115 1.335-.346.333-.235.5-.521.5-.858a.891.891 0 0 0-.307-.688c-.2-.185-.51-.326-.926-.42l-1.477-.324c-.815-.186-1.417-.481-1.807-.886-.387-.406-.58-.919-.58-1.54 0-.515.144-.966.432-1.352.288-.387.686-.688 1.193-.904.508-.22 1.09-.33 1.745-.33.943 0 1.685.205 2.227.614.541.406.9.95 1.074 1.63Zm2.038 6.596v-8.727h1.699v8.727h-1.699Zm.858-10.073a1.08 1.08 0 0 1-.761-.296.96.96 0 0 1-.313-.716c0-.28.104-.519.313-.716.212-.2.466-.3.76-.3.296 0 .548.1.757.3a.942.942 0 0 1 .318.716.953.953 0 0 1-.318.716 1.06 1.06 0 0 1-.756.296Zm7.28 1.346v1.364h-4.932v-1.364h4.932Zm-3.58 8.727v-9.738c0-.546.12-.998.358-1.358.239-.364.555-.635.949-.813a3.027 3.027 0 0 1 1.284-.272c.341 0 .633.028.875.085.243.053.423.102.54.148l-.398 1.375a7.935 7.935 0 0 0-.307-.08 1.744 1.744 0 0 0-.454-.051c-.413 0-.709.102-.887.307-.174.204-.26.5-.26.886v9.511h-1.7Z" fill="#fff"/></svg>