<svg width="200" height="200" viewBox="0 0 200 200" fill="none" xmlns="http://www.w3.org/2000/svg">
<g id="Frame 1321314811">
<g id="Group">
<g id="Group_2">
<g id="Group_3">
<g id="Group_4">
<path id="Vector" d="M131.501 106.066C131.501 122.982 117.789 136.692 100.873 136.692C83.9588 136.692 70.2466 122.98 70.2466 106.066C70.2466 89.1516 83.9588 75.4395 100.873 75.4395C117.789 75.438 131.501 89.1502 131.501 106.066Z" stroke="white" stroke-width="2" stroke-miterlimit="10"/>
<g id="Group_5">
<g id="Clip path group">
<mask id="mask0_1_29917" style="mask-type:luminance" maskUnits="userSpaceOnUse" x="70" y="75" width="62" height="62">
<g id="SVGID_00000012448628680021415230000004170079007288641210_">
<path id="Vector_2" d="M131.501 106.069C131.501 122.984 117.789 136.695 100.873 136.695C83.9588 136.695 70.2466 122.983 70.2466 106.069C70.2466 89.1546 83.9588 75.4424 100.873 75.4424C117.789 75.441 131.501 89.1531 131.501 106.069Z" fill="white"/>
</g>
</mask>
<g mask="url(#mask0_1_29917)">
<g id="Group_6">
<g id="Group_7">
<path id="Vector_3" d="M89.2467 87.2486C89.5138 87.3657 89.6695 86.8844 89.6923 86.6644C89.7095 86.4416 89.0568 85.9846 88.954 85.7204C88.8526 85.4547 88.8083 83.9108 88.7954 83.5923C88.7797 83.2767 88.3555 82.7626 88.2184 82.8554C88.0827 82.9425 87.8028 82.0328 87.5843 81.8357C87.3601 81.6386 87.3129 81.2015 87.3201 81.0559C87.3301 80.9088 86.5731 80.1175 86.3918 79.7505C86.2104 79.3849 85.9561 79.4591 85.939 79.6248C85.919 79.7933 85.3949 79.8162 85.1778 79.7962C84.9607 79.7762 84.7836 78.9407 84.7836 78.6251C84.7836 78.3094 83.8095 78.2566 83.6481 77.9995C83.4882 77.7467 82.8526 77.8653 82.7498 77.6896C82.6455 77.5139 82.0828 77.3525 81.9757 77.4168C81.8586 77.4839 81.9143 79.7505 81.8072 80.3618C81.6986 80.9745 81.1816 81.5115 80.9903 81.4958C80.8046 81.4829 80.916 81.9314 81.046 81.8914C81.1802 81.8514 80.6789 82.5598 80.6132 83.0239C80.5475 83.4867 80.0762 83.0039 80.0005 82.5826C79.922 82.1613 79.4621 81.5914 79.375 81.7357C79.2864 81.8785 78.9708 81.5643 78.8308 81.6529C78.6952 81.7443 77.824 81.1473 77.4726 80.9545C77.1213 80.7688 76.9242 79.6876 76.7242 79.5948C76.52 79.4977 76.6914 79.3691 76.6828 79.2049C76.6785 79.0421 77.364 78.4137 77.5726 78.1666C77.7797 77.9138 78.5323 76.9355 78.8308 76.7255C79.1308 76.5127 79.3636 75.9529 79.3136 75.8472C79.2622 75.7487 80.5918 75.3316 80.9531 75.2059C81.3116 75.0831 81.6258 74.0777 81.6744 73.7892C81.7229 73.4992 81.4473 72.9537 81.2816 72.8808C81.1117 72.8094 81.7829 72.7837 82.0043 72.8965C82.2271 73.0051 82.914 72.6923 83.1868 72.8365C83.4539 72.9794 84.0052 73.305 84.4008 73.5549C84.4008 73.5549 84.4008 73.5549 84.3166 74.2933C84.1552 75.543 84.1552 75.543 84.1552 75.543C83.1069 75.9786 82.8041 76.7284 83.1697 76.7127C83.5382 76.6941 85.212 77.4382 85.6862 77.7767C86.1589 78.1152 86.3075 77.2868 86.4475 77.0083C86.5874 76.737 86.5431 75.9329 86.4303 75.7744C86.316 75.6144 86.9773 75.6715 87.163 75.8486C87.3486 76.0257 87.5657 75.6658 87.71 75.6016C87.8528 75.5359 87.9213 74.8489 88.0013 74.7118C88.0742 74.5704 87.6871 74.4304 87.6743 74.2605C87.6614 74.0848 86.9087 73.7606 86.6645 73.6421C86.4174 73.5249 86.3617 73.0065 86.4817 72.9165C86.6017 72.8251 86.3989 72.1639 86.2775 71.9468C86.1604 71.7283 85.3706 71.5512 85.1092 71.5512C84.8479 71.5512 84.5779 70.9427 84.4265 70.8542C84.2751 70.7685 83.2654 70.6571 83.0183 70.7299C82.7684 70.8028 82.3099 70.0144 81.8886 70.2544C81.4673 70.4943 81.0345 69.9716 80.8432 69.8673C80.6504 69.7645 79.6663 70.8228 79.6735 71.5654C79.6849 72.3124 80.0591 73.0322 80.2133 73.0536C80.3676 73.0751 80.1776 73.7477 80.0048 73.9405C79.8348 74.1305 79.4193 73.7377 79.5778 73.5678C79.7306 73.4007 79.1493 72.6195 78.9479 72.3038C78.8037 72.0739 78.291 71.8711 77.9439 71.7325C77.7397 71.9525 77.5412 72.1781 77.3455 72.4038C77.4226 72.6752 77.5112 73.0265 77.4255 73.2936C77.2798 73.7477 76.8999 73.8177 76.877 73.6206C76.867 73.5335 76.6728 73.4678 76.4486 73.4378C70.9272 80.0561 67.2524 88.2612 66.2026 97.256C66.4226 97.5074 66.6711 97.8044 66.7382 98.0186C66.8653 98.4185 67.5594 98.6828 67.6923 98.7627C67.8194 98.8427 67.8651 97.9972 67.7722 97.7759C67.6837 97.5573 67.9422 97.4245 67.9351 97.5859C67.9294 97.7487 68.592 98.4914 68.8062 98.7627C69.0248 99.0298 69.249 100.771 69.4575 101.142C69.6646 101.515 71.6698 102.289 72.3182 102.425C72.9623 102.562 73.7764 103.283 73.9049 103.492C74.0278 103.7 74.8861 103.806 75.0704 103.887C75.2575 103.974 75.6945 104.556 75.8788 104.674C76.0601 104.797 76.2058 105.141 76.2058 105.234C76.2058 105.327 77.3384 105.754 77.6126 106.057C77.8868 106.359 78.3424 106.277 78.4267 106.149C78.5138 106.021 78.7351 106.752 78.8537 107.002C78.9679 107.255 78.9979 107.875 78.9079 107.973C78.8194 108.069 78.658 109.21 78.4638 109.437C78.271 109.666 77.8697 111.322 77.9568 111.647C78.0453 111.976 78.5752 112.651 78.8066 112.752C79.0336 112.852 78.9365 113.206 78.758 113.23C78.5766 113.252 78.6609 114.834 79.0865 115.07C79.5135 115.303 79.872 116.003 79.8091 116.124C79.7463 116.245 80.559 117.084 80.8775 117.367C81.1917 117.655 81.8629 119.02 81.9986 119.47C82.1342 119.92 82.0543 120.654 82.01 120.827C81.9686 121 82.1628 121.378 82.1971 121.537C82.2228 121.694 81.9158 123.035 82.0343 123.575C82.1529 124.113 81.4045 125.797 81.4188 126.63C81.4387 127.467 81.8143 128.555 81.9671 128.474C82.1185 128.394 82.1714 129.235 81.9172 129.335C81.6615 129.438 81.3673 130.1 81.5087 130.136C81.6515 130.172 81.4987 130.826 81.5373 131.089C81.5758 131.351 81.7986 133.087 81.8443 133.518C81.8929 133.951 82.5099 135.005 82.6413 135.36C82.7698 135.72 82.9012 136.396 82.9512 136.497C83.0012 136.603 83.064 136.709 83.0712 136.713C83.0826 136.716 83.5796 136.901 83.7224 137.01C83.8709 137.117 84.845 137.05 85.1635 136.984C85.4834 136.919 85.1892 136.627 85.0478 136.47C84.9036 136.31 84.7764 135.54 84.6108 135.46C84.4451 135.386 84.3766 134.404 84.5208 134.188C84.6665 133.969 85.2506 133.624 85.3149 133.441C85.3749 133.258 85.3934 132.404 85.2377 132.286C85.0792 132.168 85.2849 131.132 85.1649 130.616C85.0492 130.102 86.059 129.633 86.1204 129.225C86.1775 128.816 87.2729 128.377 87.5229 128.174C87.77 127.968 87.9856 126.8 87.8671 126.546C87.7471 126.297 88.2727 126.091 88.5083 126.091C88.7397 126.091 89.0011 125.924 89.0925 125.924C89.181 125.921 89.4581 125.404 89.608 125.286C89.7594 125.166 90.068 123.931 90.3393 123.729C90.6107 123.525 90.8349 122.781 90.8349 122.559C90.8349 122.342 91.2519 121.69 91.389 121.495C91.5247 121.3 92.5473 120.831 92.7315 120.757C92.9129 120.681 93.1914 119.038 93.2628 118.448C93.3343 117.858 93.6413 117.069 93.6641 116.877C93.6827 116.681 94.0112 116.517 94.0712 116.454C94.134 116.392 94.3783 115.64 94.5339 115.467C94.6896 115.294 95.2566 114.579 95.2695 114.417C95.2823 114.257 95.368 113.847 95.4623 113.505C95.4623 113.505 95.4623 113.505 95.458 113.105C95.4637 112.464 95.4637 112.463 95.4637 112.463C95.2837 111.968 94.7339 111.348 94.5953 111.485C94.4554 111.621 93.8213 111.047 93.4999 110.924C93.1743 110.805 92.3702 110.705 92.166 110.705C91.9632 110.705 91.2577 110.128 90.942 110.027C90.6278 109.93 89.8237 109.776 89.6738 109.681C89.5281 109.587 89.3296 108.389 88.6797 107.999C88.0327 107.605 86.8959 106.694 86.7702 106.355C86.646 106.022 85.402 105.317 85.0121 105.105C84.6293 104.893 84.0466 104.841 83.9752 104.92C83.8981 104.991 83.4196 104.268 83.1754 104.063C82.9255 103.863 82.1799 103.691 82.1457 103.874C82.1114 104.059 81.6172 103.963 81.5001 103.806C81.3859 103.651 81.0003 103.869 80.8189 103.93C80.6404 103.987 80.0177 104.933 79.7363 105.161C79.4478 105.385 79.1093 104.951 78.9222 104.867C78.7337 104.787 78.0211 105.01 77.824 105.148C77.6297 105.285 77.1784 104.146 77.2855 103.621C77.3883 103.097 76.8156 102.053 76.3686 102.026C75.9287 102.002 75.7888 100.902 75.8773 100.499C75.9659 100.095 75.0761 99.8425 74.8547 99.8153C74.6276 99.7839 74.0749 100.355 73.9807 100.628C73.885 100.901 71.8683 100.257 72.1083 99.047C72.3411 97.8387 73.298 96.5876 73.5365 96.439C73.775 96.2948 75.0704 96.2191 75.356 96.3819C75.6445 96.549 75.903 96.3791 75.9516 96.3062C75.9987 96.232 77.0556 96.3191 77.3741 96.4476C77.6869 96.5747 78.1396 97.7958 78.4666 97.9458C78.7965 98.0986 78.9137 97.1574 78.9665 96.9303C79.0208 96.7018 78.8066 96.1205 78.728 95.9577C78.6466 95.7949 79.2522 94.3139 79.7492 94.0625C81.3288 93.2656 82.1271 91.189 83.5567 90.1464C83.9395 89.8665 84.338 89.608 84.705 89.308C85.2792 88.8381 85.5248 88.2297 86.1432 87.8198C86.6245 87.5014 86.9787 87.0443 87.5557 87.0315C88.137 87.0286 88.7183 87.0172 89.2467 87.2486Z" stroke="white" stroke-width="2" stroke-miterlimit="10"/>
<path id="Vector_4" d="M108.579 107.9C108.766 107.848 108.973 109.52 108.838 110.006C108.705 110.488 109.168 112.185 109.303 112.696C109.44 113.208 110.02 114.604 110.082 115.106C110.136 115.608 109.739 117.275 109.673 117.858C109.609 118.445 110.402 120.076 110.613 120.639C110.817 121.2 110.987 122.408 110.987 122.687C110.987 122.968 111.855 124.658 112.053 125.35C112.254 126.047 114.43 126.217 115.013 125.876C115.597 125.533 116.589 124.066 116.913 123.759C117.238 123.449 117.475 122.341 117.545 122.1C117.61 121.857 118.107 121.464 118.291 121.413C118.474 121.36 119.068 118.903 119.585 118.366C120.102 117.829 120.712 115.233 120.647 114.296C120.582 113.365 120.982 111.584 121.103 111.155C121.227 110.728 121.877 109.967 122.081 109.81C122.28 109.651 123.532 107.798 123.939 107.135C124.339 106.469 124.725 105.01 124.648 104.668C124.572 104.326 123.698 104.087 123.535 104.256C123.374 104.426 122.553 104.564 122.29 104.564C122.029 104.564 121.426 103.157 121.052 102.867C120.68 102.58 120.343 100.968 120.128 100.664C119.912 100.36 119.311 99.5869 119.122 99.4112C118.934 99.2355 118.901 98.38 118.858 98.1458C118.818 97.9145 119.222 98.3015 119.292 98.6386C119.363 98.9799 120.328 100.352 120.626 100.814C120.925 101.278 121.713 102.748 121.913 103.21C122.114 103.667 123.867 103.437 124.435 103.17C125.005 102.9 125.712 102.446 125.739 102.288C125.763 102.128 126.672 101.712 126.922 101.511C127.174 101.309 127.397 100.255 127.561 100.088C127.726 99.9154 127.429 98.9113 127.24 98.6128C127.053 98.3129 126.142 98.0744 125.962 98.1915C125.776 98.3086 125.385 97.5174 125.245 97.2275C125.106 96.9347 124.411 96.5791 124.334 96.382C124.262 96.1778 124.525 95.8664 124.634 95.7993C124.744 95.7293 126.025 96.6291 126.395 97.0761C126.76 97.5231 127.181 98.3443 127.254 98.49C127.319 98.6314 128.333 98.7057 128.558 98.54C128.782 98.3729 129.042 98.4172 129.131 98.6314C129.131 98.6314 129.131 98.6314 129.449 98.5757C130.559 98.4043 130.559 98.4043 130.559 98.4043C131.085 98.9728 131.236 99.4655 131.225 99.5797C131.215 99.6883 131.546 100.151 131.762 100.201C131.977 100.251 132.134 100.977 132.202 101.156C132.264 101.336 132.899 102.422 133.027 102.882C133.157 103.339 133.697 104.23 133.827 104.47C133.953 104.708 134.061 105.401 134.061 105.59C134.061 105.778 134.465 106.152 134.72 106.134C134.969 106.118 135.481 104.527 135.601 103.936C135.715 103.344 136.125 102.856 136.239 102.856C136.358 102.856 136.449 102.523 136.449 102.396C136.449 102.273 137.092 102.285 137.15 102.123C137.205 101.962 137.396 100.911 137.624 100.751C137.856 100.591 138.669 100.057 138.956 99.9568C139.238 99.8582 139.968 100.488 140.132 100.782C140.294 101.075 140.442 101.823 140.38 101.945C140.32 102.068 140.764 102.713 141.156 102.7C141.542 102.689 141.665 103.193 141.675 103.376C141.692 103.557 142.203 104.079 142.305 104.311C142.403 104.544 142.376 105.178 142.308 105.323C142.236 105.467 142.283 106.298 142.359 106.532C142.433 106.764 143.63 107.976 144.076 108.345C144.526 108.712 144.736 107.596 144.506 107.248C144.277 106.901 143.497 106.091 143.313 105.851C143.129 105.608 143.097 104.638 143.167 104.37C143.235 104.097 143.85 104.518 144.106 104.714C144.361 104.911 144.697 105.347 144.706 105.494C144.714 105.638 146.317 104.741 146.371 103.766C146.429 102.793 146.962 101.695 147.014 101.439C147.066 101.182 146.855 100.828 146.721 100.819C146.584 100.807 146.959 100.077 147.408 100.087C147.858 100.101 148.939 98.8956 149.194 98.4186C149.45 97.9402 149.966 97.5474 150.024 97.486C150.087 97.4303 150.447 96.2991 150.508 95.8307C150.568 95.3637 150.244 94.6339 150.206 94.3911C150.167 94.1497 149.78 93.5941 149.677 93.4185C149.58 93.2442 149.484 92.5901 149.547 92.4673C149.604 92.3473 150.011 92.2159 150.053 92.1088C150.098 91.9974 150.56 91.5032 150.527 91.2862C150.493 91.0662 150.815 91.5675 151.027 91.7475C151.238 91.9274 151.468 93.09 151.734 93.2185C151.992 93.3456 153.058 91.9874 152.925 91.1105C152.795 90.2321 153.233 89.1096 153.49 89.0096C153.685 88.9339 154.185 88.2241 154.524 87.7156C152.185 80.9617 148.385 74.9389 143.38 70.0416C143.32 70.0459 143.183 70.0345 143.127 70.0231C142.738 69.9388 142.737 69.9388 142.737 69.9388C142.082 69.8003 141.702 69.1004 141.813 68.9391C141.852 68.8876 141.881 68.7634 141.848 68.6234C141.485 68.2949 141.111 67.9722 140.731 67.6565C140.424 67.6465 140.06 67.6651 139.871 67.6551C139.478 67.6408 138.629 67.3623 138.477 67.2109C138.323 67.0595 137.81 67.3452 137.783 67.628C137.749 67.9122 136.856 68.0421 136.775 68.2578C136.683 68.4706 136.226 68.4877 136.136 68.3663C136.048 68.2464 135.219 68.6577 134.808 68.7191C134.397 68.7762 133.631 69.1104 133.447 69.1918C133.263 69.2718 132.827 69.7003 132.756 69.876C132.686 70.0545 132.157 70.3487 131.987 70.4172C131.816 70.4844 131.85 71.2527 132.07 71.3613C132.287 71.467 131.662 71.2685 131.388 71.1256C131.108 70.99 130.803 71.4555 130.719 71.6169C130.631 71.7769 130.379 71.5198 130.389 71.2927C130.398 71.0599 129.707 70.8757 129.617 71.0585C129.522 71.2427 129.045 70.9985 128.847 70.8943C128.647 70.7886 127.791 71.6841 127.473 72.0054C127.154 72.3253 125.635 72.5738 125.349 72.4539C125.063 72.3353 124.785 73.1265 125.028 73.1822C125.268 73.2294 124.409 73.1408 123.938 73.1851C123.464 73.2322 122.091 73.7821 121.764 74.0263C121.433 74.2705 121.17 73.972 121.17 73.7835C121.17 73.595 120.647 73.4222 120.49 73.3693C120.338 73.3179 120.03 74.3976 119.759 74.6047C119.486 74.8161 119.158 73.7621 118.517 73.5893C117.875 73.4165 116.874 72.7966 116.587 72.7238C116.306 72.6481 115.733 72.0497 115.572 71.8769C115.41 71.7041 114.59 71.5612 114.328 71.5612C114.063 71.5612 113.214 72.0482 112.988 72.2382C112.754 72.431 112.415 72.3924 112.302 72.4624C112.19 72.5296 111.227 73.4707 110.857 73.765C110.484 74.0592 109.833 75.326 109.625 75.6288C109.407 75.9301 109.106 75.9858 108.98 75.9958C108.856 76.0015 108.753 76.34 108.753 76.4628C108.753 76.5885 107.651 77.1626 107.537 77.6625C107.419 78.161 107.644 79.305 107.644 79.7134C107.644 80.119 108.054 80.926 108.359 80.9388C108.663 80.9531 108.505 81.6286 108.423 81.8186C108.343 82.01 108.616 82.2171 108.608 82.3784C108.601 82.5413 107.835 82.7669 107.599 82.8583C107.359 82.9454 106.98 83.4796 106.927 83.6781C106.885 83.8538 106.15 83.9766 105.907 84.2094C105.967 84.0409 106.05 83.8081 106.115 83.6781C106.257 83.411 106.061 82.9454 105.947 82.8498C105.83 82.7526 105.777 81.4273 105.591 81.1445C105.406 80.8574 104.941 80.3761 104.827 80.2833C104.713 80.1919 104.907 79.842 104.973 79.6934C105.04 79.5463 104.354 79.4621 104.167 79.572C103.98 79.6791 103.879 80.9917 103.802 81.3501C103.725 81.7086 104.14 82.2613 104.255 82.2856C104.364 82.3142 104.335 82.9597 104.095 82.9797C103.853 83.004 103.635 83.9466 103.758 84.1623C103.88 84.3779 103.586 84.8007 103.443 84.8978C103.302 84.9935 104.363 84.9392 104.852 84.9249C105.336 84.9135 105.717 85.1306 105.666 85.1692C105.614 85.2106 104.736 85.3405 104.579 85.5491C104.423 85.7562 103.826 86.1575 103.71 86.3189C103.596 86.4774 103.907 86.8316 104.16 86.8159C104.412 86.8016 104.699 87.6885 104.897 87.8513C105.093 88.0184 105.02 88.4769 104.937 88.604C104.846 88.7282 103.66 88.5183 103.211 88.6297C102.758 88.7411 102.188 89.6951 102.149 90.0536C102.108 90.415 102.222 91.449 102.284 91.736C102.339 92.0203 103.283 92.2002 103.473 92.3402C103.67 92.4773 104.57 92.3445 104.762 92.4316C104.944 92.5216 105.556 91.5161 105.677 91.0505C105.794 90.582 106.76 89.728 106.958 89.4095C107.158 89.0939 108.196 89.131 108.452 88.9625C108.708 88.7997 108.565 89.7508 108.688 90.2736C108.809 90.7991 109.803 90.7334 109.656 90.2407C109.51 89.7523 109.755 89.5366 109.796 89.7166C109.839 89.8908 110.791 90.2821 110.973 90.5578C111.151 90.8348 111.101 91.4218 110.889 91.4147C110.677 91.4061 110.669 92.0574 110.894 92.1274C111.117 92.1988 111.417 91.3947 111.658 91.2776C111.897 91.1562 112.093 90.6563 111.98 90.6178C111.873 90.5792 112.185 90.1322 112.322 90.2793C112.458 90.4264 111.813 89.3052 111.406 88.8953C110.999 88.4869 111.286 88.6683 112.045 89.2995C112.045 89.2995 112.045 89.2995 112.57 90.035C112.672 90.1664 112.807 90.5678 112.895 90.7163C113.019 90.9334 113.019 90.9334 113.019 90.9334C113.122 91.1905 113.212 91.8946 113.212 92.086C113.212 92.2731 113.624 92.6487 113.872 92.6315C114.122 92.6144 114.311 92.7501 114.259 92.7601C114.208 92.7686 114.425 93.2556 114.673 93.2671C114.919 93.2785 115.027 92.6387 114.778 92.623C114.529 92.6087 114.568 91.6832 114.535 91.2833C114.508 90.8791 114.716 90.5492 114.802 90.5492C114.888 90.5492 114.79 91.3776 114.799 91.5675C114.802 91.756 114.906 92.1331 115.025 92.4016C115.025 92.4016 115.025 92.4016 115.282 92.5958C115.857 93.0386 115.857 93.0386 115.857 93.0386C116.681 92.7943 117.79 92.9814 117.747 93.1514C117.701 93.3199 118.357 93.3599 118.397 93.0857C118.435 92.8172 118.465 93.0943 118.465 93.2842C118.465 93.4699 117.924 94.2054 117.835 94.5482C117.744 94.8852 115.84 94.6553 115.02 94.5939C114.201 94.5325 112.992 94.811 112.898 95.0552C112.808 95.3008 111.528 94.4925 110.943 94.2468C110.354 93.9983 109.894 93.1043 109.775 92.9886C109.653 92.87 109.876 92.5815 109.82 92.4073C109.763 92.2273 108.423 92.1902 108.036 92.3373C107.647 92.4801 105.638 92.6929 105.163 92.9C104.69 93.1128 103.973 92.8872 103.752 92.8472C103.529 92.8086 102.998 93.4627 102.731 93.5827C102.456 93.7012 102.115 94.6296 101.968 95.6508C101.968 95.6508 101.968 95.6507 101.604 96.3606C101.368 96.8147 101.368 96.8147 101.368 96.8147C100.704 97.3189 99.9713 99.0013 99.7543 99.3398C99.54 99.6769 99.3687 102.101 99.3687 102.916C99.3687 103.73 100.078 105.455 100.28 105.931C100.481 106.408 101.711 107.461 102.121 107.715C102.532 107.96 103.867 107.995 104.306 107.993C104.742 107.992 105.243 107.575 105.41 107.069C105.541 106.674 106.218 106.582 106.635 106.594C107.034 106.604 107.442 106.616 107.815 106.758C108.186 106.886 108.495 107.511 108.579 107.9Z" stroke="white" stroke-width="2" stroke-miterlimit="10"/>
<path id="Vector_5" d="M121.737 121.533C121.778 121.885 122.494 122.164 122.698 122.107C122.912 122.048 123.488 120.983 123.568 120.676C123.649 120.367 123.715 119.707 123.715 119.549C123.715 119.395 123.81 119.04 123.89 118.995C123.968 118.955 124.1 118.59 124.18 118.192C124.26 117.785 123.75 115.915 123.736 115.588C123.723 115.257 123.352 115.757 123.259 116.09C123.158 116.421 122.229 117.099 122.021 117.382C121.817 117.664 121.587 118.62 121.668 118.786C121.744 118.95 121.587 119.602 121.491 119.783C121.404 119.969 121.701 121.177 121.737 121.533Z" stroke="white" stroke-width="2" stroke-miterlimit="10"/>
<path id="Vector_6" d="M88.1428 134.487C88.3499 134.487 88.5499 134.487 88.7669 134.487C88.8783 133.81 88.1071 133.922 88.1428 134.487Z" stroke="white" stroke-width="2" stroke-miterlimit="10"/>
<path id="Vector_7" d="M104.84 63.9803C104.577 64.0131 103.898 63.8746 103.78 63.7504C103.666 63.6275 102.644 63.5161 102.352 63.639C102.056 63.7618 102.257 62.922 102.669 62.832C103.076 62.7392 102.729 62.1608 102.294 62.1608C101.856 62.1579 100.783 61.9994 100.532 62.0565C100.279 62.1108 99.7852 61.8808 99.6066 61.8537C99.4253 61.828 98.1356 62.2393 97.5257 62.2093C96.913 62.1836 95.4134 62.2436 95.0907 62.335C94.7608 62.4207 94.5265 63.0562 94.5737 63.2805C94.6222 63.509 93.124 63.5018 92.6527 63.509C92.18 63.5161 89.6678 64.0503 89.0122 64.4116C88.3552 64.7715 87.844 65.6927 88.0611 65.7127C88.2781 65.7298 87.6968 66.2526 87.3441 66.3768C86.9913 66.4968 86.1515 66.5511 85.9516 66.7482C85.7559 66.9452 86.1629 67.0809 86.2415 67.2166C86.3186 67.3451 86.5529 67.1009 86.7785 67.228C86.997 67.3537 87.7297 67.4123 87.9225 67.4865C88.1196 67.5637 87.3027 67.7193 86.9185 67.7479C86.5343 67.7736 86.6214 68.5277 86.9342 68.6305C87.247 68.7376 88.0525 68.8476 88.1339 68.7176C88.2167 68.5862 89.0908 68.859 89.4864 68.9062C89.8763 68.9476 90.1819 69.9359 90.299 70.1501C90.4204 70.3629 90.4461 71.1156 90.4161 71.3327C90.3904 71.5483 91.1131 71.9454 91.2445 71.8083C91.3716 71.6697 91.3345 72.1482 91.046 72.1239C90.7575 72.0982 90.946 72.9337 91.3045 73.0551C91.6587 73.1736 91.4159 73.6878 91.2102 73.8449C91.0017 73.9977 91.1145 74.4904 90.9032 74.6675C90.6946 74.8418 91.653 76.5028 91.6458 77.3597C91.6401 78.2123 92.1742 78.9107 92.377 78.9107C92.5813 78.9107 93.284 79.0821 93.3768 79.2664C93.4696 79.4492 93.8081 79.1393 93.9438 78.9993C94.0738 78.8608 94.3623 78.448 94.5779 78.0881C94.7936 77.7239 95.2735 76.0115 95.3406 75.8273C95.4049 75.643 96.2089 75.7587 96.3932 75.6644C96.576 75.5702 97.103 75.1546 97.2529 75.0317C97.4029 74.9089 98.5498 74.4219 98.8668 74.1962C99.1767 73.9734 99.6995 72.9994 99.9437 72.7923C100.189 72.5824 99.8195 72.6452 99.511 72.4438C99.2096 72.2439 99.3424 71.9997 99.431 71.9068C99.5181 71.8111 100.444 72.0611 100.763 72.1825C101.083 72.3096 101.69 71.8697 101.46 71.6983C101.222 71.5298 101.348 71.5355 101.46 71.6069C101.572 71.6769 101.692 71.0456 101.57 70.9257C101.446 70.8028 102.506 70.0316 102.319 69.3004C102.135 68.5705 102.609 67.8222 102.891 67.8122C103.179 67.805 103.093 66.9881 102.753 66.911C102.414 66.8353 102.734 66.7596 102.86 66.6439C102.987 66.5296 103.149 65.7998 103.076 65.6613C102.999 65.5185 103.597 65.3614 103.698 65.1957C103.806 65.0315 104.487 64.7044 104.73 64.6501C104.97 64.5901 105.1 63.9517 104.84 63.9803Z" stroke="white" stroke-width="2" stroke-miterlimit="10"/>
<path id="Vector_8" d="M104.133 75.23C104 74.9958 102.992 75.0258 102.745 75.0086C102.502 74.9958 101.746 74.7444 101.602 74.583C101.463 74.4231 101.351 75.2043 101.122 75.3057C100.889 75.4057 101.235 75.5542 101.331 75.4714C101.423 75.3885 101.323 75.8741 101.219 76.0398C101.116 76.2069 101.892 76.324 101.98 76.5739C102.066 76.8253 102.385 76.9881 102.69 76.941C102.994 76.8896 103.601 76.5754 103.816 76.554C104.033 76.5354 104.267 75.4628 104.133 75.23Z" stroke="white" stroke-width="2" stroke-miterlimit="10"/>
<path id="Vector_9" d="M79.5079 76.5927C79.3493 76.7398 79.4893 77.4796 79.7907 77.501C80.0906 77.5224 80.5719 76.3856 80.9418 76.6141C81.3103 76.8412 81.5602 76.9312 81.5002 76.8112C81.4374 76.6927 80.3862 76.2314 80.2562 76.1442C80.1248 76.0657 79.6707 76.4513 79.5079 76.5927Z" stroke="white" stroke-width="2" stroke-miterlimit="10"/>
<path id="Vector_10" d="M80.4662 100.166C81.0961 100.344 81.6631 100.692 82.2586 100.966C82.8528 101.24 83.5155 101.449 84.1582 101.324C84.441 101.27 84.7409 101.12 84.8251 100.844C84.868 100.702 84.8451 100.546 84.808 100.402C84.6566 99.8189 84.2596 99.3048 83.734 99.0106C82.9228 98.5564 81.6459 98.575 80.7505 98.7706C79.8078 98.9777 79.2565 99.8232 80.4662 100.166Z" stroke="white" stroke-width="2" stroke-miterlimit="10"/>
</g>
</g>
</g>
</g>
<path id="Vector_11" d="M131.501 106.066C131.501 122.982 117.789 136.692 100.873 136.692C83.9588 136.692 70.2466 122.98 70.2466 106.066C70.2466 89.1516 83.9588 75.4395 100.873 75.4395C117.789 75.438 131.501 89.1502 131.501 106.066Z" stroke="white" stroke-width="2" stroke-miterlimit="10"/>
</g>
</g>
<g id="Group_8">
<g id="Group_9">
<path id="Vector_12" d="M88.1411 55.8392C92.3886 65.4382 100.282 65.0711 100.282 65.0711C112.523 65.0711 117.742 55.8392 117.742 55.8392C117.742 55.8392 112.525 46.6073 100.282 46.6073C100.282 46.6073 92.3886 46.2403 88.1411 55.8392Z" stroke="white" stroke-width="2" stroke-miterlimit="10" stroke-linecap="round" stroke-linejoin="round"/>
<g id="Group_10">
<path id="Vector_13" d="M109.519 55.8389H84.2451" stroke="white" stroke-width="2" stroke-miterlimit="10" stroke-linecap="round" stroke-linejoin="round"/>
<g id="Group_11">
<path id="Vector_14" d="M95.3354 55.8386L100.087 51.0869" stroke="white" stroke-width="2" stroke-miterlimit="10" stroke-linecap="round" stroke-linejoin="round"/>
<path id="Vector_15" d="M102.942 55.8383L106.637 52.1436" stroke="white" stroke-width="2" stroke-miterlimit="10" stroke-linecap="round" stroke-linejoin="round"/>
<path id="Vector_16" d="M95.3354 55.8369L100.087 60.5885" stroke="white" stroke-width="2" stroke-miterlimit="10" stroke-linecap="round" stroke-linejoin="round"/>
<path id="Vector_17" d="M102.942 55.8369L106.637 59.5317" stroke="white" stroke-width="2" stroke-miterlimit="10" stroke-linecap="round" stroke-linejoin="round"/>
</g>
</g>
</g>
<g id="Group_12">
<path id="Vector_18" d="M144.026 79.6328C136.539 86.9909 139.666 94.2491 139.666 94.2491C143.98 105.705 154.459 107.334 154.459 107.334C154.459 107.334 161.259 99.1978 156.944 87.7422C156.944 87.7422 154.506 80.2241 144.026 79.6328Z" stroke="white" stroke-width="2" stroke-miterlimit="10" stroke-linecap="round" stroke-linejoin="round"/>
<g id="Group_13">
<path id="Vector_19" d="M151.561 99.6388L142.652 75.9863" stroke="white" stroke-width="2" stroke-miterlimit="10" stroke-linecap="round" stroke-linejoin="round"/>
<g id="Group_14">
<path id="Vector_20" d="M146.561 86.3672L152.683 89.1393" stroke="white" stroke-width="2" stroke-miterlimit="10" stroke-linecap="round" stroke-linejoin="round"/>
<path id="Vector_21" d="M149.243 93.4863L154.001 95.6415" stroke="white" stroke-width="2" stroke-miterlimit="10" stroke-linecap="round" stroke-linejoin="round"/>
<path id="Vector_22" d="M146.561 86.3672L143.79 92.4885" stroke="white" stroke-width="2" stroke-miterlimit="10" stroke-linecap="round" stroke-linejoin="round"/>
<path id="Vector_23" d="M149.243 93.4863L147.086 98.2465" stroke="white" stroke-width="2" stroke-miterlimit="10" stroke-linecap="round" stroke-linejoin="round"/>
</g>
</g>
</g>
<g id="Group_15">
<path id="Vector_24" d="M143.639 137.896C134.32 133.065 128.391 138.291 128.391 138.291C118.841 145.949 120.546 156.415 120.546 156.415C120.546 156.415 130.392 160.352 139.943 152.694C139.943 152.694 146.331 148.042 143.639 137.896Z" stroke="white" stroke-width="2" stroke-miterlimit="10" stroke-linecap="round" stroke-linejoin="round"/>
<g id="Group_16">
<path id="Vector_25" d="M126.962 151.272L146.68 135.46" stroke="white" stroke-width="2" stroke-miterlimit="10" stroke-linecap="round" stroke-linejoin="round"/>
<g id="Group_17">
<path id="Vector_26" d="M138.027 142.399L137.292 149.079" stroke="white" stroke-width="2" stroke-miterlimit="10" stroke-linecap="round" stroke-linejoin="round"/>
<path id="Vector_27" d="M132.094 147.157L131.522 152.35" stroke="white" stroke-width="2" stroke-miterlimit="10" stroke-linecap="round" stroke-linejoin="round"/>
<path id="Vector_28" d="M138.026 142.399L131.347 141.665" stroke="white" stroke-width="2" stroke-miterlimit="10" stroke-linecap="round" stroke-linejoin="round"/>
<path id="Vector_29" d="M132.094 147.156L126.899 146.585" stroke="white" stroke-width="2" stroke-miterlimit="10" stroke-linecap="round" stroke-linejoin="round"/>
</g>
</g>
</g>
<g id="Group_18">
<path id="Vector_30" d="M47.569 103.418C40.0824 96.0601 43.2101 88.802 43.2101 88.802C47.5247 77.3464 58.002 75.7168 58.002 75.7168C58.002 75.7168 64.8017 83.8533 60.4871 95.3089C60.4871 95.3089 58.0506 102.827 47.569 103.418Z" stroke="white" stroke-width="2" stroke-miterlimit="10" stroke-linecap="round" stroke-linejoin="round"/>
<g id="Group_19">
<path id="Vector_31" d="M55.104 83.4121L46.1963 107.066" stroke="white" stroke-width="2" stroke-miterlimit="10" stroke-linecap="round" stroke-linejoin="round"/>
<g id="Group_20">
<path id="Vector_32" d="M50.1045 96.6862L56.2258 93.9141" stroke="white" stroke-width="2" stroke-miterlimit="10" stroke-linecap="round" stroke-linejoin="round"/>
<path id="Vector_33" d="M52.7852 89.5673L57.5453 87.4121" stroke="white" stroke-width="2" stroke-miterlimit="10" stroke-linecap="round" stroke-linejoin="round"/>
<path id="Vector_34" d="M50.1047 96.6857L47.3325 90.5645" stroke="white" stroke-width="2" stroke-miterlimit="10" stroke-linecap="round" stroke-linejoin="round"/>
<path id="Vector_35" d="M52.7855 89.5668L50.6304 84.8066" stroke="white" stroke-width="2" stroke-miterlimit="10" stroke-linecap="round" stroke-linejoin="round"/>
</g>
</g>
</g>
<g id="Group_21">
<path id="Vector_36" d="M79.3899 154.796C70.0709 159.627 64.1424 154.402 64.1424 154.402C54.592 146.744 56.2973 136.278 56.2973 136.278C56.2973 136.278 66.1433 132.34 75.6937 139.998C75.6937 139.998 82.0821 144.648 79.3899 154.796Z" stroke="white" stroke-width="2" stroke-miterlimit="10" stroke-linecap="round" stroke-linejoin="round"/>
<g id="Group_22">
<path id="Vector_37" d="M62.7134 141.423L82.4312 157.236" stroke="white" stroke-width="2" stroke-miterlimit="10" stroke-linecap="round" stroke-linejoin="round"/>
<g id="Group_23">
<path id="Vector_38" d="M73.779 150.294L73.0449 143.614" stroke="white" stroke-width="2" stroke-miterlimit="10" stroke-linecap="round" stroke-linejoin="round"/>
<path id="Vector_39" d="M67.8452 145.537L67.2739 140.343" stroke="white" stroke-width="2" stroke-miterlimit="10" stroke-linecap="round" stroke-linejoin="round"/>
<path id="Vector_40" d="M73.7793 150.296L67.0996 151.03" stroke="white" stroke-width="2" stroke-miterlimit="10" stroke-linecap="round" stroke-linejoin="round"/>
<path id="Vector_41" d="M67.8452 145.536L62.6509 146.106" stroke="white" stroke-width="2" stroke-miterlimit="10" stroke-linecap="round" stroke-linejoin="round"/>
</g>
</g>
</g>
</g>
</g>
</g>
</g>
</g>
</svg>
