<svg width="200" height="200" viewBox="0 0 200 200" fill="none" xmlns="http://www.w3.org/2000/svg">
<g id="Frame 1321314815">
<g id="Group">
<g id="Group_2">
<g id="Group_3">
<g id="Group_4">
<g id="Group_5">
<path id="Vector" d="M100.924 82.6885C100.924 82.6885 111.335 74.8031 111.335 61.4245C111.335 48.046 100.924 41.999 100.924 41.999C100.924 41.999 90.5137 48.046 90.5137 61.4245C90.5137 74.8031 100.924 82.6885 100.924 82.6885Z" stroke="white" stroke-width="2" stroke-linecap="round" stroke-linejoin="round"/>
<path id="Vector_2" d="M100.968 86.786C100.968 86.786 110.204 92.3013 120.393 88.1814C130.604 84.0615 132 74.2491 132 74.2491C132 74.2491 124.159 68.1801 113.97 72.2999C103.759 76.4198 100.968 86.8081 100.968 86.8081V86.786Z" stroke="white" stroke-width="2" stroke-linecap="round" stroke-linejoin="round"/>
<path id="Vector_3" d="M100.88 86.786C100.88 86.786 91.6432 92.3013 81.4542 88.1814C71.2431 84.0615 69.8477 74.2491 69.8477 74.2491C69.8477 74.2491 77.6888 68.1801 87.8777 72.2999C98.0888 76.4198 100.88 86.8081 100.88 86.8081V86.786Z" stroke="white" stroke-width="2" stroke-linecap="round" stroke-linejoin="round"/>
<path id="Vector_4" d="M100.88 62.3545V104.683" stroke="white" stroke-width="2" stroke-linecap="round" stroke-linejoin="round"/>
<path id="Vector_5" d="M100.968 86.7895L116.074 80.6982" stroke="white" stroke-width="2" stroke-linecap="round" stroke-linejoin="round"/>
<path id="Vector_6" d="M100.482 86.7895L85.3755 80.6982" stroke="white" stroke-width="2" stroke-linecap="round" stroke-linejoin="round"/>
</g>
<g id="Group_6">
<g id="Group_7">
<path id="Vector_7" d="M57.9746 147.194V131.099C45.5706 125.184 37 112.527 37 97.8691C37 85.648 42.9584 74.8179 52.1289 68.1254C52.1289 68.1254 55.0068 66.9714 56.5121 69.1451C58.0174 71.3188 56.0965 74.0096 56.0965 74.0096C51.1421 78.0899 47.9815 84.2712 47.9815 91.1909C47.9815 99.2402 52.2575 106.291 58.6616 110.196" stroke="white" stroke-width="2" stroke-miterlimit="10" stroke-linecap="round" stroke-linejoin="round"/>
<path id="Vector_8" d="M80.1406 147.193V133.569C83.0598 131.447 84.9565 128.005 84.9565 124.119C84.9565 120.27 83.0941 116.856 80.222 114.728C78.581 113.247 73.865 111.506 73.865 111.506C66.2498 108.991 60.21 103.016 57.6092 95.4405C57.6092 95.4405 56.5566 91.6515 52.8333 92.1028C48.6929 92.6041 49.1814 98.4069 49.1814 98.4069" stroke="white" stroke-width="2" stroke-miterlimit="10" stroke-linecap="round" stroke-linejoin="round"/>
</g>
<g id="Group_8">
<path id="Vector_9" d="M143.766 147.194V131.099C156.17 125.184 164.741 112.527 164.741 97.8691C164.741 85.648 158.782 74.8179 149.612 68.1254C149.612 68.1254 146.734 66.9714 145.229 69.1451C143.723 71.3188 145.644 74.0096 145.644 74.0096C150.599 78.0899 153.759 84.2712 153.759 91.1909C153.759 99.2402 149.483 106.291 143.079 110.196" stroke="white" stroke-width="2" stroke-miterlimit="10" stroke-linecap="round" stroke-linejoin="round"/>
<path id="Vector_10" d="M121.602 147.193V133.569C118.682 131.447 116.786 128.005 116.786 124.119C116.786 120.27 118.648 116.856 121.52 114.728C123.161 113.247 127.879 111.506 127.879 111.506C135.494 108.991 141.534 103.016 144.134 95.4405C144.134 95.4405 145.187 91.6515 148.91 92.1028C153.051 92.6041 152.562 98.4069 152.562 98.4069" stroke="white" stroke-width="2" stroke-miterlimit="10" stroke-linecap="round" stroke-linejoin="round"/>
</g>
</g>
</g>
</g>
</g>
</g>
</g>
</svg>
