<svg width="200" height="200" viewBox="0 0 200 200" fill="none" xmlns="http://www.w3.org/2000/svg">
<g id="Frame 1321314819">
<g id="Group">
<g id="Group_2">
<g id="Group_3">
<g id="Group_4">
<g id="Group_5">
<g id="Group_6">
<path id="Vector" d="M108.614 91.9304C119.827 96.264 125.92 89.5741 125.92 89.5741C135.832 79.6622 132.582 67.962 132.582 67.962C132.582 67.962 120.883 64.7116 110.97 74.6245C110.97 74.6245 104.281 80.7189 108.614 91.9304Z" stroke="white" stroke-width="2" stroke-miterlimit="10" stroke-linecap="round" stroke-linejoin="round"/>
<g id="Group_7">
<path id="Vector_2" d="M125.924 74.624L105.458 95.0887" stroke="white" stroke-width="2" stroke-miterlimit="10" stroke-linecap="round" stroke-linejoin="round"/>
<g id="Group_8">
<path id="Vector_3" d="M114.439 86.1145V78.4189" stroke="white" stroke-width="2" stroke-miterlimit="10" stroke-linecap="round" stroke-linejoin="round"/>
<path id="Vector_4" d="M120.598 79.9546V73.9707" stroke="white" stroke-width="2" stroke-miterlimit="10" stroke-linecap="round" stroke-linejoin="round"/>
<path id="Vector_5" d="M114.439 86.1152H122.134" stroke="white" stroke-width="2" stroke-miterlimit="10" stroke-linecap="round" stroke-linejoin="round"/>
<path id="Vector_6" d="M120.598 79.9492H126.581" stroke="white" stroke-width="2" stroke-miterlimit="10" stroke-linecap="round" stroke-linejoin="round"/>
</g>
</g>
</g>
<g id="Group_9">
<path id="Vector_7" d="M69.1545 70.6063C64.8209 81.8187 71.5108 87.9122 71.5108 87.9122C81.4227 97.8241 93.1229 94.5746 93.1229 94.5746C93.1229 94.5746 96.3723 82.8754 86.4604 72.9625C86.4604 72.9625 80.3669 66.2727 69.1545 70.6063Z" stroke="white" stroke-width="2" stroke-miterlimit="10" stroke-linecap="round" stroke-linejoin="round"/>
<g id="Group_10">
<path id="Vector_8" d="M86.4647 87.9158L66 67.4502" stroke="white" stroke-width="2" stroke-miterlimit="10" stroke-linecap="round" stroke-linejoin="round"/>
<g id="Group_11">
<path id="Vector_9" d="M74.981 76.4326H82.6765" stroke="white" stroke-width="2" stroke-miterlimit="10" stroke-linecap="round" stroke-linejoin="round"/>
<path id="Vector_10" d="M81.1392 82.5918H87.123" stroke="white" stroke-width="2" stroke-miterlimit="10" stroke-linecap="round" stroke-linejoin="round"/>
<path id="Vector_11" d="M74.981 76.4326V84.1281" stroke="white" stroke-width="2" stroke-miterlimit="10" stroke-linecap="round" stroke-linejoin="round"/>
<path id="Vector_12" d="M81.1392 82.5918V88.5747" stroke="white" stroke-width="2" stroke-miterlimit="10" stroke-linecap="round" stroke-linejoin="round"/>
</g>
</g>
</g>
<g id="Group_12">
<path id="Vector_13" d="M115.36 51.5719C110.496 40.5796 101.457 41.0012 101.457 41.0012C87.4392 41.0012 81.4639 51.5719 81.4639 51.5719C81.4639 51.5719 87.4392 62.1426 101.457 62.1426C101.457 62.1426 110.496 62.5641 115.36 51.5719Z" stroke="white" stroke-width="2" stroke-miterlimit="10" stroke-linecap="round" stroke-linejoin="round"/>
<g id="Group_13">
<path id="Vector_14" d="M90.8809 51.5742H119.823" stroke="white" stroke-width="2" stroke-miterlimit="10" stroke-linecap="round" stroke-linejoin="round"/>
<g id="Group_14">
<path id="Vector_15" d="M107.124 51.5693L101.683 57.0106" stroke="white" stroke-width="2" stroke-miterlimit="10" stroke-linecap="round" stroke-linejoin="round"/>
<path id="Vector_16" d="M98.4141 51.5693L94.1836 55.8008" stroke="white" stroke-width="2" stroke-miterlimit="10" stroke-linecap="round" stroke-linejoin="round"/>
<path id="Vector_17" d="M107.124 51.5702L101.683 46.1289" stroke="white" stroke-width="2" stroke-miterlimit="10" stroke-linecap="round" stroke-linejoin="round"/>
<path id="Vector_18" d="M98.4141 51.5714L94.1836 47.3408" stroke="white" stroke-width="2" stroke-miterlimit="10" stroke-linecap="round" stroke-linejoin="round"/>
</g>
</g>
</g>
</g>
<g id="Group_15">
<g id="Group_16">
<path id="Vector_19" d="M56.9746 147.194V131.099C44.5706 125.184 36 112.527 36 97.8691C36 85.648 41.9584 74.8179 51.1289 68.1254C51.1289 68.1254 54.0068 66.9714 55.5121 69.1451C57.0174 71.3188 55.0965 74.0096 55.0965 74.0096C50.1421 78.0899 46.9815 84.2712 46.9815 91.1909C46.9815 99.2402 51.2575 106.291 57.6616 110.196" stroke="white" stroke-width="2" stroke-miterlimit="10" stroke-linecap="round" stroke-linejoin="round"/>
<path id="Vector_20" d="M79.1406 147.193V133.569C82.0598 131.447 83.9565 128.005 83.9565 124.119C83.9565 120.27 82.0941 116.856 79.222 114.728C77.581 113.247 72.865 111.506 72.865 111.506C65.2498 108.991 59.21 103.016 56.6092 95.4405C56.6092 95.4405 55.5566 91.6515 51.8333 92.1028C47.6929 92.6041 48.1814 98.4069 48.1814 98.4069" stroke="white" stroke-width="2" stroke-miterlimit="10" stroke-linecap="round" stroke-linejoin="round"/>
</g>
<g id="Group_17">
<path id="Vector_21" d="M142.766 147.194V131.099C155.17 125.184 163.741 112.527 163.741 97.8691C163.741 85.648 157.782 74.8179 148.612 68.1254C148.612 68.1254 145.734 66.9714 144.229 69.1451C142.723 71.3188 144.644 74.0096 144.644 74.0096C149.599 78.0899 152.759 84.2712 152.759 91.1909C152.759 99.2402 148.483 106.291 142.079 110.196" stroke="white" stroke-width="2" stroke-miterlimit="10" stroke-linecap="round" stroke-linejoin="round"/>
<path id="Vector_22" d="M120.602 147.193V133.569C117.682 131.447 115.786 128.005 115.786 124.119C115.786 120.27 117.648 116.856 120.52 114.728C122.161 113.247 126.879 111.506 126.879 111.506C134.494 108.991 140.534 103.016 143.134 95.4405C143.134 95.4405 144.187 91.6515 147.91 92.1028C152.051 92.6041 151.562 98.4069 151.562 98.4069" stroke="white" stroke-width="2" stroke-miterlimit="10" stroke-linecap="round" stroke-linejoin="round"/>
</g>
</g>
</g>
</g>
</g>
</g>
</g>
</svg>
