<svg width="200" height="200" viewBox="0 0 200 200" fill="none" xmlns="http://www.w3.org/2000/svg">
<g id="Frame 1321314820">
<g id="Group 48095826">
<path id="Vector" d="M89.4667 154.665C113.473 154.665 132.933 135.204 132.933 111.198C132.933 87.1921 113.473 67.7314 89.4667 67.7314C65.4607 67.7314 46 87.1921 46 111.198C46 117.911 47.5217 124.269 50.2391 129.944C51.173 131.895 51.501 134.105 50.9419 136.195L49.1595 142.856C47.7547 148.107 52.5581 152.91 57.8085 151.505L64.47 149.723C66.5594 149.164 68.7695 149.492 70.7203 150.426C76.3963 153.143 82.7537 154.665 89.4667 154.665Z" stroke="white" stroke-width="2.5"/>
<path id="Vector_2" d="M132.933 113.926C133.295 113.775 133.653 113.619 134.008 113.456C135.975 112.558 138.182 112.222 140.272 112.781L142.858 113.473C148.109 114.878 152.912 110.074 151.507 104.824L150.815 102.237C150.256 100.148 150.592 97.9406 151.491 95.9733C153.53 91.5085 154.667 86.5448 154.667 81.3157C154.667 61.8108 138.855 45.999 119.35 45.999C104.668 45.999 92.078 54.9585 86.75 67.7084" stroke="white" stroke-width="2.5"/>
<path id="Vector_3" d="M131.711 101.655C137.392 97.5046 141.083 90.7916 141.083 83.2165C141.083 70.6133 130.866 60.3965 118.263 60.3965C111.057 60.3965 104.63 63.737 100.448 68.954" stroke="white" stroke-width="2.5" stroke-miterlimit="10" stroke-linecap="round" stroke-linejoin="round"/>
<g id="Group 48095825">
<path id="Vector_4" d="M79.3657 110.59L88.5478 119.225L101.148 102.629" stroke="white" stroke-width="2.5" stroke-miterlimit="10" stroke-linecap="round" stroke-linejoin="round"/>
</g>
</g>
</g>
</svg>
